<?xml version="1.0" standalone="no"?>
<!DOCTYPE svg PUBLIC "-//W3C//DTD SVG 1.1//EN" "http://www.w3.org/Graphics/SVG/1.1/DTD/svg11.dtd" >
<svg xmlns="http://www.w3.org/2000/svg" xmlns:xlink="http://www.w3.org/1999/xlink" version="1.1">
<metadata>
Created by FontForge 20170731 at Tue Apr 28 18:18:13 2015
 By Aleksey,,,
Copyright (c) 2015 by Dogu Kaya. All rights reserved.
</metadata>
<defs>
<font id="Kollektif-Italic" horiz-adv-x="732" >
  <font-face 
    font-family="Kollektif"
    font-weight="400"
    font-style="italic"
    font-stretch="normal"
    units-per-em="1000"
    panose-1="2 11 6 4 2 1 1 1 1 2"
    ascent="809"
    descent="-191"
    x-height="479"
    cap-height="709"
    bbox="-76 -240 1101 934"
    underline-thickness="80"
    underline-position="-275"
    unicode-range="U+0020-FB04"
  />
<missing-glyph horiz-adv-x="354" 
 />
    <glyph glyph-name="ff" unicode="ff" horiz-adv-x="699" 
d="M433 0l62 392h-229l-62 -392h-97l62 392h-82l10 67l85 20l10 58q8 51 27 88.5t45 61.5t57 35.5t64 11.5q41 0 80 -17l-11 -71q-35 11 -60 11q-41 0 -68 -25t-35 -80l-12 -73h229l10 58q8 51 27 88.5t45 61.5t57 35.5t64 11.5q41 0 80 -17l-11 -71q-35 11 -60 11
q-41 0 -68 -25t-35 -80l-12 -73h148l-13 -87h-148l-62 -392h-97z" />
    <glyph glyph-name="fi" unicode="fi" horiz-adv-x="499" 
d="M102 0l62 392h-82l10 67l85 20l10 58q10 54 30.5 91.5t48 61t60.5 34t67 10.5q45 0 85.5 -13t73.5 -41l-50 -56q-20 8 -40 15q-17 6 -38 11t-38 5q-35 0 -63 -22t-37 -81l-12 -73h261l-75 -479h-97l62 392h-164l-62 -392h-97z" />
    <glyph glyph-name="fl" unicode="fl" horiz-adv-x="497" 
d="M99 0l62 392h-82l10 67l85 20l8 51q12 63 37.5 102.5t60 62t75.5 31t83 8.5q34 0 67 -3.5t64 -8.5l-114 -722h-97l103 651q-11 1 -21.5 1.5t-21.5 0.5q-23 0 -45 -4.5t-40.5 -16.5t-32 -33t-18.5 -54l-11 -66h108l-13 -87h-108l-62 -392h-97z" />
    <glyph glyph-name="ffi" unicode="ffi" horiz-adv-x="826" 
d="M427 0l62 392h-219l-62 -392h-97l62 392h-82l10 67l85 20l10 58q8 51 27 88.5t45 61.5t57.5 35.5t64.5 11.5q40 0 79 -17l-11 -71q-35 11 -60 11q-41 0 -68 -25t-35 -80l-12 -73h219l10 58q10 54 30.5 91.5t48 61t60.5 34t67 10.5q45 0 85.5 -13t73.5 -41l-50 -56
q-20 8 -40 15q-17 6 -38 11t-38 5q-35 0 -63 -22t-37 -81l-12 -73h261l-75 -479h-97l62 392h-164l-62 -392h-97z" />
    <glyph glyph-name="ffl" unicode="ffl" horiz-adv-x="833" 
d="M435 0l62 392h-229l-62 -392h-97l62 392h-82l10 67l85 20l10 58q8 51 27 88.5t45 61.5t57 35.5t64 11.5q41 0 80 -17l-11 -71q-35 11 -60 11q-41 0 -68 -25t-35 -80l-12 -73h229l8 51q12 63 37.5 102.5t60 62t75.5 31t83 8.5q34 0 67 -3.5t64 -8.5l-114 -722h-97l103 651
q-11 1 -21.5 1.5t-21.5 0.5q-23 0 -45 -4.5t-40.5 -16.5t-32 -33t-18.5 -54l-11 -66h108l-13 -87h-108l-62 -392h-97z" />
    <glyph glyph-name="f_f_j" unicode="ffj" horiz-adv-x="814" 
d="M420 0l62 392h-228l-62 -392h-97l62 392h-82l10 67l85 20l10 58q8 51 27 88.5t45 61.5t57 35.5t64 11.5q41 0 80 -17l-11 -71q-35 11 -60 11q-41 0 -68 -25t-35 -80l-12 -73h228l10 58q10 54 30.5 91.5t48 61t60.5 34t67 10.5q45 0 85.5 -13t73.5 -41l-50 -56
q-20 8 -40 15q-17 6 -38 11t-38 5q-35 0 -63 -22t-37 -81l-12 -73h261l-81 -512q-8 -47 -23 -78.5t-36 -51t-46.5 -28t-52.5 -8.5q-44 0 -89 17l29 72q14 -2 25.5 -3t21.5 -1q34 0 50 14.5t22 51.5l70 440h-164l-62 -392h-97z" />
    <glyph glyph-name="f_j" unicode="fj" horiz-adv-x="486" 
d="M93 0l62 392h-82l10 67l85 20l10 58q10 54 30.5 91.5t48 61t60.5 34t67 10.5q45 0 85.5 -13t73.5 -41l-50 -56q-20 8 -40 15q-17 6 -38 11t-38 5q-35 0 -63 -22t-37 -81l-12 -73h261l-81 -512q-8 -47 -23 -78.5t-36 -51t-46.5 -28t-52.5 -8.5q-44 0 -89 17l29 72
q14 -2 25.5 -3t21.5 -1q34 0 50 14.5t22 51.5l70 440h-164l-62 -392h-97z" />
    <glyph glyph-name=".notdef" horiz-adv-x="354" 
 />
    <glyph glyph-name=".null" horiz-adv-x="0" 
 />
    <glyph glyph-name="nonmarkingreturn" horiz-adv-x="333" 
 />
    <glyph glyph-name="space" unicode=" " horiz-adv-x="261" 
 />
    <glyph glyph-name="exclam" unicode="!" horiz-adv-x="258" 
d="M112 164l74 545h113l-99 -545h-88zM129 -10q-26 0 -42 18t-11 44q4 26 25.5 44.5t47.5 18.5t41 -18.5t11 -44.5q-5 -26 -25.5 -44t-46.5 -18z" />
    <glyph glyph-name="quotedbl" unicode="&#x22;" horiz-adv-x="380" 
d="M211 462h-80l22 245h112zM394 462h-80l22 245h113z" />
    <glyph glyph-name="numbersign" unicode="#" 
d="M790 498l-10 -67h-160l-68 -207h152l-11 -67h-163l-53 -165l-63 11l49 152h-203l-53 -163l-63 11l49 151h-149l11 67h160l67 207h-152l11 67h163l53 165l63 -11l-49 -152h203l54 163l63 -11l-50 -152zM553 430h-203l-68 -207h203z" />
    <glyph glyph-name="dollar" unicode="$" horiz-adv-x="494" 
d="M175 108q25 -13 59 -16l33 211q-40 11 -67 24q-32 15 -53 36q-50 47 -38 123q6 38 27 71q21 35 51 58q16 12 34 21.5t38 15.5q16 5 32 7.5t34 3.5l12 77h65l-13 -79q41 -6 74 -22q51 -26 72 -72l-80 -45q-21 32 -54 44q-6 3 -12.5 4.5t-13.5 3.5l-30 -192q19 -5 34 -11
t28 -12q18 -8 32 -17t25 -20q52 -49 40 -130q-6 -41 -29 -76q-11 -17 -25.5 -32.5t-32.5 -28.5q-28 -22 -61 -34t-71 -17l-13 -86h-65l13 85q-58 4 -105 30q-58 32 -77 83l87 42q6 -17 19 -29t31 -21zM299 93q97 12 111 98q3 21 -2 33q-5 13 -16 25q-10 9 -25 17.5t-38 16.5
zM253 413q12 -6 30 -12l28 177q-8 -1 -16 -3l-16 -4q-12 -5 -22 -10.5t-20 -11.5q-13 -10 -22 -27q-8 -14 -11 -34q-1 -6 -1.5 -12t0.5 -12q4 -14 14 -26q6 -6 14.5 -12.5t21.5 -12.5z" />
    <glyph glyph-name="percent" unicode="%" horiz-adv-x="690" 
d="M376 140q5 31 21 59t40 48.5t53.5 32.5t61.5 12q31 0 57 -12t43.5 -32.5t25.5 -48.5t3 -59q-5 -32 -21.5 -59.5t-40.5 -48t-54 -32.5t-61 -12q-32 0 -57.5 12t-43 32.5t-25 48t-2.5 59.5zM541 226q-18 0 -34.5 -6.5t-30 -18.5t-22.5 -27.5t-12 -33.5q-6 -36 15.5 -61.5
t56.5 -25.5q18 0 35 7t30.5 18.5t23 27.5t12.5 34q5 36 -16.5 61t-57.5 25zM245 410q-32 0 -57.5 12t-43 32.5t-24.5 48t-2 59.5q5 31 21 59t40 49t53.5 33t61.5 12q31 0 57 -12t43.5 -33t25.5 -49t3 -59q-5 -32 -22 -59.5t-41 -48t-54 -32.5t-61 -12zM283 649
q-18 0 -34.5 -7t-30 -18.5t-22.5 -27.5t-12 -34q-6 -35 15.5 -60.5t56.5 -25.5q18 0 35 7t30.5 18.5t23 27t12.5 33.5q5 36 -16.5 61.5t-57.5 25.5zM650 736l52 -34l-546 -727l-52 34z" />
    <glyph glyph-name="ampersand" unicode="&#x26;" horiz-adv-x="667" 
d="M528 513q-6 -19 -20 -37t-34.5 -35.5t-45 -35.5t-49.5 -37q16 -22 31.5 -44t32.5 -43l62 -81q32 26 63.5 55.5t61.5 61.5l62 -64q-34 -35 -66.5 -65t-69.5 -59l99 -131h-129q-8 11 -16 21t-15 20l-22 30q-2 -2 -3.5 -2.5t-3.5 -2.5q-24 -16 -48.5 -31t-51.5 -26.5
t-58 -18.5t-69 -7q-39 0 -73.5 12t-58.5 35t-35.5 56.5t-4.5 77.5q6 37 22 68t39 57.5t51.5 49.5t60.5 44q-25 35 -50.5 68.5t-50.5 67.5l1 7q7 42 30 78.5t55.5 63t71 41.5t76.5 15q36 0 68 -14t55 -38t34.5 -56t5.5 -69l-4 -16zM317 85q55 21 103 53q-20 29 -42 58t-43 58
l-44 58q-21 -14 -41.5 -30t-37.5 -34t-29 -38.5t-16 -43.5q-8 -49 17 -72t66 -23q17 0 34.5 4t32.5 10zM436 540q3 17 -2 33t-15.5 28.5t-26 20t-33.5 7.5q-35 0 -67 -24.5t-45 -61.5l79 -106q15 10 30 21t29 21q2 1 8 5.5t7 5.5q14 10 22.5 19t12.5 26z" />
    <glyph glyph-name="quotesingle" unicode="'" horiz-adv-x="260" 
d="M238 463h-78l27 246h110z" />
    <glyph glyph-name="parenleft" unicode="(" horiz-adv-x="283" 
d="M155 -138q-49 94 -66 208.5t3 242.5t72.5 241t129.5 206l77 -20q-75 -88 -126 -196.5t-71 -230.5q-20 -124 -3 -233t65 -197z" />
    <glyph glyph-name="parenright" unicode=")" horiz-adv-x="302" 
d="M4 -117q75 88 127 197t72 233q20 122 3 230.5t-62 196.5l81 20q47 -93 63.5 -206t-3.5 -241t-73.5 -242.5t-130.5 -208.5z" />
    <glyph glyph-name="asterisk" unicode="*" horiz-adv-x="414" 
d="M254 514l-149 27l37 78l131 -57l4 145h82l-39 -143l148 55l11 -78l-148 -29l85 -113l-73 -49l-59 140l-101 -139l-58 48z" />
    <glyph glyph-name="plus" unicode="+" horiz-adv-x="519" 
d="M387 546l-35 -219h210l-10 -66h-210l-35 -219h-4h-62h-12l35 219h-215l10 66h215l35 219h12h62h4v0z" />
    <glyph glyph-name="comma" unicode="," horiz-adv-x="292" 
d="M103 -128h-81l72 246h113z" />
    <glyph glyph-name="hyphen" unicode="-" horiz-adv-x="385" 
d="M97 327h294l-10 -66h-294z" />
    <glyph glyph-name="period" unicode="." horiz-adv-x="239" 
d="M51 52q4 26 25 44.5t47 18.5t41 -18.5t11 -44.5q-5 -26 -25.5 -44t-46.5 -18t-41.5 18t-10.5 44z" />
    <glyph glyph-name="slash" unicode="/" horiz-adv-x="500" 
d="M553 736l52 -34l-546 -727l-52 34z" />
    <glyph glyph-name="zero" unicode="0" horiz-adv-x="580" 
d="M283 -10q-52 0 -94 24.5t-69 69.5q-26 44 -36 101t0 122l14 87q11 72 39 131t66 102q39 44 89 67.5t106 23.5q55 0 97.5 -23t68.5 -67q26 -43 35 -102.5t-2 -131.5l-14 -87q-11 -69 -39.5 -126.5t-68.5 -100.5q-41 -43 -90 -66.5t-102 -23.5zM186 307q-8 -49 -2 -91
t23 -72q17 -26 40 -40.5t52 -14.5q33 0 62.5 16t53.5 44.5t41 68.5t25 89l14 87q9 57 4 101t-22 74q-32 50 -94 50q-64 0 -112 -51q-53 -59 -71 -174z" />
    <glyph glyph-name="one" unicode="1" horiz-adv-x="299" 
d="M221 615h-95l15 94h200l-112 -709h-105z" />
    <glyph glyph-name="two" unicode="2" horiz-adv-x="551" 
d="M45 0l11 70l240 232q55 55 87 86t49 50t23.5 33t9.5 36q9 56 -19.5 84.5t-75.5 28.5q-24 0 -46 -9.5t-40 -25.5t-30.5 -36t-15.5 -42h-102q7 43 30 81.5t56.5 67.5t75.5 46t87 17t81.5 -17t61 -46t35.5 -67.5t4 -81.5q-5 -32 -18.5 -62.5t-36.5 -53.5l-297 -294h302
l-15 -97h-457z" />
    <glyph glyph-name="three" unicode="3" horiz-adv-x="540" 
d="M403 464q46 -4 76.5 -24t47.5 -50.5t21.5 -69t-2.5 -78.5q-8 -50 -34.5 -95.5t-65 -80t-86 -55.5t-97.5 -21q-41 0 -75.5 13.5t-61.5 37t-44.5 55.5t-24.5 68l98 35q7 -47 42 -79t88 -30q28 1 55 13.5t48.5 33t37 46t21.5 54.5q6 30 -0.5 57t-22.5 47.5t-40 33t-54 13.5
q-10 0 -20.5 -2t-20.5 -5l-31 50l153 184h-214l15 94h349l-11 -67q-41 -50 -74 -89q-14 -17 -27 -32.5t-23.5 -28.5t-16.5 -20.5z" />
    <glyph glyph-name="four" unicode="4" horiz-adv-x="642" 
d="M96 130l-25 51l455 528h83l-77 -485h114l-15 -94h-114l-20 -130h-105l20 130h-316zM228 224h197l45 285z" />
    <glyph glyph-name="five" unicode="5" horiz-adv-x="538" 
d="M257 90q30 0 58.5 11.5t51.5 31.5t38.5 46.5t20.5 56.5q6 38 -5.5 70.5t-37.5 52.5q-22 18 -63.5 24t-85.5 -11q-23 -10 -42 -26l-53 40l88 323h310l-15 -94h-223l-40 -152q27 9 55 11t53.5 -1t47.5 -12t38 -22q44 -34 62.5 -87.5t8.5 -115.5q-8 -51 -34.5 -95.5
t-64.5 -78t-85.5 -53t-98.5 -19.5q-58 0 -103.5 26t-72.5 68q-18 24 -24 55l93 49q4 -23 17 -42q16 -26 43.5 -41t62.5 -15z" />
    <glyph glyph-name="six" unicode="6" horiz-adv-x="569" 
d="M285 -10q-51 0 -92.5 19.5t-69 53t-39.5 78t-4 95.5q5 35 21 67t37 64q5 7 18 26t31 44.5t39 55.5l42 60q49 70 109 156h110l-169 -239q54 13 101 4t79 -35q43 -34 62 -87.5t9 -115.5q-8 -51 -34.5 -95.5t-65 -78t-86 -53t-98.5 -19.5zM229 336q-17 -26 -32.5 -54
t-18.5 -46q-5 -30 2.5 -57t24 -47t41 -32t54.5 -12t58.5 12t52 32t39 47t20.5 57q6 38 -5 70.5t-37 52.5q-16 13 -39 20.5t-49.5 6.5t-54.5 -11t-52 -33z" />
    <glyph glyph-name="seven" unicode="7" horiz-adv-x="484" 
d="M401 615h-274l15 94h407v-1l-8 -47l-379 -661h-113z" />
    <glyph glyph-name="eight" unicode="8" horiz-adv-x="515" 
d="M67 216q8 52 39 97.5t80 72.5q-29 26 -38.5 60.5t-3.5 72.5q6 40 27.5 76t52.5 63.5t69.5 43.5t78.5 16t73 -16t55.5 -43.5t32.5 -63.5t4 -76q-6 -38 -28 -72.5t-55 -60.5q18 -12 31.5 -30.5t22 -41t11.5 -47.5t-1 -51q-8 -46 -32.5 -87t-60 -72t-79 -49t-89.5 -18
t-84 18t-64 49t-38 72t-4 87zM357 621q-20 0 -38.5 -8.5t-33.5 -22.5t-25 -32.5t-13 -38.5q-5 -28 5.5 -50.5t31.5 -34.5q17 -10 42 -10q24 0 44 10q26 12 42.5 34.5t21.5 50.5q3 20 -1.5 38.5t-14.5 32.5t-26 22.5t-35 8.5zM265 330q-36 -14 -61.5 -44.5t-31.5 -69.5
q-4 -25 1.5 -48t19 -41t33.5 -28.5t46 -10.5q25 0 48.5 10.5t43 28.5t32.5 41t17 48q6 39 -9.5 69.5t-46.5 44.5q-21 9 -45 9q-25 0 -47 -9z" />
    <glyph glyph-name="nine" unicode="9" horiz-adv-x="556" 
d="M178 273q-43 35 -62 88.5t-9 114.5q8 51 34 95t64.5 76.5t86 51.5t98.5 19q50 0 91.5 -19t69.5 -51.5t40.5 -76.5t4.5 -95q-5 -35 -21.5 -67t-37.5 -64q-5 -8 -18.5 -27t-31.5 -44.5t-39.5 -56t-42.5 -60.5q-50 -71 -111 -157h-109l173 243q-54 -13 -101 -4.5t-79 34.5z
M375 622q-30 0 -58.5 -11.5t-52 -31t-39 -46.5t-20.5 -57q-6 -38 5 -70.5t37 -52.5q16 -13 39 -20.5t49.5 -6.5t54.5 11t52 33l5 6q17 26 32.5 54t18.5 46q5 30 -2.5 57t-24 46.5t-41.5 31t-55 11.5z" />
    <glyph glyph-name="colon" unicode=":" horiz-adv-x="304" 
d="M188 300q-26 0 -41.5 18t-10.5 44q4 26 25 44.5t47 18.5t41.5 -18.5t11.5 -44.5q-5 -26 -26 -44t-47 -18zM87 52q4 26 25 44.5t47 18.5t41 -18.5t11 -44.5q-5 -26 -25.5 -44t-46.5 -18t-41.5 18t-10.5 44z" />
    <glyph glyph-name="semicolon" unicode=";" horiz-adv-x="274" 
d="M182 300q-26 0 -41.5 18t-10.5 44q4 26 25 44.5t47 18.5t41.5 -18.5t11.5 -44.5q-5 -26 -26 -44t-47 -18zM103 -128h-81l72 246h113z" />
    <glyph glyph-name="less" unicode="&#x3c;" horiz-adv-x="482" 
d="M49 277l465 209l-11 -73l-384 -172l329 -173l-11 -73l-399 209z" />
    <glyph glyph-name="equal" unicode="=" horiz-adv-x="518" 
d="M114 434h426l-10 -66h-426zM497 161h-426l10 65h426z" />
    <glyph glyph-name="greater" unicode="&#x3e;" horiz-adv-x="484" 
d="M122 486l399 -209l-11 -73l-465 -209l11 73l384 173l-329 172z" />
    <glyph glyph-name="question" unicode="?" horiz-adv-x="463" 
d="M167 115q26 0 41 -18.5t11 -44.5q-5 -26 -25.5 -44t-46.5 -18t-41.5 18t-10.5 44q4 26 25 44.5t47 18.5zM273 624q-35 0 -64 -6.5t-58 -28.5v93q31 17 66 26.5t71 9.5q51 0 92.5 -18t70 -48.5t41 -71.5t5.5 -87q-18 -113 -142 -181q-20 -11 -41 -19t-39 -20t-31.5 -30
t-18.5 -48l-5 -31h-96l6 36q7 46 31 78t53 53t58.5 34t48.5 21q33 14 53 45t25 64q4 27 -3.5 50.5t-25 41t-42.5 27.5t-55 10z" />
    <glyph glyph-name="at" unicode="@" horiz-adv-x="814" 
d="M516 710q85 0 151.5 -29t108.5 -81q37 -51 51 -117t1 -144l-3 -18q-9 -44 -22.5 -74t-29.5 -50.5t-31.5 -32t-27.5 -17.5q-27 -13 -53 -13q-35 0 -69 23q-25 19 -37 44q-29 -29 -64.5 -44.5t-77.5 -15.5q-39 0 -71.5 15t-54.5 40.5t-31 60t-3 73.5q6 40 26.5 74.5
t50.5 60.5t67 41t76 15q35 0 63.5 -13t48.5 -35l30 36l52 -4l-48 -200l-1 -8q-5 -29 4 -48.5t22 -29.5q15 -10 29 -10q8 0 18 4q20 10 36 38.5t24 71.5l1 8q0 2 1 4t1 4q13 82 -4 138.5t-54 91.5t-87.5 50.5t-104.5 15.5q-60 0 -117.5 -24.5t-104.5 -66t-79.5 -96.5
t-42.5 -117q-10 -61 2.5 -113t44 -91t79.5 -63t109 -29q7 -1 13.5 -1h12.5q62 0 124 25l19 -69q-38 -16 -77.5 -23.5t-77.5 -7.5q-5 0 -11 0.5t-14 1.5h-6q-77 6 -136.5 36t-98.5 79t-54.5 114t-3.5 141q12 75 50.5 143.5t99.5 122.5q63 55 135 84t146 29zM425 216
q45 0 79 32t42 82q8 51 -16 83.5t-69 32.5q-24 0 -46 -9.5t-40 -25t-30.5 -36.5t-16.5 -45t2 -44.5t19 -36t32.5 -24.5t43.5 -9z" />
    <glyph glyph-name="A" unicode="A" 
d="M125 0h-114l407 709h115l183 -709h-113l-58 222h-293zM307 318h213l-66 256z" />
    <glyph glyph-name="B" unicode="B" horiz-adv-x="600" 
d="M589 198q-7 -41 -28 -77t-52.5 -63t-70 -42.5t-79.5 -15.5h-303l112 709h277q36 0 66 -14t50 -38t29 -56.5t3 -69.5q-8 -46 -29 -83.5t-59 -63.5q54 -21 74 -71.5t10 -114.5zM226 422q40 -1 74 -1h100q38 0 68.5 28.5t37.5 68.5q6 41 -15.5 69t-59.5 28h-174zM175 97
q7 -1 31 -1h168q21 0 41 9t36.5 24.5t27.5 36.5t15 45t-1 44.5t-16.5 36t-28.5 24.5t-38 9h-199z" />
    <glyph glyph-name="C" unicode="C" horiz-adv-x="686" 
d="M403 87q58 0 112 28t95 74l62 -70q-57 -57 -131 -93t-153 -36q-72 0 -131 29t-98.5 78.5t-56.5 116t-5 140.5q12 75 49.5 141t92.5 115.5t123.5 78.5t140.5 29q67 0 122.5 -26.5t95.5 -69.5l-74 -79q-28 35 -68.5 57.5t-90.5 22.5q-51 0 -99 -21.5t-87 -58.5t-65.5 -85.5
t-35.5 -103.5t2.5 -103.5t39 -85t68.5 -57.5t92 -21z" />
    <glyph glyph-name="D" unicode="D" horiz-adv-x="678" 
d="M60 0l112 709h252q77 0 131.5 -28t86.5 -76t42.5 -113t-1.5 -138q-12 -74 -43.5 -138.5t-77 -112.5t-102 -75.5t-116.5 -27.5h-284zM323 97q57 0 100.5 21t75 56t51 82t27.5 98t3.5 98.5t-24.5 83.5t-57 57.5t-94 21.5h-143l-82 -518h143z" />
    <glyph glyph-name="E" unicode="E" horiz-adv-x="549" 
d="M601 709l-15 -94h-329l-31 -193h293l-15 -97v0h-293l-36 -228h329l-15 -97v0h-329h-52h-52l112 709h433z" />
    <glyph glyph-name="F" unicode="F" horiz-adv-x="540" 
d="M646 709l-15 -94h-374l-31 -193h339l-15 -97h-339l-51 -325h-104l112 709h478z" />
    <glyph glyph-name="G" unicode="G" horiz-adv-x="710" 
d="M512 379h193l-42 -260q-57 -57 -130.5 -93t-153.5 -36q-72 0 -131 29t-98.5 78.5t-56.5 115.5t-5 141q12 74 49.5 140.5t92.5 116t123.5 78.5t140.5 29q66 0 121 -26t95 -68l-74 -79q-28 35 -68 56.5t-89 21.5q-51 0 -98.5 -21.5t-86.5 -58.5t-65.5 -85.5t-35.5 -103.5
t2.5 -103.5t38.5 -85t68 -57.5t92 -21q47 0 91 18.5t81 49.5l20 127h-90z" />
    <glyph glyph-name="H" unicode="H" horiz-adv-x="723" 
d="M670 709h104l-112 -709h-104l51 325h-397l-51 -325h-105l112 709h105l-46 -287h397z" />
    <glyph glyph-name="I" unicode="I" horiz-adv-x="393" 
d="M346 623l-85 -537h52l-13 -86h-209l13 86h53l85 537h-53l14 86h209l-14 -86h-52z" />
    <glyph glyph-name="J" unicode="J" horiz-adv-x="482" 
d="M535 709q-18 -114 -33 -208q-6 -40 -12.5 -79.5t-12 -72.5t-9 -56.5t-4.5 -31.5q-4 -24 -7.5 -46.5t-10 -44.5t-17 -43.5t-28.5 -41.5q-39 -45 -88.5 -70t-103.5 -25q-39 0 -71 14.5t-56 39t-38 57.5t-15 69l100 29q0 -22 7 -41.5t20 -34.5t31 -23.5t39 -8.5q24 0 44 9.5
t35.5 25t27 36t17.5 41.5q1 5 4 21t7 40.5t9 55.5t10 65q8 54 17 111t17 105q9 55 17 108h104z" />
    <glyph glyph-name="K" unicode="K" horiz-adv-x="700" 
d="M401 380l280 -381h-141l-219 312l-130 -112l-31 -199h-104l112 709h104l-61 -381l92 83l342 298h137z" />
    <glyph glyph-name="L" unicode="L" horiz-adv-x="513" 
d="M59 0l112 709h105l-97 -612h328l-15 -97h-433z" />
    <glyph glyph-name="M" unicode="M" horiz-adv-x="825" 
d="M772 709h105l-112 -709h-104l86 544l-252 -285h-81l-163 285l-86 -544h-105l112 709h105l194 -341z" />
    <glyph glyph-name="N" unicode="N" horiz-adv-x="725" 
d="M779 709l-112 -709h-106l-310 544l-86 -544h-109l112 709h110l309 -547l87 547h105z" />
    <glyph glyph-name="O" unicode="O" horiz-adv-x="767" 
d="M498 719q72 0 131.5 -29t99.5 -78.5t57.5 -116t5.5 -140.5q-12 -75 -50.5 -141t-94.5 -115.5t-124.5 -78.5t-140.5 -29t-131.5 29t-99 78.5t-56.5 115.5t-5 141q12 74 50 140.5t93.5 116t124 78.5t140.5 29zM399 90q51 0 98.5 20.5t86 56.5t65.5 84.5t36 103.5t-2.5 103
t-39 84t-68.5 56.5t-92 20.5t-99 -20.5t-87 -56.5t-65.5 -84t-35.5 -103t2.5 -103.5t39.5 -84.5t69 -56.5t92 -20.5z" />
    <glyph glyph-name="P" unicode="P" horiz-adv-x="582" 
d="M454 709q42 0 76.5 -16t57.5 -43t33.5 -63.5t3.5 -78.5t-28.5 -79t-53.5 -64t-71.5 -42.5t-81.5 -15.5l-184 -1l-48 -306h-104l112 709h288zM405 404q21 0 41 8.5t36 22.5t27.5 33.5t14.5 41.5t-2 41t-16.5 33.5t-28.5 23t-38 8.5h-184l-34 -212h184z" />
    <glyph glyph-name="Q" unicode="Q" horiz-adv-x="794" 
d="M757 -9l-110 27l-42 49q-49 -34 -105.5 -55t-116.5 -21q-72 0 -131.5 29t-99 78.5t-57 115.5t-5.5 141q12 74 50 140.5t93.5 116t124 78.5t140.5 29t131.5 -29t99.5 -78.5t57.5 -116t5.5 -140.5q-10 -63 -38.5 -118.5t-70.5 -100.5l33 -40l78 -23zM622 209
q24 32 40.5 68.5t23.5 77.5q9 55 -3 103t-39.5 84t-68.5 56.5t-92 20.5t-98.5 -20.5t-86.5 -56.5t-65.5 -84t-35.5 -103t2.5 -104t38.5 -85.5t68 -57.5t92 -21q39 0 76.5 13.5t71.5 36.5l-77 92l80 69z" />
    <glyph glyph-name="R" unicode="R" horiz-adv-x="656" 
d="M641 0h-131l-175 306h-124l-48 -306h-105l112 709h288q42 0 77 -16t58 -43t33.5 -63.5t3.5 -78.5q-6 -35 -22 -66t-39.5 -56t-53.5 -43.5t-63 -27.5zM409 404q21 0 41 8.5t36.5 22.5t27.5 33.5t14 41.5t-1.5 41t-16 33.5t-29 23t-38.5 8.5h-183l-34 -213z" />
    <glyph glyph-name="S" unicode="S" horiz-adv-x="580" 
d="M560 199q-7 -45 -31.5 -83.5t-63.5 -67.5q-78 -58 -186 -58q-84 0 -146.5 34.5t-85.5 92.5l96 46q14 -36 54.5 -55.5t96.5 -19.5q145 0 163 111q3 21 -2 36t-18 28q-32 30 -120 54q-54 14 -90 31t-59 40q-54 50 -42 135q7 42 29 78.5t57 63.5t78.5 40.5t93.5 13.5
q73 0 130 -28t81 -79l-88 -50q-24 35 -59.5 49.5t-77.5 14.5q-30 0 -57 -10t-46 -24q-15 -12 -24.5 -29.5t-12.5 -37.5q-2 -13 -0.5 -26.5t14.5 -28t39.5 -28t74.5 -26.5q57 -15 96 -32.5t63 -41.5q57 -54 43 -143z" />
    <glyph glyph-name="T" unicode="T" horiz-adv-x="522" 
d="M294 615h-192l15 94h489l-15 -94h-193l-97 -615h-104z" />
    <glyph glyph-name="U" unicode="U" horiz-adv-x="634" 
d="M689 709q-18 -114 -33 -208q-6 -41 -12.5 -81t-12 -74t-10 -59.5t-5.5 -35.5q-8 -54 -36 -101.5t-68.5 -83t-91 -56t-104.5 -20.5t-97.5 20.5t-73 56t-42.5 83t-5 101.5q2 11 6 36.5t9.5 60t12 74.5t12.5 80q15 94 33 207h104q-18 -111 -33 -205q-6 -40 -12.5 -80.5
t-12 -75t-9.5 -60t-6 -37.5q-5 -32 2.5 -61t25 -51.5t44 -35.5t58.5 -13t62 13t54.5 35.5t41 51.5t21.5 61q2 15 6.5 42.5t10 62.5t12 75t12.5 79q15 92 32 199h105v0z" />
    <glyph glyph-name="V" unicode="V" 
d="M308 0l-182 709h113l148 -575l330 575h113l-406 -709h-116z" />
    <glyph glyph-name="W" unicode="W" horiz-adv-x="957" 
d="M936 709h117l-325 -709h-102l-63 441l-4 80l-31 -84l-200 -437h-103l-101 709h115l60 -540l251 540h79l78 -535z" />
    <glyph glyph-name="X" unicode="X" horiz-adv-x="684" 
d="M463 381l193 -381h-125l-145 286l-236 -286h-125l313 381l-166 328h125l119 -234l192 234h125z" />
    <glyph glyph-name="Y" unicode="Y" horiz-adv-x="627" 
d="M311 332l-190 377h125l135 -266l219 266h126l-310 -377l-52 -332h-105z" />
    <glyph glyph-name="Z" unicode="Z" horiz-adv-x="605" 
d="M34 0l13 85l457 530h-340l15 94h466l-14 -85l-450 -527h387l-15 -97h-519z" />
    <glyph glyph-name="bracketleft" unicode="[" horiz-adv-x="269" 
d="M174 809h206l-11 -66h-140l-130 -821h140l-10 -66h-206z" />
    <glyph glyph-name="backslash" unicode="\" horiz-adv-x="500" 
d="M179 738l316 -728l-62 -33l-316 727z" />
    <glyph glyph-name="bracketright" unicode="]" horiz-adv-x="261" 
d="M138 809h206l-151 -953h-205l10 66h139l130 821h-140z" />
    <glyph glyph-name="asciicircum" unicode="^" horiz-adv-x="418" 
d="M84 397l200 312h74l100 -312h-73l-76 236l-152 -236h-73z" />
    <glyph glyph-name="underscore" unicode="_" horiz-adv-x="592" 
d="M46 0h500l-11 -66h-500z" />
    <glyph glyph-name="grave" unicode="`" horiz-adv-x="198" 
d="M252 709l-4 -178h-79l-28 178h111z" />
    <glyph glyph-name="a" unicode="a" horiz-adv-x="553" 
d="M585 479l-75 -479h-82l-7 55q-30 -33 -71.5 -50t-81.5 -17q-50 0 -90.5 19.5t-68 53.5t-39 80t-3.5 98t34.5 98t64.5 80t84.5 53.5t96.5 19.5q40 0 74.5 -15.5t58.5 -48.5l23 53h82zM281 74q29 0 57 13t50.5 35.5t38.5 52.5t21 64q6 34 -0.5 64t-22 52.5t-39.5 35.5
t-53 13t-57 -13t-50.5 -35.5t-38 -52.5t-21.5 -64q-5 -34 1 -64t22 -52.5t39.5 -35.5t52.5 -13z" />
    <glyph glyph-name="b" unicode="b" horiz-adv-x="583" 
d="M136 0h-77l115 730h97l-48 -303q32 30 72 46.5t89 16.5q50 0 89.5 -19.5t65 -53.5t35.5 -80t2 -98t-33 -98t-61 -80t-81.5 -53.5t-95.5 -19.5q-47 0 -82 16.5t-60 45.5zM362 402q-29 0 -56.5 -8.5t-50 -28t-38.5 -50.5t-23 -76q-6 -42 0 -73t22 -51.5t40.5 -30.5
t53.5 -10t57 13t50.5 35.5t38.5 52.5t21 64q6 34 -0.5 64t-22 52t-39.5 34.5t-53 12.5z" />
    <glyph glyph-name="c" unicode="c" horiz-adv-x="508" 
d="M274 -12q-50 0 -90.5 19.5t-68 53.5t-39 80t-3.5 98t34 98t64 80t85 53.5t97 19.5q58 0 103 -26t71 -71l-77 -53q-15 29 -43 45.5t-63 16.5q-30 0 -59 -12.5t-52.5 -34.5t-39.5 -52t-22 -64q-5 -34 1.5 -64t23 -52.5t41.5 -35.5t55 -13q39 0 74.5 21t60.5 56l57 -58
q-40 -48 -95 -76.5t-115 -28.5z" />
    <glyph glyph-name="d" unicode="d" horiz-adv-x="579" 
d="M629 730l-115 -730h-77l-13 50q-33 -29 -72.5 -45.5t-87.5 -16.5q-50 0 -89 19.5t-64.5 53.5t-36 80t-2.5 98t33 98t61.5 80t81.5 53.5t95 19.5t84 -16.5t57 -46.5l48 303h97zM285 74q30 0 57.5 10t50 30.5t38.5 51.5t22 73q7 45 1 76t-22 50.5t-40.5 28t-54.5 8.5
q-29 0 -57 -12.5t-50.5 -34.5t-38 -52t-21.5 -64q-5 -34 1 -64t22 -52.5t39.5 -35.5t52.5 -13z" />
    <glyph glyph-name="e" unicode="e" horiz-adv-x="530" 
d="M281 -12q-52 0 -94.5 19.5t-71 53.5t-41 80t-4.5 98t34 98t63 80t82 53.5t93 19.5q49 0 88 -17t63.5 -53t33 -91.5t-3.5 -132.5h-356q3 -26 14 -48.5t29 -39t42 -25.5t52 -9q38 0 73 14t61 37l51 -60q-41 -35 -94.5 -56t-113.5 -21zM328 402q-23 0 -45 -9t-42 -25
t-36 -38t-26 -48h253q1 24 -4.5 46t-18.5 38.5t-33 26t-48 9.5z" />
    <glyph glyph-name="f" unicode="f" horiz-adv-x="380" 
d="M125 0l62 392h-82l10 67l85 20l10 58q8 51 27 88.5t45 61.5t57 35.5t64 11.5q41 0 80 -17l-11 -71q-35 11 -60 11q-41 0 -68 -25t-35 -80l-12 -73h148l-13 -87h-148l-62 -392h-97z" />
    <glyph glyph-name="g" unicode="g" horiz-adv-x="591" 
d="M277 24q-50 0 -89 18.5t-65 51t-36.5 75t-2.5 90.5q7 48 31.5 90t60 73.5t80.5 49.5t95 18t85 -15t58 -43l27 47h76q-1 -3 -1.5 -7.5t-2.5 -17.5t-5.5 -37t-10 -66t-16.5 -105t-24 -153q-5 -30 -11 -58.5t-16.5 -55t-27 -51t-41.5 -47.5q-47 -42 -100 -56.5t-109 -14.5
q-48 0 -88.5 12t-71.5 32l17 108q15 -29 55 -47t94 -18q36 0 68.5 9.5t59 29t44.5 50.5t25 74l3 19q-14 -11 -33 -21t-41 -17.5t-44.5 -12t-42.5 -4.5zM346 402q-29 0 -56.5 -11t-50 -30.5t-38 -45.5t-19.5 -56q-5 -30 2 -56.5t23.5 -46t40.5 -31t53 -11.5t56 9t49 27
t37.5 45t21.5 64q6 39 -1 66.5t-23.5 44.5t-41 24.5t-53.5 7.5z" />
    <glyph glyph-name="h" unicode="h" horiz-adv-x="542" 
d="M153 0h-97l115 730h97l-47 -295q32 30 63.5 42.5t70.5 12.5q50 0 86.5 -19.5t58.5 -53.5t29.5 -80t-0.5 -98q-8 -53 -15 -96.5t-12 -75.5q-6 -37 -10 -67h-98l12 82q5 35 12 77t13 80q6 34 1 64t-17.5 52t-32.5 34.5t-45 12.5q-21 0 -43.5 -8.5t-43 -27.5t-36.5 -50
t-23 -75z" />
    <glyph glyph-name="i" unicode="i" horiz-adv-x="210" 
d="M157 0h-97l75 479h96zM200 583q-26 0 -41.5 18.5t-10.5 44.5q4 26 25 44t47 18t41 -18t11 -44q-5 -26 -25.5 -44.5t-46.5 -18.5z" />
    <glyph glyph-name="j" unicode="j" horiz-adv-x="238" 
d="M154 479h97l-81 -512q-10 -66 -35.5 -102.5t-59.5 -51.5t-73.5 -12t-77.5 17l29 72q30 -4 50.5 -4t34.5 7t21.5 21t11.5 38zM238 708q26 0 41.5 -18t11.5 -44q-5 -26 -26 -44.5t-47 -18.5t-41.5 18.5t-10.5 44.5q4 26 25 44t47 18z" />
    <glyph glyph-name="k" unicode="k" horiz-adv-x="500" 
d="M158 0h-97l115 730h97l-71 -448l219 197h120l-214 -193l153 -286h-110l-117 220l-71 -64z" />
    <glyph glyph-name="l" unicode="l" horiz-adv-x="212" 
d="M273 730v0l-115 -730h-97l115 730h97z" />
    <glyph glyph-name="m" unicode="m" horiz-adv-x="738" 
d="M153 0h-97l75 479h77l14 -41q21 21 48.5 36.5t63.5 15.5q14 0 31 -3.5t34 -12t31.5 -23t23.5 -37.5q23 31 60.5 53.5t76.5 22.5q26 0 54 -8t49 -30t31 -61t0 -101l-45 -290h-91l46 291q10 62 -12 86.5t-64 24.5q-32 0 -60 -27t-38 -85l-45 -290h-91l46 291
q10 62 -12 86.5t-64 24.5q-30 0 -56.5 -23t-37.5 -72z" />
    <glyph glyph-name="n" unicode="n" horiz-adv-x="534" 
d="M151 0h-97l75 479h77l14 -42q28 23 64 38t76 15q26 0 57.5 -8t57 -30t38.5 -61t3 -101l-45 -290h-92l46 291q5 31 -1.5 52.5t-20 34.5t-32 18.5t-39.5 5.5q-16 0 -37.5 -6t-41.5 -19.5t-36 -34t-20 -50.5z" />
    <glyph glyph-name="o" unicode="o" horiz-adv-x="528" 
d="M264 -12q-50 0 -90.5 19.5t-68 53.5t-39 80t-3.5 98t34.5 98t64.5 80t84.5 53.5t96.5 19.5q49 0 90 -19.5t68 -53.5t38.5 -80t3.5 -98t-34 -98t-64 -80t-85 -53.5t-96 -19.5zM329 403q-29 0 -57 -13t-50.5 -35t-38.5 -52t-22 -64q-5 -34 1.5 -64t22 -52.5t39.5 -35.5
t53 -13t57 13t50.5 35.5t38.5 52.5t21 64q6 34 -0.5 64t-22 52t-39.5 35t-53 13z" />
    <glyph glyph-name="p" unicode="p" horiz-adv-x="564" 
d="M24 -198l107 677h77l12 -50q35 29 74.5 45t86.5 16q50 0 89.5 -19.5t65 -53.5t35.5 -80t2 -98t-33 -98t-61 -80t-81.5 -53.5t-95.5 -19.5q-49 0 -83.5 16.5t-57.5 47.5l-40 -250h-97zM359 402q-29 0 -56.5 -9.5t-50 -30t-38.5 -51t-23 -72.5q-7 -45 -1 -76.5t22.5 -51
t41 -28.5t53.5 -9t57 13t50.5 35.5t38.5 52.5t21 64q6 34 -0.5 64t-22 52t-39.5 34.5t-53 12.5z" />
    <glyph glyph-name="q" unicode="q" horiz-adv-x="568" 
d="M478 -198h-97l40 250q-32 -31 -71.5 -47.5t-89.5 -16.5t-89 19.5t-64.5 53.5t-36 80t-2.5 98t33 98t61.5 80t81.5 53.5t95 19.5q48 0 83 -16t58 -45l28 50h77zM282 74q29 0 56 9t49.5 28.5t38.5 51t23 76.5q7 42 0.5 72.5t-22 51t-40 30t-53.5 9.5q-30 0 -57.5 -12.5
t-50.5 -34.5t-38.5 -52t-21.5 -64q-5 -34 1 -64t22 -52.5t39.5 -35.5t53.5 -13z" />
    <glyph glyph-name="r" unicode="r" horiz-adv-x="378" 
d="M406 390q-6 3 -13 6q-6 2 -13.5 4t-16.5 2q-29 0 -55.5 -9.5t-47 -25.5t-34.5 -37.5t-18 -45.5l-45 -284h-97l75 479h77l12 -53q25 29 60 46.5t84 17.5q33 0 72 -9l-40 -91v0z" />
    <glyph glyph-name="s" unicode="s" horiz-adv-x="430" 
d="M294 100q11 8 19.5 18t10.5 23q3 16 -7 27t-25.5 18.5t-32.5 11.5t-29 7q-32 8 -59 19.5t-46 28t-28 39t-4 53.5q4 29 22 54.5t45 45t60.5 31t68.5 11.5q31 0 58 -9t46.5 -24.5t31.5 -37.5t13 -49l-91 -21q-2 24 -19.5 40t-52.5 16q-12 0 -25.5 -3.5t-25.5 -10.5t-21 -17
t-11 -23q-2 -14 4.5 -24t18 -16.5t24.5 -10.5t24 -7q51 -13 84 -28t51 -33t23 -39.5t1 -48.5q-5 -32 -24 -60t-48 -48.5t-66 -32t-78 -11.5q-63 0 -106 30.5t-53 81.5l88 37q11 -35 34 -47.5t55 -12.5q40 0 70 22z" />
    <glyph glyph-name="t" unicode="t" horiz-adv-x="342" 
d="M316 1q-43 -14 -84 -17t-70.5 11.5t-44 51t-3.5 102.5l39 243h-70l10 67l73 20l21 128h97l-21 -128h130l-13 -87h-130l-41 -258q-8 -48 14.5 -59t84.5 -3l8 -71v0z" />
    <glyph glyph-name="u" unicode="u" horiz-adv-x="535" 
d="M386 43q-29 -23 -64.5 -38t-76.5 -15q-26 0 -57.5 7.5t-57 29.5t-39 60.5t-3.5 100.5l46 291h92l-46 -291q-5 -31 1.5 -52.5t20 -34.5t32.5 -19t40 -6q16 0 37.5 6t41.5 19.5t35.5 34.5t20.5 51l46 292h97l-75 -479h-77z" />
    <glyph glyph-name="v" unicode="v" horiz-adv-x="552" 
d="M339 0h-129l-123 479h105l98 -381l218 381h105z" />
    <glyph glyph-name="w" unicode="w" horiz-adv-x="776" 
d="M175 0l-86 479h103l55 -362l175 362h86l62 -359l167 359h103l-236 -479h-106l-54 293l-1 46l-15 -46l-145 -293h-108z" />
    <glyph glyph-name="x" unicode="x" horiz-adv-x="518" 
d="M502 0h-118l-97 168l-150 -168h-118l222 248l-134 231h118l88 -150l133 150h118l-205 -231z" />
    <glyph glyph-name="y" unicode="y" horiz-adv-x="535" 
d="M221 54l-136 425h108l99 -311l194 311h107l-415 -670h-107z" />
    <glyph glyph-name="z" unicode="z" horiz-adv-x="451" 
d="M170 86h263l-13 -86h-399l10 69l313 323h-240l13 87h374l-11 -73z" />
    <glyph glyph-name="braceleft" unicode="{" horiz-adv-x="309" 
d="M291 498q-4 -23 -9 -45.5t-19 -43.5q-18 -27 -44.5 -46t-55.5 -27q6 0 13 -5.5t12 -7.5q5 -4 10 -7.5t10 -8.5q16 -17 25 -39t10 -45t-3 -48l-31 -195q-2 -14 -0.5 -27t7.5 -23t17.5 -16.5t29.5 -6.5l-9 -58q-27 0 -49.5 10.5t-37.5 28t-21.5 41.5t-2.5 51l34 214
q0 5 -1 22t-12 35.5t-37 34.5t-75 19l10 66q51 3 81.5 16.5t47.5 29t23 29t6 15.5l34 220q4 27 18.5 51t35 41.5t46 28t52.5 10.5l-9 -58q-34 0 -53 -23t-24 -50z" />
    <glyph glyph-name="bar" unicode="|" horiz-adv-x="156" 
d="M171 795h66l-149 -946h-66z" />
    <glyph glyph-name="braceright" unicode="}" horiz-adv-x="308" 
d="M120 164q4 23 9 45t19 43q7 11 19.5 23.5t26.5 23.5t28.5 18.5t26.5 7.5q-5 0 -13 5.5t-12 7.5l-10 8t-10 9q-16 16 -25 39q-10 23 -11 49t4 53q4 23 8 46.5t8 46.5l14 92q2 13 1 26.5t-7 23.5t-17.5 16.5t-29.5 6.5l9 58q27 0 49 -10.5t37 -28t21.5 -41.5t2.5 -51
l-34 -214q0 -5 1 -21.5t12.5 -35.5t37.5 -34.5t75 -18.5l-11 -67q-51 -2 -81.5 -15.5t-47 -29.5t-22.5 -29.5t-6 -15.5l-35 -220q-4 -27 -18 -51t-34.5 -41.5t-46 -28t-52.5 -10.5l9 58q34 0 53 23t23 50z" />
    <glyph glyph-name="asciitilde" unicode="~" horiz-adv-x="577" 
d="M429 290q22 0 45 8.5t42.5 18.5t32.5 19l13 9l18 -19q4 -5 10 -11.5t5 -7.5q-6 -5 -23 -19t-41 -28t-53 -25t-59 -11q-35 0 -56.5 13t-38.5 27t-34 24t-46 10q-32 0 -64.5 -16.5t-54.5 -45.5l-52 33q1 1 14 16.5t36 32.5t56 31.5t75 14.5q45 0 71.5 -15.5t46.5 -31.5
l3 -3q14 -11 25.5 -17.5t28.5 -6.5z" />
    <glyph glyph-name="exclamdown" unicode="&#xa1;" horiz-adv-x="281" 
d="M234 316l-74 -545h-113l99 545h88zM217 490q26 0 42 -18t11 -44q-4 -26 -25.5 -44.5t-47.5 -18.5t-41 18.5t-11 44.5q5 26 25.5 44t46.5 18z" />
    <glyph glyph-name="cent" unicode="&#xa2;" horiz-adv-x="452" 
d="M350 180q34 22 59 54l54 -55q-39 -46 -91 -73q-37 -19 -77 -25l-12 -75h-74l12 76q-23 4 -46 15q-39 19 -64 51q-27 35 -37 76q-10 45 -3 94t33 93q12 23 27.5 41.5t33.5 35.5q18 16 38 29t42 22q25 10 51 15l16 99h74l-16 -98q37 -6 66 -22q44 -27 67 -68l-73 -51
q-15 28 -41 45q-14 9 -32 13l-49 -308q11 2 21.5 6.5t20.5 9.5zM227 173q4 -3 8 -4l47 298q-6 -2 -9 -4q-25 -11 -51 -34q-21 -20 -37 -50q-8 -14 -13.5 -29t-7.5 -32q-3 -17 -2.5 -32t3.5 -29q6 -27 22 -50q16 -22 40 -34z" />
    <glyph glyph-name="sterling" unicode="&#xa3;" horiz-adv-x="536" 
d="M357 93q18 0 39 6.5t40 15t34.5 17.5t24.5 15l45 -72q-2 -1 -20 -13t-46 -25.5t-62.5 -25t-68.5 -11.5h-276l10 48q0 2 1 4t2 6q0 4 1 8.5t3 9.5l14 62l32 138h-67l15 92h72q3 17 7 35t7 34.5t5.5 29.5t3.5 21q11 69 39 112.5t62 67.5t69 33t60 9q51 0 84 -20t53.5 -48.5
t29 -60t9.5 -55.5l-94 -17q0 4 -2.5 21.5t-12.5 37t-29 35t-53 15.5q-20 0 -39.5 -7.5t-36.5 -23.5t-30 -40.5t-18 -58.5q-3 -16 -9.5 -50.5t-14.5 -69.5h195l-15 -92h-201l-16 -74l-11 -52q-3 -16 -6 -31.5t-5 -25.5h176v0z" />
    <glyph glyph-name="yen" unicode="&#xa5;" horiz-adv-x="637" 
d="M564 201h-162l-31 -201h-105l31 201h-159l7 45h159l14 85h-159l7 46h129l-167 332h125l135 -266l219 266h126l-273 -332h132l-7 -46h-162l-14 -85h162z" />
    <glyph glyph-name="section" unicode="&#xa7;" horiz-adv-x="519" 
d="M486 -14q-6 -42 -28.5 -77.5t-58.5 -61.5q-70 -53 -170 -53q-38 0 -72.5 8.5t-62 23.5t-48 36.5t-30.5 47.5l88 42q13 -32 50.5 -50t88.5 -18q134 0 149 102q6 36 -19 58q-27 26 -110 50q-49 13 -82 28.5t-53 35.5q-52 49 -40 125q6 38 27 71t53 58q12 9 27 18
q-7 4 -12 8.5t-10 9.5q-51 47 -39 124q6 38 27 71.5t53 57.5q32 26 71.5 38t84.5 12q67 0 119.5 -25.5t74.5 -72.5l-81 -46q-22 32 -55 45.5t-71 13.5q-27 0 -51.5 -9t-41.5 -22q-14 -11 -23 -27.5t-12 -34.5q-2 -12 0 -24.5t13.5 -25t35.5 -25.5t68 -25q54 -14 89 -29.5
t58 -37.5q53 -50 39 -131q-7 -42 -29 -77t-58 -61l-12 -9l14 -12q53 -50 39 -130zM419 333q-23 23 -80 41q-7 1 -14 1.5t-14 0.5q-27 0 -51.5 -8.5t-41.5 -22.5q-14 -11 -23 -27.5t-12 -34.5q-2 -11 0 -23.5t14 -25.5t36 -25.5t68 -24.5l29 -8q94 15 108 99q3 20 -1.5 33.5
t-17.5 24.5z" />
    <glyph glyph-name="dieresis" unicode="&#xa8;" horiz-adv-x="437" 
d="M220 742q-26 0 -41.5 18.5t-10.5 44.5q4 26 25 44t47 18t41 -18t11 -44q-5 -26 -25.5 -44.5t-46.5 -18.5zM451 742q-26 0 -41.5 18.5t-10.5 44.5q4 26 25 44t47 18t41 -18t11 -44q-5 -26 -25.5 -44.5t-46.5 -18.5z" />
    <glyph glyph-name="copyright" unicode="&#xa9;" horiz-adv-x="817" 
d="M510 208q32 16 52 40l35 -38q-16 -15 -34 -28t-38 -23q-42 -20 -83 -20q-39 0 -73 16q-32 17 -53 44q-24 28 -32 63q-9 36 -3 76q6 41 27 77q21 37 52 63q32 29 67 43q36 16 78 16q35 0 65 -14q32 -15 53 -38l-41 -43q-16 19 -37 31t-49 12q-27 0 -54 -12q-14 -5 -25 -13
t-22 -18q-11 -11 -20 -22t-17 -25q-14 -26 -19 -57t1 -57q8 -26 22 -46q8 -10 17 -18t21 -13q22 -12 50 -12q30 0 60 16zM516 677q70 0 127 -26.5t96 -72.5t55.5 -108t5.5 -132t-47 -131.5t-89.5 -107.5t-119 -72.5t-135.5 -26.5t-127.5 26.5t-96.5 72.5t-56 107.5t-6 131.5
t47.5 132t90 108t119.5 72.5t136 26.5zM418 59q58 0 112 22t98 60t74 88.5t39 108.5t-5 109t-46 89t-79 60t-105 22t-112.5 -22t-98.5 -60t-74 -89t-39 -109t5 -108.5t46 -88.5t79.5 -60t105.5 -22z" />
    <glyph glyph-name="guillemotleft" unicode="&#xab;" horiz-adv-x="460" 
d="M129 300l138 -143l-17 -110l-194 209l14 89l262 219l-17 -109zM352 300l110 -102l-18 -112l-168 168l14 91l219 173l-18 -109z" />
    <glyph glyph-name="logicalnot" unicode="&#xac;" horiz-adv-x="515" 
d="M71 414h463l-42 -263h-66l32 197h-397z" />
    <glyph glyph-name="registered" unicode="&#xae;" horiz-adv-x="816" 
d="M558 332q-15 -9 -33 -16l90 -153l-61 -18l-94 167h-68l-27 -167h-57l62 387h157q23 0 41 -9q19 -9 33 -24q12 -15 18 -34q2 -11 3 -21.5t-1 -21.5q-3 -20 -12 -36q-4 -8 -10 -16t-11 -15q-15 -15 -30 -23zM500 365q11 0 23 5q10 4 20 12q4 5 8 9t6 9q7 11 8 23
q3 11 -1 22q-1 5 -3.5 10l-4.5 9q-3 4 -7 7t-9 6q-5 2 -10 3t-11 1h-100l-19 -116h100zM515 677q70 0 127 -26.5t96 -72.5t55.5 -108t5.5 -132t-47 -131.5t-89.5 -107.5t-119 -72.5t-135.5 -26.5t-127.5 26.5t-96 72.5t-55.5 107.5t-6 131.5t47.5 132t89.5 108t119 72.5
t136 26.5zM417 59q58 0 112 22t98 60t74 88.5t39 108.5t-5 109t-46 89t-79 60t-105 22t-112.5 -22t-98.5 -60t-74 -89t-39 -109t5 -108.5t46 -88.5t79.5 -60t105.5 -22z" />
    <glyph glyph-name="degree" unicode="&#xb0;" horiz-adv-x="368" 
d="M288 660q31 0 57 -12t43.5 -32.5t25 -48.5t2.5 -59q-5 -32 -21 -59.5t-40 -48.5t-54 -33t-61 -12q-32 0 -57.5 12t-43 33t-25 48.5t-2.5 59.5q5 31 21 59t40 48.5t53.5 32.5t61.5 12zM250 421q18 0 35 7t30.5 18.5t23 27.5t12.5 34q5 35 -16 60.5t-57 25.5q-18 0 -35 -7
t-30.5 -18.5t-22.5 -27t-12 -33.5q-6 -36 15 -61.5t57 -25.5z" />
    <glyph glyph-name="plusminus" unicode="&#xb1;" horiz-adv-x="511" 
d="M351 347h200l-10 -66h-200l-27 -169h-78l27 169h-205l10 66h205l27 169h78zM507 66l-10 -66h-483l10 66h483z" />
    <glyph glyph-name="acute" unicode="&#xb4;" horiz-adv-x="196" 
d="M288 709l-84 -178h-79l52 178h111z" />
    <glyph glyph-name="paragraph" unicode="&#xb6;" horiz-adv-x="587" 
d="M669 709l-12 -74h-89l-125 -790h-74l125 790h-105l-125 -790h-74l76 478q-40 0 -73 15t-55 41.5t-31.5 61.5t-3.5 75t27 75t51.5 61t68 41.5t77.5 15.5h342z" />
    <glyph glyph-name="periodcentered" unicode="&#xb7;" horiz-adv-x="186" 
d="M243 478l-84 -178h-79l52 178h111z" />
    <glyph glyph-name="cedilla" unicode="&#xb8;" horiz-adv-x="319" 
d="M101 -79q-17 0 -35 -9l-25 28l107 125h49l-90 -112q48 9 68.5 -9t15.5 -48q-6 -38 -37 -55.5t-69 -17.5q-11 0 -24.5 1t-23.5 3q4 8 7.5 17t5.5 17q5 -1 11 -1.5t14 -0.5q21 0 38 7.5t19 24.5q2 14 -6 22t-25 8z" />
    <glyph glyph-name="guillemotright" unicode="&#xbb;" horiz-adv-x="461" 
d="M290 455l17 109l192 -219l-14 -89l-260 -209l17 110l184 143zM98 409l18 109l163 -173l-14 -91l-222 -168l18 112l142 102z" />
    <glyph glyph-name="questiondown" unicode="&#xbf;" horiz-adv-x="463" 
d="M370 365q-26 0 -41 18.5t-11 44.5q5 26 25.5 44t46.5 18t41.5 -18t10.5 -44q-4 -26 -25 -44.5t-47 -18.5zM264 -144q35 0 64 6.5t58 28.5l1 -93q-32 -17 -67 -26.5t-71 -9.5q-51 0 -92.5 18t-70 48.5t-41 71.5t-5.5 87q18 113 142 181q20 11 41 19t39 20t31.5 30t18.5 48
l5 31h96l-6 -36q-8 -47 -31.5 -78.5t-52.5 -52.5t-58.5 -34t-48.5 -21q-33 -14 -53 -45t-25 -64q-4 -27 3.5 -50.5t25 -41t42.5 -27.5t55 -10z" />
    <glyph glyph-name="Agrave" unicode="&#xc0;" 
d="M125 0h-114l407 709h115l183 -709h-113l-58 222h-293zM307 318h213l-66 256zM526 934l-4 -178h-79l-28 178h111z" />
    <glyph glyph-name="Aacute" unicode="&#xc1;" 
d="M125 0h-114l407 709h115l183 -709h-113l-58 222h-293zM307 318h213l-66 256zM610 934l-84 -178h-79l52 178h111z" />
    <glyph glyph-name="Acircumflex" unicode="&#xc2;" 
d="M125 0h-114l407 709h115l183 -709h-113l-58 222h-293zM307 318h213l-66 256zM495 844l-74 -88h-102l136 125h91l101 -125h-101z" />
    <glyph glyph-name="Atilde" unicode="&#xc3;" 
d="M125 0h-114l407 709h115l183 -709h-113l-58 222h-293zM307 318h213l-66 256zM568 829q20 3 41 18t37 30q8 -10 16.5 -20t15.5 -21q-9 -11 -21 -23.5t-26.5 -24t-30.5 -19.5t-34 -11q-5 -1 -9 -1.5t-8 -0.5q-22 0 -38.5 10t-31.5 23q-13 10 -26 17t-31 7h-7.5t-8.5 -1
q-20 -3 -38 -15.5t-32 -32.5l-46 34q16 25 45 51t74 34q5 1 9.5 1.5t9.5 0.5q26 0 44.5 -10t34.5 -21l3 -2l5 -4l3 -2q11 -8 20.5 -13t20.5 -5q6 0 9 1z" />
    <glyph glyph-name="Adieresis" unicode="&#xc4;" 
d="M125 0h-114l407 709h115l183 -709h-113l-58 222h-293zM307 318h213l-66 256zM369 757q-26 0 -41.5 18.5t-10.5 44.5q4 26 25 44t47 18t41 -18t11 -44q-5 -26 -25.5 -44.5t-46.5 -18.5zM600 757q-26 0 -41.5 18.5t-10.5 44.5q4 26 25 44t47 18t41 -18t11 -44
q-5 -26 -25.5 -44.5t-46.5 -18.5z" />
    <glyph glyph-name="Aring" unicode="&#xc5;" 
d="M500 860q22 0 40 -8.5t30.5 -23t17.5 -34t2 -41.5q-4 -24 -17 -44.5t-32 -35.5l175 -673h-113l-58 222h-293l-127 -222h-114l386 674q-29 30 -21 79q3 22 14.5 41.5t28.5 34t37.5 23t43.5 8.5zM307 318h213l-66 256zM476 709q19 0 33 13t17 31q3 19 -7 31t-29 12
t-33.5 -12t-17.5 -31q-3 -18 7.5 -31t29.5 -13z" />
    <glyph glyph-name="AE" unicode="&#xc6;" horiz-adv-x="900" 
d="M114 0h-114l409 709h543l-15 -94h-329l-31 -193h293l-15 -97h-293l-36 -228h329l-15 -97h-433l35 222h-201zM457 318l47 297h-38l-170 -297h161z" />
    <glyph glyph-name="Ccedilla" unicode="&#xc7;" horiz-adv-x="663" 
d="M346 -79q-17 0 -35 -9l-25 28l44 52q-65 7 -117.5 38t-87 80t-48.5 111.5t-3 132.5q12 75 49.5 141t92.5 115.5t123.5 78.5t140.5 29q67 0 122.5 -26.5t95.5 -69.5l-74 -79q-28 35 -68.5 57.5t-90.5 22.5q-51 0 -99 -21.5t-87 -58.5t-65.5 -85.5t-35.5 -103.5t2.5 -103.5
t39 -85t68.5 -57.5t92 -21q58 0 112 28t95 74l62 -70q-54 -54 -123 -89t-144 -39l-30 -38q48 9 68.5 -9t15.5 -48q-6 -38 -37 -55.5t-69 -17.5q-11 0 -24.5 1t-23.5 3q4 8 7.5 17t5.5 17q5 -1 11 -1.5t14 -0.5q21 0 38 7.5t19 24.5q2 14 -6 22t-25 8z" />
    <glyph glyph-name="Egrave" unicode="&#xc8;" horiz-adv-x="549" 
d="M601 709l-15 -94h-329l-31 -193h293l-15 -97v0h-293l-36 -228h329l-15 -97v0h-329h-52h-52l112 709h433zM465 934l-4 -178h-79l-28 178h111z" />
    <glyph glyph-name="Eacute" unicode="&#xc9;" horiz-adv-x="549" 
d="M601 709l-15 -94h-329l-31 -193h293l-15 -97v0h-293l-36 -228h329l-15 -97v0h-329h-52h-52l112 709h433zM489 934l-84 -178h-79l52 178h111z" />
    <glyph glyph-name="Ecircumflex" unicode="&#xca;" horiz-adv-x="549" 
d="M601 709l-15 -94h-329l-31 -193h293l-15 -97v0h-293l-36 -228h329l-15 -97v0h-329h-52h-52l112 709h433zM405 844l-74 -88h-102l136 125h91l101 -125h-101z" />
    <glyph glyph-name="Edieresis" unicode="&#xcb;" horiz-adv-x="549" 
d="M601 709l-15 -94h-329l-31 -193h293l-15 -97v0h-293l-36 -228h329l-15 -97v0h-329h-52h-52l112 709h433zM278 756q-26 0 -41.5 18.5t-10.5 44.5q4 26 25 44t47 18t41 -18t11 -44q-5 -26 -25.5 -44.5t-46.5 -18.5zM509 756q-26 0 -41.5 18.5t-10.5 44.5q4 26 25 44t47 18
t41 -18t11 -44q-5 -26 -25.5 -44.5t-46.5 -18.5z" />
    <glyph glyph-name="Igrave" unicode="&#xcc;" horiz-adv-x="393" 
d="M346 623l-85 -537h52l-13 -86h-209l13 86h53l85 537h-53l14 86h209l-14 -86h-52zM358 934l-4 -178h-79l-28 178h111z" />
    <glyph glyph-name="Iacute" unicode="&#xcd;" horiz-adv-x="393" 
d="M346 623l-85 -537h52l-13 -86h-209l13 86h53l85 537h-53l14 86h209l-14 -86h-52zM446 934l-84 -178h-79l52 178h111z" />
    <glyph glyph-name="Icircumflex" unicode="&#xce;" horiz-adv-x="393" 
d="M346 623l-85 -537h52l-13 -86h-209l13 86h53l85 537h-53l14 86h209l-14 -86h-52zM327 844l-74 -88h-102l136 125h91l101 -125h-101z" />
    <glyph glyph-name="Idieresis" unicode="&#xcf;" horiz-adv-x="393" 
d="M346 623l-85 -537h52l-13 -86h-209l13 86h53l85 537h-53l14 86h209l-14 -86h-52zM204 756q-26 0 -41.5 18.5t-10.5 44.5q4 26 25 44t47 18t41 -18t11 -44q-5 -26 -25.5 -44.5t-46.5 -18.5zM435 756q-26 0 -41.5 18.5t-10.5 44.5q4 26 25 44t47 18t41 -18t11 -44
q-5 -26 -25.5 -44.5t-46.5 -18.5z" />
    <glyph glyph-name="Ntilde" unicode="&#xd1;" horiz-adv-x="725" 
d="M779 709l-112 -709h-106l-310 544l-86 -544h-109l112 709h110l309 -547l87 547h105zM574 829q20 3 41 18t37 30q8 -10 16.5 -20t15.5 -21q-9 -11 -21 -23.5t-26.5 -24t-30.5 -19.5t-34 -11q-5 -1 -9 -1.5t-8 -0.5q-22 0 -38.5 10t-31.5 23q-13 10 -26 17t-31 7h-7.5
t-8.5 -1q-20 -3 -38 -15.5t-32 -32.5l-46 34q16 25 45 51t74 34q5 1 9.5 1.5t9.5 0.5q26 0 44.5 -10t34.5 -21l3 -2l5 -4l3 -2q11 -8 20.5 -13t20.5 -5q6 0 9 1z" />
    <glyph glyph-name="Ograve" unicode="&#xd2;" horiz-adv-x="767" 
d="M498 719q72 0 131.5 -29t99.5 -78.5t57.5 -116t5.5 -140.5q-12 -75 -50.5 -141t-94.5 -115.5t-124.5 -78.5t-140.5 -29t-131.5 29t-99 78.5t-56.5 115.5t-5 141q12 74 50 140.5t93.5 116t124 78.5t140.5 29zM399 90q51 0 98.5 20.5t86 56.5t65.5 84.5t36 103.5t-2.5 103
t-39 84t-68.5 56.5t-92 20.5t-99 -20.5t-87 -56.5t-65.5 -84t-35.5 -103t2.5 -103.5t39.5 -84.5t69 -56.5t92 -20.5zM574 934l-4 -178h-79l-28 178h111z" />
    <glyph glyph-name="Oacute" unicode="&#xd3;" horiz-adv-x="767" 
d="M498 719q72 0 131.5 -29t99.5 -78.5t57.5 -116t5.5 -140.5q-12 -75 -50.5 -141t-94.5 -115.5t-124.5 -78.5t-140.5 -29t-131.5 29t-99 78.5t-56.5 115.5t-5 141q12 74 50 140.5t93.5 116t124 78.5t140.5 29zM399 90q51 0 98.5 20.5t86 56.5t65.5 84.5t36 103.5t-2.5 103
t-39 84t-68.5 56.5t-92 20.5t-99 -20.5t-87 -56.5t-65.5 -84t-35.5 -103t2.5 -103.5t39.5 -84.5t69 -56.5t92 -20.5zM598 934l-84 -178h-79l52 178h111z" />
    <glyph glyph-name="Ocircumflex" unicode="&#xd4;" horiz-adv-x="767" 
d="M498 719q72 0 131.5 -29t99.5 -78.5t57.5 -116t5.5 -140.5q-12 -75 -50.5 -141t-94.5 -115.5t-124.5 -78.5t-140.5 -29t-131.5 29t-99 78.5t-56.5 115.5t-5 141q12 74 50 140.5t93.5 116t124 78.5t140.5 29zM399 90q51 0 98.5 20.5t86 56.5t65.5 84.5t36 103.5t-2.5 103
t-39 84t-68.5 56.5t-92 20.5t-99 -20.5t-87 -56.5t-65.5 -84t-35.5 -103t2.5 -103.5t39.5 -84.5t69 -56.5t92 -20.5zM514 844l-74 -88h-102l136 125h91l101 -125h-101z" />
    <glyph glyph-name="Otilde" unicode="&#xd5;" horiz-adv-x="767" 
d="M498 719q72 0 131.5 -29t99.5 -78.5t57.5 -116t5.5 -140.5q-12 -75 -50.5 -141t-94.5 -115.5t-124.5 -78.5t-140.5 -29t-131.5 29t-99 78.5t-56.5 115.5t-5 141q12 74 50 140.5t93.5 116t124 78.5t140.5 29zM399 90q51 0 98.5 20.5t86 56.5t65.5 84.5t36 103.5t-2.5 103
t-39 84t-68.5 56.5t-92 20.5t-99 -20.5t-87 -56.5t-65.5 -84t-35.5 -103t2.5 -103.5t39.5 -84.5t69 -56.5t92 -20.5zM585 829q20 3 41 18t37 30q8 -10 16.5 -20t15.5 -21q-9 -11 -21 -23.5t-26.5 -24t-30.5 -19.5t-34 -11q-5 -1 -9 -1.5t-8 -0.5q-22 0 -38.5 10t-31.5 23
q-13 10 -26 17t-31 7h-7.5t-8.5 -1q-20 -3 -38 -15.5t-32 -32.5l-46 34q16 25 45 51t74 34q5 1 9.5 1.5t9.5 0.5q26 0 44.5 -10t34.5 -21l3 -2l5 -4l3 -2q11 -8 20.5 -13t20.5 -5q6 0 9 1z" />
    <glyph glyph-name="Odieresis" unicode="&#xd6;" horiz-adv-x="767" 
d="M496 719q72 0 131.5 -29t99.5 -78.5t57.5 -116t5.5 -140.5q-12 -75 -50.5 -141t-94.5 -115.5t-124.5 -78.5t-140.5 -29t-131.5 29t-99 78.5t-56.5 115.5t-5 141q12 74 50 140.5t93.5 116t124 78.5t140.5 29zM397 90q51 0 98.5 20.5t86 56.5t65.5 84.5t36 103.5t-2.5 103
t-39 84t-68.5 56.5t-92 20.5t-99 -20.5t-87 -56.5t-65.5 -84t-35.5 -103t2.5 -103.5t39.5 -84.5t69 -56.5t92 -20.5zM387 756q-26 0 -41.5 18.5t-10.5 44.5q4 26 25 44t47 18t41 -18t11 -44q-5 -26 -25.5 -44.5t-46.5 -18.5zM618 756q-26 0 -41.5 18.5t-10.5 44.5
q4 26 25 44t47 18t41 -18t11 -44q-5 -26 -25.5 -44.5t-46.5 -18.5z" />
    <glyph glyph-name="Oslash" unicode="&#xd8;" horiz-adv-x="760" 
d="M177 66q-55 51 -80.5 126t-11.5 163q12 74 50 140.5t93.5 116t124 78.5t140.5 29q41 0 78 -10t70 -27l40 54l52 -34l-42 -56q28 -25 49 -57t34 -69.5t16.5 -79t-3.5 -85.5q-12 -75 -50.5 -141t-94.5 -115.5t-124.5 -78.5t-140.5 -29q-42 0 -80 10t-70 28l-40 -54l-52 34z
M394 90q51 0 98.5 20.5t86 56.5t65.5 84.5t36 103.5q10 61 -5.5 113.5t-50.5 88.5l-332 -442q45 -25 102 -25zM191 355q-10 -61 4.5 -113t48.5 -88l331 441q-22 11 -46 17.5t-51 6.5q-51 0 -99 -20.5t-87 -56.5t-65.5 -84t-35.5 -103z" />
    <glyph glyph-name="Ugrave" unicode="&#xd9;" horiz-adv-x="634" 
d="M689 709q-18 -114 -33 -208q-6 -41 -12.5 -81t-12 -74t-10 -59.5t-5.5 -35.5q-8 -54 -36 -101.5t-68.5 -83t-91 -56t-104.5 -20.5t-97.5 20.5t-73 56t-42.5 83t-5 101.5q2 11 6 36.5t9.5 60t12 74.5t12.5 80q15 94 33 207h104q-18 -111 -33 -205q-6 -40 -12.5 -80.5
t-12 -75t-9.5 -60t-6 -37.5q-5 -32 2.5 -61t25 -51.5t44 -35.5t58.5 -13t62 13t54.5 35.5t41 51.5t21.5 61q2 15 6.5 42.5t10 62.5t12 75t12.5 79q15 92 32 199h105v0zM507 934l-4 -178h-79l-28 178h111z" />
    <glyph glyph-name="Uacute" unicode="&#xda;" horiz-adv-x="634" 
d="M689 709q-18 -114 -33 -208q-6 -41 -12.5 -81t-12 -74t-10 -59.5t-5.5 -35.5q-8 -54 -36 -101.5t-68.5 -83t-91 -56t-104.5 -20.5t-97.5 20.5t-73 56t-42.5 83t-5 101.5q2 11 6 36.5t9.5 60t12 74.5t12.5 80q15 94 33 207h104q-18 -111 -33 -205q-6 -40 -12.5 -80.5
t-12 -75t-9.5 -60t-6 -37.5q-5 -32 2.5 -61t25 -51.5t44 -35.5t58.5 -13t62 13t54.5 35.5t41 51.5t21.5 61q2 15 6.5 42.5t10 62.5t12 75t12.5 79q15 92 32 199h105v0zM531 934l-84 -178h-79l52 178h111z" />
    <glyph glyph-name="Ucircumflex" unicode="&#xdb;" horiz-adv-x="634" 
d="M688 709q-18 -114 -33 -208q-6 -41 -12.5 -81t-12 -74t-10 -59.5t-5.5 -35.5q-8 -54 -36 -101.5t-68.5 -83t-91 -56t-104.5 -20.5t-97.5 20.5t-73 56t-42.5 83t-5 101.5q2 11 6 36.5t9.5 60t12 74.5t12.5 80q15 94 33 207h104q-18 -111 -33 -205q-6 -40 -12.5 -80.5
t-12 -75t-9.5 -60t-6 -37.5q-5 -32 2.5 -61t25 -51.5t44 -35.5t58.5 -13t62 13t54.5 35.5t41 51.5t21.5 61q2 15 6.5 42.5t10 62.5t12 75t12.5 79q15 92 32 199h105v0zM448 844l-74 -88h-102l136 125h91l101 -125h-101z" />
    <glyph glyph-name="Udieresis" unicode="&#xdc;" horiz-adv-x="638" 
d="M690 709q-18 -114 -33 -208q-6 -41 -12.5 -81t-12 -74t-10 -59.5t-5.5 -35.5q-8 -54 -36 -101.5t-68.5 -83t-91 -56t-104.5 -20.5t-97.5 20.5t-73 56t-42.5 83t-5 101.5q2 11 6 36.5t9.5 60t12 74.5t12.5 80q15 94 33 207h104q-18 -111 -33 -205q-6 -40 -12.5 -80.5
t-12 -75t-9.5 -60t-6 -37.5q-5 -32 2.5 -61t25 -51.5t44 -35.5t58.5 -13t62 13t54.5 35.5t41 51.5t21.5 61q2 15 6.5 42.5t10 62.5t12 75t12.5 79q15 92 32 199h105v0zM323 756q-26 0 -41.5 18.5t-10.5 44.5q4 26 25 44t47 18t41 -18t11 -44q-5 -26 -25.5 -44.5t-46.5 -18.5
zM554 756q-26 0 -41.5 18.5t-10.5 44.5q4 26 25 44t47 18t41 -18t11 -44q-5 -26 -25.5 -44.5t-46.5 -18.5z" />
    <glyph glyph-name="germandbls" unicode="&#xdf;" horiz-adv-x="527" 
d="M221 86h68q21 0 40 11.5t34 29.5t25 41t14 47t1.5 45t-13.5 36.5t-32 24.5t-54 9l15 97q18 0 34 8t28.5 22t20.5 32.5t11 38.5q7 40 -10.5 68.5t-60.5 28.5q-18 0 -35.5 -7.5t-31.5 -21t-24 -31t-13 -37.5q-1 -5 -6 -37l-12.5 -80t-17 -108t-19.5 -121q-23 -144 -52 -325
h-105q29 181 52 327q10 62 19.5 123t17 110.5t13 82.5t6.5 41q6 36 25 68.5t46.5 56.5t62 38t71.5 14h24q36 0 66.5 -14t50.5 -38t29 -56.5t3 -68.5q-6 -42 -19 -67.5t-26 -41.5t-23.5 -25.5t-11.5 -17.5t14 -17.5t31.5 -28.5t27.5 -52t2 -89q-6 -41 -28 -79.5t-53.5 -68
t-71 -47t-80.5 -17.5h-68z" />
    <glyph glyph-name="agrave" unicode="&#xe0;" horiz-adv-x="553" 
d="M585 479l-75 -479h-82l-7 55q-30 -33 -71.5 -50t-81.5 -17q-50 0 -90.5 19.5t-68 53.5t-39 80t-3.5 98t34.5 98t64.5 80t84.5 53.5t96.5 19.5q40 0 74.5 -15.5t58.5 -48.5l23 53h82zM281 74q29 0 57 13t50.5 35.5t38.5 52.5t21 64q6 34 -0.5 64t-22 52.5t-39.5 35.5
t-53 13t-57 -13t-50.5 -35.5t-38 -52.5t-21.5 -64q-5 -34 1 -64t22 -52.5t39.5 -35.5t52.5 -13zM413 709l-4 -178h-79l-28 178h111z" />
    <glyph glyph-name="aacute" unicode="&#xe1;" horiz-adv-x="553" 
d="M585 479l-75 -479h-82l-7 55q-30 -33 -71.5 -50t-81.5 -17q-50 0 -90.5 19.5t-68 53.5t-39 80t-3.5 98t34.5 98t64.5 80t84.5 53.5t96.5 19.5q40 0 74.5 -15.5t58.5 -48.5l23 53h82zM281 74q29 0 57 13t50.5 35.5t38.5 52.5t21 64q6 34 -0.5 64t-22 52.5t-39.5 35.5
t-53 13t-57 -13t-50.5 -35.5t-38 -52.5t-21.5 -64q-5 -34 1 -64t22 -52.5t39.5 -35.5t52.5 -13zM477 709l-84 -178h-79l52 178h111z" />
    <glyph glyph-name="acircumflex" unicode="&#xe2;" horiz-adv-x="553" 
d="M585 479l-75 -479h-82l-7 55q-30 -33 -71.5 -50t-81.5 -17q-50 0 -90.5 19.5t-68 53.5t-39 80t-3.5 98t34.5 98t64.5 80t84.5 53.5t96.5 19.5q40 0 74.5 -15.5t58.5 -48.5l23 53h82zM281 74q29 0 57 13t50.5 35.5t38.5 52.5t21 64q6 34 -0.5 64t-22 52.5t-39.5 35.5
t-53 13t-57 -13t-50.5 -35.5t-38 -52.5t-21.5 -64q-5 -34 1 -64t22 -52.5t39.5 -35.5t52.5 -13zM393 672l-74 -88h-102l136 125h91l101 -125h-101z" />
    <glyph glyph-name="atilde" unicode="&#xe3;" horiz-adv-x="553" 
d="M585 479l-75 -479h-82l-7 55q-30 -33 -71.5 -50t-81.5 -17q-50 0 -90.5 19.5t-68 53.5t-39 80t-3.5 98t34.5 98t64.5 80t84.5 53.5t96.5 19.5q40 0 74.5 -15.5t58.5 -48.5l23 53h82zM281 74q29 0 57 13t50.5 35.5t38.5 52.5t21 64q6 34 -0.5 64t-22 52.5t-39.5 35.5
t-53 13t-57 -13t-50.5 -35.5t-38 -52.5t-21.5 -64q-5 -34 1 -64t22 -52.5t39.5 -35.5t52.5 -13zM472 653q20 3 41 18t37 30q8 -10 16.5 -20t15.5 -21q-9 -11 -21 -23.5t-26.5 -24t-30.5 -19.5t-34 -11q-5 -1 -9 -1.5t-8 -0.5q-22 0 -38.5 10t-31.5 23q-13 10 -26 17t-31 7
h-7.5t-8.5 -1q-20 -3 -38 -15.5t-32 -32.5l-46 34q16 25 45 51t74 34q5 1 9.5 1.5t9.5 0.5q26 0 44.5 -10t34.5 -21l3 -2l5 -4l3 -2q11 -8 20.5 -13t20.5 -5q6 0 9 1z" />
    <glyph glyph-name="adieresis" unicode="&#xe4;" horiz-adv-x="553" 
d="M585 479l-75 -479h-82l-7 55q-30 -33 -71.5 -50t-81.5 -17q-50 0 -90.5 19.5t-68 53.5t-39 80t-3.5 98t34.5 98t64.5 80t84.5 53.5t96.5 19.5q40 0 74.5 -15.5t58.5 -48.5l23 53h82zM281 74q29 0 57 13t50.5 35.5t38.5 52.5t21 64q6 34 -0.5 64t-22 52.5t-39.5 35.5
t-53 13t-57 -13t-50.5 -35.5t-38 -52.5t-21.5 -64q-5 -34 1 -64t22 -52.5t39.5 -35.5t52.5 -13zM257 584q-26 0 -41.5 18.5t-10.5 44.5q4 26 25 44t47 18t41 -18t11 -44q-5 -26 -25.5 -44.5t-46.5 -18.5zM488 584q-26 0 -41.5 18.5t-10.5 44.5q4 26 25 44t47 18t41 -18
t11 -44q-5 -26 -25.5 -44.5t-46.5 -18.5z" />
    <glyph glyph-name="aring" unicode="&#xe5;" horiz-adv-x="553" 
d="M585 479l-75 -479h-82l-7 55q-30 -33 -71.5 -50t-81.5 -17q-50 0 -90.5 19.5t-68 53.5t-39 80t-3.5 98t34.5 98t64.5 80t84.5 53.5t96.5 19.5q40 0 74.5 -15.5t58.5 -48.5l23 53h82zM281 74q29 0 57 13t50.5 35.5t38.5 52.5t21 64q6 34 -0.5 64t-22 52.5t-39.5 35.5
t-53 13t-57 -13t-50.5 -35.5t-38 -52.5t-21.5 -64q-5 -34 1 -64t22 -52.5t39.5 -35.5t52.5 -13zM394 730q22 0 40.5 -8.5t30.5 -23t17.5 -34t2.5 -41.5q-4 -22 -15.5 -41.5t-28 -34t-37.5 -23t-43 -8.5q-23 0 -41 8.5t-30 23t-17.5 34t-1.5 41.5q3 22 14.5 41.5t28 34t37 23
t43.5 8.5zM371 579q19 0 33 13t17 31q2 19 -8 31t-29 12t-33.5 -12t-16.5 -31q-3 -18 7.5 -31t29.5 -13z" />
    <glyph glyph-name="ae" unicode="&#xe6;" horiz-adv-x="846" 
d="M600 -12q-58 0 -104 24t-74 66q-11 -10 -30 -25.5t-47 -29.5t-64.5 -24.5t-81.5 -10.5q-35 0 -64 7.5t-48.5 24t-28.5 42.5t-3 64q5 31 21.5 57t41 45.5t55.5 31.5t64 15l69 7q33 3 52 6.5t29 8t12.5 11t4.5 16.5q2 15 -4.5 29t-20 25t-33 17.5t-41.5 6.5q-17 0 -32.5 -3
t-30.5 -11t-32 -21t-37 -32l-66 47q48 53 105 80.5t115 27.5q19 0 40.5 -3.5t42 -13t38.5 -25t30 -39.5q38 37 85 59t98 22q49 0 88 -17t63.5 -53t33 -91.5t-3.5 -132.5h-350v-30q14 -42 48.5 -67t82.5 -25q38 0 73 14t61 37l51 -60q-41 -35 -94.5 -56t-113.5 -21zM647 402
q-23 0 -45 -9t-42 -25t-36 -38t-26 -48h253q1 24 -4.5 46t-18.5 38.5t-33 26t-48 9.5zM386 213q-25 -2 -50 -5q-22 -2 -46.5 -5.5t-45.5 -5.5q-21 -3 -37 -10t-27 -16.5t-17 -20t-7 -19.5q-4 -26 15.5 -42.5t56.5 -16.5q14 0 37.5 5t47.5 17.5t43.5 33.5t24.5 53z" />
    <glyph glyph-name="ccedilla" unicode="&#xe7;" horiz-adv-x="500" 
d="M260 -79q-17 0 -35 -9l-25 28l43 51q-42 7 -75.5 28.5t-55.5 54.5t-31 75.5t-1 89.5q8 52 34 98t64 80t85 53.5t97 19.5q58 0 103 -26t71 -71l-77 -53q-15 29 -43 46.5t-63 17.5q-30 0 -59 -13t-52.5 -35.5t-39.5 -52.5t-22 -64q-5 -34 1.5 -64t23 -52.5t41.5 -35.5
t55 -13q39 0 74.5 21t60.5 56l57 -58q-38 -46 -89 -73.5t-108 -30.5l-28 -36q48 9 68.5 -9t15.5 -48q-6 -38 -37 -55.5t-69 -17.5q-11 0 -24.5 1t-23.5 3q4 8 7.5 17t5.5 17q5 -1 11 -1.5t14 -0.5q21 0 38 7.5t19 24.5q2 14 -6 22t-25 8z" />
    <glyph glyph-name="egrave" unicode="&#xe8;" horiz-adv-x="556" 
d="M291 -12q-52 0 -94.5 19.5t-71 53.5t-41 80t-4.5 98t34 98t63 80t82 53.5t93 19.5q49 0 88 -17t63.5 -53t33 -91.5t-3.5 -132.5h-356q3 -26 14 -48.5t29 -39t42 -25.5t52 -9q38 0 73 14t61 37l51 -60q-41 -35 -94.5 -56t-113.5 -21zM338 402q-23 0 -45 -9t-42 -25
t-36 -38t-26 -48h253q1 24 -4.5 46t-18.5 38.5t-33 26t-48 9.5zM423 709l-4 -178h-79l-28 178h111z" />
    <glyph glyph-name="eacute" unicode="&#xe9;" horiz-adv-x="556" 
d="M291 -12q-52 0 -94.5 19.5t-71 53.5t-41 80t-4.5 98t34 98t63 80t82 53.5t93 19.5q49 0 88 -17t63.5 -53t33 -91.5t-3.5 -132.5h-356q3 -26 14 -48.5t29 -39t42 -25.5t52 -9q38 0 73 14t61 37l51 -60q-41 -35 -94.5 -56t-113.5 -21zM338 402q-23 0 -45 -9t-42 -25
t-36 -38t-26 -48h253q1 24 -4.5 46t-18.5 38.5t-33 26t-48 9.5zM457 709l-84 -178h-79l52 178h111z" />
    <glyph glyph-name="ecircumflex" unicode="&#xea;" horiz-adv-x="556" 
d="M291 -12q-52 0 -94.5 19.5t-71 53.5t-41 80t-4.5 98t34 98t63 80t82 53.5t93 19.5q49 0 88 -17t63.5 -53t33 -91.5t-3.5 -132.5h-356q3 -26 14 -48.5t29 -39t42 -25.5t52 -9q38 0 73 14t61 37l51 -60q-41 -35 -94.5 -56t-113.5 -21zM338 402q-23 0 -45 -9t-42 -25
t-36 -38t-26 -48h253q1 24 -4.5 46t-18.5 38.5t-33 26t-48 9.5zM391 672l-74 -88h-102l136 125h91l101 -125h-101z" />
    <glyph glyph-name="edieresis" unicode="&#xeb;" horiz-adv-x="556" 
d="M291 -12q-52 0 -94.5 19.5t-71 53.5t-41 80t-4.5 98t34 98t63 80t82 53.5t93 19.5q49 0 88 -17t63.5 -53t33 -91.5t-3.5 -132.5h-356q3 -26 14 -48.5t29 -39t42 -25.5t52 -9q38 0 73 14t61 37l51 -60q-41 -35 -94.5 -56t-113.5 -21zM338 402q-23 0 -45 -9t-42 -25
t-36 -38t-26 -48h253q1 24 -4.5 46t-18.5 38.5t-33 26t-48 9.5zM253 584q-26 0 -41.5 18.5t-10.5 44.5q4 26 25 44t47 18t41 -18t11 -44q-5 -26 -25.5 -44.5t-46.5 -18.5zM484 584q-26 0 -41.5 18.5t-10.5 44.5q4 26 25 44t47 18t41 -18t11 -44q-5 -26 -25.5 -44.5
t-46.5 -18.5z" />
    <glyph glyph-name="igrave" unicode="&#xec;" horiz-adv-x="252" 
d="M186 0h-97l75 479h96zM260 709l-4 -178h-79l-28 178h111z" />
    <glyph glyph-name="iacute" unicode="&#xed;" horiz-adv-x="252" 
d="M186 0h-97l75 479h96zM343 709l-84 -178h-79l52 178h111z" />
    <glyph glyph-name="icircumflex" unicode="&#xee;" horiz-adv-x="252" 
d="M176 0h-97l75 479h96zM230 672l-74 -88h-102l136 125h91l101 -125h-101z" />
    <glyph glyph-name="idieresis" unicode="&#xef;" horiz-adv-x="252" 
d="M181 0h-97l75 479h96zM103 584q-26 0 -41.5 18.5t-10.5 44.5q4 26 25 44t47 18t41 -18t11 -44q-5 -26 -25.5 -44.5t-46.5 -18.5zM334 584q-26 0 -41.5 18.5t-10.5 44.5q4 26 25 44t47 18t41 -18t11 -44q-5 -26 -25.5 -44.5t-46.5 -18.5z" />
    <glyph glyph-name="ntilde" unicode="&#xf1;" horiz-adv-x="534" 
d="M151 0h-97l75 479h77l14 -42q28 23 64 38t76 15q26 0 57.5 -8t57 -30t38.5 -61t3 -101l-45 -290h-92l46 291q5 31 -1.5 52.5t-20 34.5t-32 18.5t-39.5 5.5q-16 0 -37.5 -6t-41.5 -19.5t-36 -34t-20 -50.5zM451 653q20 3 41 18t37 30q8 -10 16.5 -20t15.5 -21
q-9 -11 -21 -23.5t-26.5 -24t-30.5 -19.5t-34 -11q-5 -1 -9 -1.5t-8 -0.5q-22 0 -38.5 10t-31.5 23q-13 10 -26 17t-31 7h-7.5t-8.5 -1q-20 -3 -38 -15.5t-32 -32.5l-46 34q16 25 45 51t74 34q5 1 9.5 1.5t9.5 0.5q26 0 44.5 -10t34.5 -21l3 -2l5 -4l3 -2q11 -8 20.5 -13
t20.5 -5q6 0 9 1z" />
    <glyph glyph-name="ograve" unicode="&#xf2;" horiz-adv-x="558" 
d="M274 -12q-50 0 -90.5 19.5t-68 53.5t-39 80t-3.5 98t34.5 98t64.5 80t84.5 53.5t96.5 19.5q49 0 90 -19.5t68 -53.5t38.5 -80t3.5 -98t-34 -98t-64 -80t-85 -53.5t-96 -19.5zM339 403q-29 0 -57 -13t-50.5 -35t-38.5 -52t-22 -64q-5 -34 1.5 -64t22 -52.5t39.5 -35.5
t53 -13t57 13t50.5 35.5t38.5 52.5t21 64q6 34 -0.5 64t-22 52t-39.5 35t-53 13zM434 709l-4 -178h-79l-28 178h111z" />
    <glyph glyph-name="oacute" unicode="&#xf3;" horiz-adv-x="558" 
d="M274 -12q-50 0 -90.5 19.5t-68 53.5t-39 80t-3.5 98t34.5 98t64.5 80t84.5 53.5t96.5 19.5q49 0 90 -19.5t68 -53.5t38.5 -80t3.5 -98t-34 -98t-64 -80t-85 -53.5t-96 -19.5zM339 403q-29 0 -57 -13t-50.5 -35t-38.5 -52t-22 -64q-5 -34 1.5 -64t22 -52.5t39.5 -35.5
t53 -13t57 13t50.5 35.5t38.5 52.5t21 64q6 34 -0.5 64t-22 52t-39.5 35t-53 13zM458 709l-84 -178h-79l52 178h111z" />
    <glyph glyph-name="ocircumflex" unicode="&#xf4;" horiz-adv-x="558" 
d="M274 -12q-50 0 -90.5 19.5t-68 53.5t-39 80t-3.5 98t34.5 98t64.5 80t84.5 53.5t96.5 19.5q49 0 90 -19.5t68 -53.5t38.5 -80t3.5 -98t-34 -98t-64 -80t-85 -53.5t-96 -19.5zM339 403q-29 0 -57 -13t-50.5 -35t-38.5 -52t-22 -64q-5 -34 1.5 -64t22 -52.5t39.5 -35.5
t53 -13t57 13t50.5 35.5t38.5 52.5t21 64q6 34 -0.5 64t-22 52t-39.5 35t-53 13zM382 672l-74 -88h-102l136 125h91l101 -125h-101z" />
    <glyph glyph-name="otilde" unicode="&#xf5;" horiz-adv-x="558" 
d="M274 -12q-50 0 -90.5 19.5t-68 53.5t-39 80t-3.5 98t34.5 98t64.5 80t84.5 53.5t96.5 19.5q49 0 90 -19.5t68 -53.5t38.5 -80t3.5 -98t-34 -98t-64 -80t-85 -53.5t-96 -19.5zM339 403q-29 0 -57 -13t-50.5 -35t-38.5 -52t-22 -64q-5 -34 1.5 -64t22 -52.5t39.5 -35.5
t53 -13t57 13t50.5 35.5t38.5 52.5t21 64q6 34 -0.5 64t-22 52t-39.5 35t-53 13zM463 653q20 3 41 18t37 30q8 -10 16.5 -20t15.5 -21q-9 -11 -21 -23.5t-26.5 -24t-30.5 -19.5t-34 -11q-5 -1 -9 -1.5t-8 -0.5q-22 0 -38.5 10t-31.5 23q-13 10 -26 17t-31 7h-7.5t-8.5 -1
q-20 -3 -38 -15.5t-32 -32.5l-46 34q16 25 45 51t74 34q5 1 9.5 1.5t9.5 0.5q26 0 44.5 -10t34.5 -21l3 -2l5 -4l3 -2q11 -8 20.5 -13t20.5 -5q6 0 9 1z" />
    <glyph glyph-name="odieresis" unicode="&#xf6;" horiz-adv-x="540" 
d="M269 -12q-50 0 -90.5 19.5t-68 53.5t-39 80t-3.5 98t34.5 98t64.5 80t84.5 53.5t96.5 19.5q49 0 90 -19.5t68 -53.5t38.5 -80t3.5 -98t-34 -98t-64 -80t-85 -53.5t-96 -19.5zM334 403q-29 0 -57 -13t-50.5 -35t-38.5 -52t-22 -64q-5 -34 1.5 -64t22 -52.5t39.5 -35.5
t53 -13t57 13t50.5 35.5t38.5 52.5t21 64q6 34 -0.5 64t-22 52t-39.5 35t-53 13zM249 584q-26 0 -41.5 18.5t-10.5 44.5q4 26 25 44t47 18t41 -18t11 -44q-5 -26 -25.5 -44.5t-46.5 -18.5zM480 584q-26 0 -41.5 18.5t-10.5 44.5q4 26 25 44t47 18t41 -18t11 -44
q-5 -26 -25.5 -44.5t-46.5 -18.5z" />
    <glyph glyph-name="divide" unicode="&#xf7;" horiz-adv-x="517" 
d="M548 243l-10 -66h-503l10 66h503zM302 300q-26 0 -41.5 18t-10.5 44q4 26 25 44.5t47 18.5t41.5 -18.5t11.5 -44.5q-5 -26 -26 -44t-47 -18zM201 52q4 26 25 44.5t47 18.5t41 -18.5t11 -44.5q-5 -26 -25.5 -44t-46.5 -18t-41.5 18t-10.5 44z" />
    <glyph glyph-name="oslash" unicode="&#xf8;" horiz-adv-x="536" 
d="M120 47q-34 35 -49 84.5t-6 107.5q8 52 34.5 98t64.5 80t84.5 53.5t96.5 19.5t94 -22l41 56l52 -34l-43 -58q35 -35 50.5 -84.5t5.5 -108.5q-8 -52 -34 -98t-64 -80t-85 -53.5t-96 -19.5q-52 0 -96 22l-34 -45l-52 34zM446 239q5 32 -0.5 60.5t-19.5 50.5l-199 -264
q24 -12 52 -12q29 0 57 13t50.5 35.5t38.5 52.5t21 64zM331 403q-29 0 -57 -13t-50.5 -35t-38.5 -52t-22 -64q-5 -32 0.5 -60t18.5 -50l199 263q-24 11 -50 11z" />
    <glyph glyph-name="ugrave" unicode="&#xf9;" horiz-adv-x="535" 
d="M386 43q-29 -23 -64.5 -38t-76.5 -15q-26 0 -57.5 7.5t-57 29.5t-39 60.5t-3.5 100.5l46 291h92l-46 -291q-5 -31 1.5 -52.5t20 -34.5t32.5 -19t40 -6q16 0 37.5 6t41.5 19.5t35.5 34.5t20.5 51l46 292h97l-75 -479h-77zM423 709l-4 -178h-79l-28 178h111z" />
    <glyph glyph-name="uacute" unicode="&#xfa;" horiz-adv-x="535" 
d="M386 43q-29 -23 -64.5 -38t-76.5 -15q-26 0 -57.5 7.5t-57 29.5t-39 60.5t-3.5 100.5l46 291h92l-46 -291q-5 -31 1.5 -52.5t20 -34.5t32.5 -19t40 -6q16 0 37.5 6t41.5 19.5t35.5 34.5t20.5 51l46 292h97l-75 -479h-77zM447 709l-84 -178h-79l52 178h111z" />
    <glyph glyph-name="ucircumflex" unicode="&#xfb;" horiz-adv-x="535" 
d="M386 43q-29 -23 -64.5 -38t-76.5 -15q-26 0 -57.5 7.5t-57 29.5t-39 60.5t-3.5 100.5l46 291h92l-46 -291q-5 -31 1.5 -52.5t20 -34.5t32.5 -19t40 -6q16 0 37.5 6t41.5 19.5t35.5 34.5t20.5 51l46 292h97l-75 -479h-77zM370 672l-74 -88h-102l136 125h91l101 -125h-101z
" />
    <glyph glyph-name="udieresis" unicode="&#xfc;" horiz-adv-x="542" 
d="M386 43q-29 -23 -64.5 -38t-76.5 -15q-26 0 -57.5 7.5t-57 29.5t-39 60.5t-3.5 100.5l46 291h92l-46 -291q-5 -31 1.5 -52.5t20 -34.5t32.5 -19t40 -6q16 0 37.5 6t41.5 19.5t35.5 34.5t20.5 51l46 292h97l-75 -479h-77zM245 584q-26 0 -41.5 18.5t-10.5 44.5q4 26 25 44
t47 18t41 -18t11 -44q-5 -26 -25.5 -44.5t-46.5 -18.5zM476 584q-26 0 -41.5 18.5t-10.5 44.5q4 26 25 44t47 18t41 -18t11 -44q-5 -26 -25.5 -44.5t-46.5 -18.5z" />
    <glyph glyph-name="ydieresis" unicode="&#xff;" horiz-adv-x="535" 
d="M221 54l-136 425h108l99 -311l194 311h107l-415 -670h-107zM243 583q-26 0 -41.5 18.5t-10.5 44.5q4 26 25 44t47 18t41 -18t11 -44q-5 -26 -25.5 -44.5t-46.5 -18.5zM474 583q-26 0 -41.5 18.5t-10.5 44.5q4 26 25 44t47 18t41 -18t11 -44q-5 -26 -25.5 -44.5
t-46.5 -18.5z" />
    <glyph glyph-name="Gbreve" unicode="&#x11e;" horiz-adv-x="703" 
d="M512 379h193l-42 -260q-57 -57 -130.5 -93t-153.5 -36q-72 0 -131 29t-98.5 78.5t-56.5 115.5t-5 141q12 74 49.5 140.5t92.5 116t123.5 78.5t140.5 29q66 0 121 -26t95 -68l-74 -79q-28 35 -68 56.5t-89 21.5q-51 0 -98.5 -21.5t-86.5 -58.5t-65.5 -85.5t-35.5 -103.5
t2.5 -103.5t38.5 -85t68 -57.5t92 -21q47 0 91 18.5t81 49.5l20 127h-90zM499 751q-27 0 -49.5 10.5t-37.5 28.5t-21.5 42.5t-1.5 51.5h75q-4 -23 10 -40t37 -17t43 17t24 40h76q-5 -27 -19.5 -51.5t-35.5 -42.5t-47 -28.5t-53 -10.5z" />
    <glyph glyph-name="gbreve" unicode="&#x11f;" horiz-adv-x="591" 
d="M277 24q-50 0 -89 18.5t-65 51t-36.5 75t-2.5 90.5q7 48 31.5 90t60 73.5t80.5 49.5t95 18t85 -15t58 -43l27 47h76q-1 -3 -1.5 -7.5t-2.5 -17.5t-5.5 -37t-10 -66t-16.5 -105t-24 -153q-5 -30 -11 -58.5t-16.5 -55t-27 -51t-41.5 -47.5q-47 -42 -100 -56.5t-109 -14.5
q-48 0 -88.5 12t-71.5 32l17 108q15 -29 55 -47t94 -18q36 0 68.5 9.5t59 29t44.5 50.5t25 74l3 19q-14 -11 -33 -21t-41 -17.5t-44.5 -12t-42.5 -4.5zM346 402q-29 0 -56.5 -11t-50 -30.5t-38 -45.5t-19.5 -56q-5 -30 2 -56.5t23.5 -46t40.5 -31t53 -11.5t56 9t49 27
t37.5 45t21.5 64q6 39 -1 66.5t-23.5 44.5t-41 24.5t-53.5 7.5zM391 576q-27 0 -49.5 10.5t-37.5 28.5t-21.5 42.5t-1.5 51.5h75q-4 -23 10 -40t37 -17t43 17t24 40h76q-5 -27 -19.5 -51.5t-35.5 -42.5t-47 -28.5t-53 -10.5z" />
    <glyph glyph-name="Idotaccent" unicode="&#x130;" horiz-adv-x="335" 
d="M284 756q-26 0 -41 18.5t-11 44.5q5 26 25.5 44t46.5 18t41.5 -18t10.5 -44q-4 -26 -25 -44.5t-47 -18.5zM317 623l-85 -537h52l-13 -86h-209l13 86h53l85 537h-53l14 86h209l-14 -86h-52z" />
    <glyph glyph-name="dotlessi" unicode="&#x131;" horiz-adv-x="232" 
d="M165 0h-97l75 479h96z" />
    <glyph glyph-name="OE" unicode="&#x152;" horiz-adv-x="1025" 
d="M1101 709l-15 -94h-329l-31 -193h293l-15 -97h-293l-36 -228h329l-15 -97h-433l6 39q-43 -23 -88.5 -35.5t-92.5 -12.5q-72 0 -131.5 29t-99 78.5t-56.5 115.5t-5 141q12 74 50 140.5t93.5 116t124 78.5t140.5 29q94 0 165 -48l6 38h433zM398 90q51 0 98 20.5t86 56.5
l59 375q-27 36 -67.5 56.5t-91.5 20.5t-99 -20.5t-87 -56.5t-65.5 -84t-35.5 -103t2.5 -103.5t39.5 -84.5t69 -56.5t92 -20.5z" />
    <glyph glyph-name="oe" unicode="&#x153;" horiz-adv-x="912" 
d="M665 -12q-62 0 -109.5 27t-75.5 72q-40 -45 -93.5 -72t-112.5 -27q-50 0 -90.5 19.5t-68 53.5t-39 80t-3.5 98t34.5 98t64.5 80t84.5 53.5t96.5 19.5q58 0 103 -26.5t71 -71.5q39 45 91 71.5t108 26.5q49 0 88 -17t63.5 -53t33 -91.5t-3.5 -132.5h-356q3 -26 14 -48.5
t29 -39t42 -25.5t52 -9q38 0 73 14t61 37l51 -60q-41 -35 -94.5 -56t-113.5 -21zM339 403q-29 0 -57 -13t-50.5 -35t-38.5 -52t-22 -64q-5 -34 1.5 -64t22 -52.5t39.5 -35.5t53 -13q28 0 55.5 12.5t50 33.5t38.5 50t22 62l2 14q4 33 -3 61.5t-22.5 50t-39 33.5t-51.5 12z
M712 402q-23 0 -45 -9t-42 -25t-36 -38t-26 -48h253q1 24 -4.5 46t-18.5 38.5t-33 26t-48 9.5z" />
    <glyph glyph-name="Scedilla" unicode="&#x15e;" horiz-adv-x="551" 
d="M255 -79q-17 0 -35 -9l-25 28l44 52q-72 7 -124.5 40t-72.5 85l96 46q14 -36 54.5 -55.5t96.5 -19.5q145 0 163 111q3 21 -2 36t-18 28q-32 30 -120 54q-54 14 -90 31t-59 40q-54 50 -42 135q7 42 29 78.5t57 63.5t78.5 40.5t93.5 13.5q73 0 130 -28t81 -79l-88 -50
q-24 35 -59.5 49.5t-77.5 14.5q-30 0 -57 -10t-46 -24q-15 -12 -24.5 -29.5t-12.5 -37.5q-2 -13 -0.5 -26.5t14.5 -28t39.5 -28t74.5 -26.5q57 -15 96 -32.5t63 -41.5q57 -54 43 -143q-7 -45 -31.5 -83.5t-63.5 -67.5q-35 -26 -78 -40.5t-91 -16.5l-30 -38q48 9 68.5 -9
t15.5 -48q-6 -38 -37 -55.5t-69 -17.5q-11 0 -24.5 1t-23.5 3q4 8 7.5 17t5.5 17q5 -1 11 -1.5t14 -0.5q21 0 38 7.5t19 24.5q2 14 -6 22t-25 8z" />
    <glyph glyph-name="scedilla" unicode="&#x15f;" horiz-adv-x="444" 
d="M202 -79q-17 0 -35 -9l-25 28l43 51q-27 3 -50 13t-41 25q-17 14 -26.5 33t-13.5 39l88 37q5 -17 11 -25t12 -13q11 -11 28.5 -16.5t37.5 -5.5q40 0 70 22q13 9 22.5 22.5t7.5 28.5q-2 13 -12.5 22.5t-25 15.5t-30 9.5t-26.5 6.5q-32 8 -59 19.5t-46 28t-28 39t-4 53.5
q5 29 25 57t49 48q26 18 58 27.5t64 9.5t61 -9.5t49 -27.5q18 -16 28 -38t11 -45l-91 -21q-2 24 -19.5 40.5t-52.5 16.5q-18 0 -37 -8t-33 -22q-13 -12 -14 -29t12 -28t28 -16t32 -10q45 -11 71 -22t44 -24q55 -36 44 -103q-5 -32 -26.5 -64.5t-57.5 -52.5q-48 -28 -107 -34
l-30 -37q48 9 68.5 -9t15.5 -48q-6 -38 -37 -55.5t-69 -17.5q-11 0 -24.5 1t-23.5 3q4 8 7.5 17t5.5 17q5 -1 11 -1.5t14 -0.5q21 0 38 7.5t19 24.5q2 14 -6 22t-25 8z" />
    <glyph glyph-name="Ydieresis" unicode="&#x178;" horiz-adv-x="627" 
d="M311 332l-190 377h125l135 -266l219 266h126l-310 -377l-52 -332h-105zM317 756q-26 0 -41.5 18.5t-10.5 44.5q4 26 25 44t47 18t41 -18t11 -44q-5 -26 -25.5 -44.5t-46.5 -18.5zM548 756q-26 0 -41.5 18.5t-10.5 44.5q4 26 25 44t47 18t41 -18t11 -44
q-5 -26 -25.5 -44.5t-46.5 -18.5z" />
    <glyph glyph-name="florin" unicode="&#x192;" horiz-adv-x="494" 
d="M-7 -124q4 26 24.5 44.5t46.5 18.5q24 0 39.5 -16.5t13.5 -40.5q30 6 50 31t28 71l65 408h-82l10 67l85 20l14 88q8 52 27.5 89t45.5 61t57.5 35.5t64.5 11.5q18 0 38 -3.5t37 -11.5t26.5 -23t6.5 -37q-5 -26 -25.5 -44t-46.5 -18q-25 0 -40 16.5t-13 40.5
q-30 -6 -50.5 -31t-27.5 -71l-17 -103h148l-13 -87h-148l-63 -393q-8 -52 -27.5 -89t-45.5 -61t-57.5 -35.5t-64.5 -11.5q-18 0 -38 3.5t-36 11.5t-25.5 22.5t-6.5 36.5z" />
    <glyph glyph-name="circumflex" unicode="&#x2c6;" horiz-adv-x="359" 
d="M308 844l-74 -88h-102l136 125h91l101 -125h-101z" />
    <glyph glyph-name="caron" unicode="&#x2c7;" horiz-adv-x="353" 
d="M376 861h101l-141 -125h-91l-96 125h102l46 -88z" />
    <glyph glyph-name="breve" unicode="&#x2d8;" horiz-adv-x="375" 
d="M293 751q-27 0 -49.5 10.5t-37.5 28.5t-21.5 42.5t-1.5 51.5h75q-4 -23 10 -40t37 -17t43 17t24 40h76q-5 -27 -19.5 -51.5t-35.5 -42.5t-47 -28.5t-53 -10.5z" />
    <glyph glyph-name="dotaccent" unicode="&#x2d9;" horiz-adv-x="184" 
d="M211 756q-26 0 -41 18.5t-11 44.5q5 26 25.5 44t46.5 18t41.5 -18t10.5 -44q-4 -26 -25 -44.5t-47 -18.5z" />
    <glyph glyph-name="ring" unicode="&#x2da;" horiz-adv-x="299" 
d="M277 789q22 0 40.5 -8.5t30.5 -23t17.5 -34t2.5 -41.5q-4 -22 -15.5 -41.5t-28 -34t-37.5 -23t-43 -8.5q-23 0 -41 8.5t-30 23t-17.5 34t-1.5 41.5q3 22 14.5 41.5t28 34t37 23t43.5 8.5zM254 638q19 0 33 13t17 31q2 19 -8 31t-29 12t-33.5 -12t-16.5 -31
q-3 -18 7.5 -31t29.5 -13z" />
    <glyph glyph-name="ogonek" unicode="&#x2db;" horiz-adv-x="213" 
d="M122 -38q-15 -14 -32.5 -35t-21.5 -42q-2 -26 19.5 -37t47.5 -11q15 0 29 3l3 -29q-7 -3 -17 -5q-8 -2 -19.5 -3t-25.5 -1q-21 0 -39.5 5.5t-31.5 16t-19.5 25.5t-3.5 34q4 23 18 42t32 37h61z" />
    <glyph glyph-name="tilde" unicode="&#x2dc;" horiz-adv-x="443" 
d="M432 818q20 3 41 18t37 30q8 -10 16.5 -20t15.5 -21q-9 -11 -21 -23.5t-26.5 -24t-30.5 -19.5t-34 -11q-5 -1 -9 -1.5t-8 -0.5q-22 0 -38.5 10t-31.5 23q-13 10 -26 17t-31 7h-7.5t-8.5 -1q-20 -3 -38 -15.5t-32 -32.5l-46 34q16 25 45 51t74 34q5 1 9.5 1.5t9.5 0.5
q26 0 44.5 -10t34.5 -21l3 -2l5 -4l3 -2q11 -8 20.5 -13t20.5 -5q6 0 9 1z" />
    <glyph glyph-name="hungarumlaut" unicode="&#x2dd;" horiz-adv-x="381" 
d="M286 709l-84 -178h-79l52 178h111zM462 709l-84 -178h-79l52 178h111z" />
    <glyph glyph-name="endash" unicode="&#x2013;" horiz-adv-x="699" 
d="M702 300l-10 -66h-611l10 66h611z" />
    <glyph glyph-name="emdash" unicode="&#x2014;" horiz-adv-x="793" 
d="M796 300l-10 -66h-705l10 66h705z" />
    <glyph glyph-name="quoteright001" unicode="&#x2018;" horiz-adv-x="196" 
d="M126 463l6 245h80l26 -245h-112z" />
    <glyph glyph-name="quoteright" unicode="&#x2019;" horiz-adv-x="205" 
d="M289 709l-104 -245h-80l72 245h112z" />
    <glyph glyph-name="quotesinglbase" unicode="&#x201a;" horiz-adv-x="192" 
d="M89 -128h-81l72 246h113z" />
    <glyph glyph-name="quotedblleft" unicode="&#x201c;" horiz-adv-x="374" 
d="M296 463l6 245h80l26 -245h-112zM138 463l6 245h80l26 -245h-112z" />
    <glyph glyph-name="quotedblright" unicode="&#x201d;" horiz-adv-x="373" 
d="M296 709l-104 -245h-80l72 245h112zM453 709l-104 -245h-80l72 245h112z" />
    <glyph glyph-name="quotedblbase" unicode="&#x201e;" horiz-adv-x="391" 
d="M97 -128h-81l72 246h113zM275 -128h-81l72 246h113z" />
    <glyph glyph-name="dagger" unicode="&#x2020;" horiz-adv-x="305" 
d="M86 510h113l39 246h66l-39 -246h115l-10 -66h-115l-94 -595h-66l94 595h-113z" />
    <glyph glyph-name="daggerdbl" unicode="&#x2021;" horiz-adv-x="436" 
d="M449 115h-181l-49 -306h-66l49 306h-179l10 65h179l37 232h-179l10 66h179l44 278h66l-44 -278h181l-10 -66h-181l-37 -232h181z" />
    <glyph glyph-name="bullet" unicode="&#x2022;" horiz-adv-x="296" 
d="M97 196q-28 33 -21 80q7 49 46 81q40 33 87 33q48 0 77 -33q28 -31 20 -81q-7 -47 -45 -79q-41 -33 -88 -33t-76 32z" />
    <glyph glyph-name="ellipsis" unicode="&#x2026;" horiz-adv-x="644" 
d="M49 52q4 26 25 44.5t47 18.5t41 -18.5t11 -44.5q-5 -26 -25.5 -44t-46.5 -18t-41.5 18t-10.5 44zM268 52q4 26 25 44.5t47 18.5t41 -18.5t11 -44.5q-5 -26 -25.5 -44t-46.5 -18t-41.5 18t-10.5 44zM487 52q4 26 25 44.5t47 18.5t41 -18.5t11 -44.5q-5 -26 -25.5 -44
t-46.5 -18t-41.5 18t-10.5 44z" />
    <glyph glyph-name="trademark" unicode="&#x2122;" horiz-adv-x="658" 
d="M211 654h-79l9 55h218l-9 -55h-80l-40 -253h-59zM653 709h56l-49 -308h-61l33 207l-88 -100h-41l-58 100l-33 -207h-59l49 308h55l77 -134z" />
    <glyph glyph-name="radical" unicode="&#x221a;" horiz-adv-x="688" 
d="M253 0l-87 268l-84 -133l-55 30l114 181h74l86 -274l416 658h73l-462 -730h-75z" />
    <glyph glyph-name="approxequal" unicode="&#x2248;" horiz-adv-x="577" 
d="M411 171q22 0 45 8.5t42.5 18.5t32.5 19l13 9l18 -19q4 -5 10 -11.5t5 -7.5q-6 -5 -23 -19t-41 -28t-53 -25t-59 -11q-35 0 -56.5 13t-38.5 27t-34 24t-46 10q-32 0 -64.5 -16.5t-54.5 -45.5l-52 33q1 1 14 16.5t36 32.5t56 31.5t75 14.5q45 0 71.5 -15.5t46.5 -31.5
l3 -3q14 -11 25.5 -17.5t28.5 -6.5zM441 375q22 0 45 8.5t42.5 18.5t32.5 19l13 9l18 -19q4 -5 10 -11.5t5 -7.5q-6 -5 -23 -19t-41 -28t-53 -25t-59 -11q-35 0 -56.5 13t-38.5 27t-34 24t-46 10q-32 0 -64.5 -16.5t-54.5 -45.5l-52 33q1 1 14 16.5t36 32.5t56 31.5t75 14.5
q45 0 71.5 -15.5t46.5 -31.5l3 -3q14 -11 25.5 -17.5t28.5 -6.5z" />
    <glyph glyph-name="notequal" unicode="&#x2260;" horiz-adv-x="519" 
d="M114 434h426l-10 -66h-426zM497 161h-426l10 65h426z" />
    <glyph glyph-name="lessequal" unicode="&#x2264;" horiz-adv-x="494" 
d="M89 313l419 188l-11 -66l-345 -154l296 -156l-10 -66l-359 188zM438 59l-9 -59h-397l9 59h397z" />
    <glyph glyph-name="greaterequal" unicode="&#x2265;" horiz-adv-x="494" 
d="M493 247l-419 -188l10 66l346 156l-297 154l11 66l359 -188zM471 59l-9 -59h-397l9 59h397z" />
    <glyph glyph-name="a.salt" horiz-adv-x="482" 
d="M305 282q33 3 52 6.5t29 8t12.5 11t4.5 16.5q2 15 -4.5 29t-20 25t-33 17.5t-41.5 6.5q-17 0 -32.5 -3t-30.5 -11t-32 -21t-37 -32l-66 47q48 53 105 80.5t115 27.5q27 0 59.5 -8t59 -30.5t40.5 -62t4 -101.5l-45 -288h-72l-13 50q-25 -28 -61 -42.5t-81 -18.5
q-37 -3 -68 2.5t-53 20t-33.5 38.5t-9.5 59q1 35 16.5 64t40.5 50.5t57.5 34.5t68.5 17zM385 213q-25 -2 -50 -5q-22 -2 -46.5 -5.5t-45.5 -5.5q-23 -3 -40 -11t-27.5 -18.5t-16 -21.5t-5.5 -20q0 -26 20 -41t62 -13q16 1 38.5 7t44.5 19t39 33t22 50z" />
    <glyph glyph-name="quotesingle.001" horiz-adv-x="833" 
 />
    <glyph glyph-name="_127" horiz-adv-x="500" 
 />
    <glyph glyph-name="zero.taboldstyle" horiz-adv-x="561" 
d="M278 -10q-49 0 -91 18t-71.5 50.5t-43 77t-5.5 97.5l2 10q8 53 34.5 98.5t65.5 78.5t87.5 52t100.5 19q53 0 96 -19.5t71.5 -53t40.5 -78.5t4 -97l-2 -10q-8 -51 -35 -95.5t-66 -77t-88 -51.5t-100 -19zM170 239q-3 -23 3 -49.5t22 -49t40.5 -37t58.5 -14.5q25 0 52.5 9
t52 27.5t43 46.5t24.5 66q6 39 -3 68t-27.5 48t-43.5 28.5t-50 9.5t-53 -10t-52.5 -29t-42.5 -48t-24 -66z" />
    <glyph glyph-name="one.taboldstyle" horiz-adv-x="258" 
d="M170 384h-95l15 94h200l-75 -478h-105z" />
    <glyph glyph-name="two.taboldstyle" horiz-adv-x="513" 
d="M49 0l9 60q90 40 162 81q31 18 61 37.5t54.5 40t40.5 41t19 40.5q8 48 -16 75t-71 27q-48 0 -80 -28.5t-38 -66.5h-102q6 37 26.5 70.5t52 58.5t71.5 39.5t84 14.5q45 0 80 -14.5t58 -39.5t33 -58.5t4 -70.5q-7 -45 -30 -79t-53.5 -59.5t-64 -43.5t-60.5 -31h196l-14 -94
h-422z" />
    <glyph glyph-name="six.taboldstyle" horiz-adv-x="531" 
d="M264 -10q-51 0 -92.5 19.5t-69 53t-39.5 78t-4 95.5q5 35 21 67t37 64q5 7 18 26t31 44.5t39 55.5l42 60q49 70 109 156h110l-169 -239q54 13 101 4t79 -35q43 -34 62 -87.5t9 -115.5q-8 -51 -34.5 -95.5t-65 -78t-86 -53t-98.5 -19.5zM208 336q-17 -26 -32.5 -54
t-18.5 -46q-5 -30 2.5 -57t24 -47t41 -32t54.5 -12t58.5 12t52 32t39 47t20.5 57q6 38 -5 70.5t-37 52.5q-16 13 -39 20.5t-49.5 6.5t-54.5 -11t-52 -33z" />
    <glyph glyph-name="eight.taboldstyle" horiz-adv-x="511" 
d="M64 216q8 52 39 97.5t80 72.5q-29 26 -38.5 60.5t-3.5 72.5q6 40 27.5 76t52.5 63.5t69.5 43.5t78.5 16t73 -16t55.5 -43.5t32.5 -63.5t4 -76q-6 -38 -28 -72.5t-55 -60.5q18 -12 31.5 -30.5t22 -41t11.5 -47.5t-1 -51q-8 -46 -32.5 -87t-60 -72t-79 -49t-89.5 -18
t-84 18t-64 49t-38 72t-4 87zM354 621q-20 0 -38.5 -8.5t-33.5 -22.5t-25 -32.5t-13 -38.5q-5 -28 5.5 -50.5t31.5 -34.5q17 -10 42 -10q24 0 44 10q26 12 42.5 34.5t21.5 50.5q3 20 -1.5 38.5t-14.5 32.5t-26 22.5t-35 8.5zM262 330q-36 -14 -61.5 -44.5t-31.5 -69.5
q-4 -25 1.5 -48t19 -41t33.5 -28.5t46 -10.5q25 0 48.5 10.5t43 28.5t32.5 41t17 48q6 39 -9.5 69.5t-46.5 44.5q-21 9 -45 9q-25 0 -47 -9z" />
    <glyph glyph-name="three.taboldstyle" horiz-adv-x="526" 
d="M355 234q46 -4 76.5 -24t47.5 -50.5t21 -69t-3 -78.5q-8 -50 -34.5 -95.5t-65 -80t-86 -55.5t-97.5 -21q-41 0 -75.5 13.5t-61 37t-44 55.5t-24.5 68l98 35q7 -47 42 -79t87 -30q28 1 55 13.5t49 33t37.5 46t21.5 54.5q6 30 -0.5 57t-22.5 47.5t-40 33t-54 13.5
q-10 0 -20.5 -2t-21.5 -5l-31 50l153 184h-214l15 94h349l-10 -67q-41 -50 -74 -89q-14 -17 -27 -32.5t-23.5 -28.5t-16.5 -20.5z" />
    <glyph glyph-name="four.taboldstyle" horiz-adv-x="594" 
d="M22 -100l-24 51l453 528h83l-76 -485h114l-15 -94h-114l-21 -130h-105l21 130h-316zM154 -6h197l45 285z" />
    <glyph glyph-name="five.taboldstyle" horiz-adv-x="518" 
d="M224 -140q30 0 58.5 11.5t51.5 31.5t38.5 46.5t20.5 56.5q6 38 -5 70.5t-37 52.5q-22 18 -63.5 24t-85.5 -11q-23 -10 -42 -26l-54 40l88 323h310l-15 -94h-223l-40 -152q56 17 109 10t86 -34q43 -34 61.5 -87.5t8.5 -115.5q-8 -51 -34 -95.5t-64.5 -78t-86 -53
t-98.5 -19.5q-58 0 -103 26t-73 68q-16 23 -24 55l94 49q3 -22 16 -42q17 -26 44 -41t62 -15z" />
    <glyph glyph-name="seven.taboldstyle" horiz-adv-x="446" 
d="M364 385h-274l15 94h407v-1l-7 -47l-380 -661h-113z" />
    <glyph glyph-name="nine.taboldstyle" horiz-adv-x="532" 
d="M130 43q-42 35 -61 88.5t-10 114.5q8 51 34.5 95t65 76.5t86 51.5t98.5 19q50 0 91.5 -19t69.5 -51.5t40 -76.5t4 -95q-5 -35 -21.5 -67t-36.5 -64q-5 -8 -18.5 -27t-32 -44.5t-40 -56t-42.5 -60.5q-51 -71 -111 -157h-109l174 243q-54 -13 -101.5 -4.5t-79.5 34.5z
M328 392q-30 0 -59 -11.5t-52 -31t-39 -46.5t-21 -57q-5 -38 6 -70.5t37 -52.5q16 -13 39 -20.5t49.5 -6.5t54.5 11t52 33l5 6q8 13 16.5 26.5t15.5 27t12 25.5t6 21q5 30 -2.5 57t-24 46.5t-41 31t-54.5 11.5z" />
    <glyph glyph-name="zero.titling" horiz-adv-x="580" 
d="M283 -10q-52 0 -93.5 25t-68.5 67.5t-37.5 100.5t0.5 124l14 87q11 72 38.5 132t67 102.5t89 66t105.5 23.5q55 0 97.5 -23.5t68.5 -66.5t35 -102.5t-2 -131.5l-14 -87q-11 -69 -39.5 -127t-69 -100.5t-90 -66t-101.5 -23.5zM186 307q-7 -46 -2 -86t20 -69t39 -46t56 -17
q33 0 62.5 16t53.5 44.5t41 68.5t25 89l14 87q17 103 -12 164t-100 61t-118.5 -59.5t-64.5 -165.5z" />
    <glyph glyph-name="one.titling" horiz-adv-x="299" 
d="M221 615h-95l15 94h200l-112 -709h-105z" />
    <glyph glyph-name="two.titling" horiz-adv-x="551" 
d="M45 0l11 70l240 232q55 55 87 86t49 50t23.5 33t9.5 36q9 56 -19.5 84.5t-75.5 28.5q-24 0 -46 -9.5t-40 -25.5t-30.5 -36t-15.5 -42h-102q7 43 30 81.5t56.5 67.5t75.5 46t87 17t81.5 -17t61 -46t35.5 -67.5t4 -81.5q-5 -32 -18.5 -63t-36.5 -53l-297 -294h302l-15 -97
h-457z" />
    <glyph glyph-name="three.titling" horiz-adv-x="540" 
d="M403 464q46 -4 76.5 -24t47.5 -50t21 -67.5t-2 -77.5q-8 -51 -34 -97t-64.5 -81t-86 -56t-98.5 -21q-41 0 -75.5 13.5t-61.5 37t-44.5 55t-24.5 68.5l98 35q7 -45 40 -77t84 -32q29 0 57 12t50.5 32t38.5 47t22 56q5 30 -1.5 57t-22 47.5t-39.5 33t-54 13.5
q-10 0 -20.5 -2t-20.5 -5l-31 50l153 184h-214l15 94h349l-11 -67q-41 -50 -74 -89q-14 -17 -27 -32.5t-23.5 -28.5t-16.5 -20.5z" />
    <glyph glyph-name="four.titling" horiz-adv-x="642" 
d="M96 130l-25 51l455 528h83l-77 -485h114l-15 -94h-114l-20 -130h-105l20 130h-316zM228 224h197l45 285z" />
    <glyph glyph-name="five.titling" horiz-adv-x="538" 
d="M257 90q30 0 58.5 11.5t51.5 31.5t38.5 46.5t20.5 56.5q4 30 -1.5 56.5t-21.5 47t-42 32.5t-62 12q-27 0 -54.5 -8.5t-52.5 -29.5l-53 40l88 323h310l-15 -94h-223l-40 -152q39 12 78 12q52 0 90.5 -20t62.5 -53.5t32.5 -76.5t1.5 -89q-8 -51 -34.5 -95.5t-64.5 -78
t-85.5 -53t-98.5 -19.5q-37 0 -70 11.5t-59.5 31.5t-45 47t-25.5 59l93 49q7 -43 41 -70.5t82 -27.5z" />
    <glyph glyph-name="six.titling" horiz-adv-x="569" 
d="M285 -10q-51 0 -92.5 19.5t-69 53t-39.5 78t-4 95.5q5 35 21 67t37 64q5 7 18 26t31 44.5t39 55.5l42 60q49 70 109 156h110l-169 -239q29 7 60 7q51 0 90.5 -20t64 -53.5t34 -77t2.5 -90.5q-8 -51 -34.5 -95.5t-65 -78t-86 -53t-98.5 -19.5zM229 336q-17 -26 -32.5 -54
t-18.5 -46q-5 -30 2.5 -57t24 -47t41 -32t54.5 -12t58.5 12t52 32t39 47t20.5 57q5 31 -1.5 58t-23 47.5t-42.5 32.5t-60 12q-27 0 -55.5 -10t-54.5 -34z" />
    <glyph glyph-name="seven.titling" horiz-adv-x="484" 
d="M401 615h-274l15 94h407l-8 -48l-379 -661h-113z" />
    <glyph glyph-name="eight.titling" horiz-adv-x="515" 
d="M67 216q8 52 39 97.5t80 72.5q-29 26 -38.5 60.5t-3.5 72.5q6 40 27.5 76t52.5 63.5t69.5 43.5t78.5 16t73 -16t55.5 -43.5t32.5 -63.5t4 -76q-6 -38 -28 -72.5t-55 -60.5q18 -12 31.5 -30.5t22 -41t11.5 -47.5t-1 -51q-8 -46 -32.5 -87t-60 -72t-79 -49t-89.5 -18
t-84 18t-64 49t-38 72t-4 87zM357 621q-20 0 -38.5 -8.5t-33.5 -22.5t-25 -32.5t-13 -38.5t1 -37t14.5 -30t27 -20.5t36.5 -7.5q41 0 71 28t37 67q3 20 -1.5 38.5t-14.5 32.5t-26 22.5t-35 8.5zM265 330q-36 -14 -61.5 -44.5t-31.5 -69.5q-4 -25 1.5 -48t19 -41t33.5 -28.5
t46 -10.5q25 0 48.5 10.5t43 28.5t32.5 41t17 48q4 26 -2 48.5t-19.5 39t-34 26t-45.5 9.5t-47 -9z" />
    <glyph glyph-name="nine.titling" horiz-adv-x="556" 
d="M178 273q-43 35 -62 88.5t-9 114.5q8 51 34 95t64.5 76.5t86 51.5t98.5 19q50 0 91.5 -19t69.5 -51.5t40.5 -76.5t4.5 -95q-5 -35 -21.5 -67t-37.5 -64q-5 -8 -18.5 -27t-31.5 -44.5t-39.5 -56t-42.5 -60.5q-50 -71 -111 -157h-109l173 243q-17 -4 -32 -6t-30 -2
q-71 0 -118 38zM375 622q-30 0 -58.5 -11.5t-52 -31t-39 -46.5t-20.5 -57t1.5 -57.5t23 -48t42.5 -32.5t60 -12q27 0 55.5 10t54.5 34l5 6q17 26 32.5 54t18.5 46q5 30 -2.5 57t-24 46.5t-41.5 31t-55 11.5z" />
    <glyph glyph-name="Adieresis.salt" 
d="M298 644q-26 0 -41 18.5t-11 44.5q5 26 25.5 44t46.5 18t41.5 -18t10.5 -44q-4 -26 -25 -44.5t-47 -18.5zM629 644q-26 0 -41 18.5t-11 44.5q5 26 25.5 44t46.5 18t41.5 -18t10.5 -44q-4 -26 -25 -44.5t-47 -18.5zM125 0h-114l407 709h115l183 -709h-113l-58 222h-293z
M307 318h213l-66 256z" />
    <glyph glyph-name="Odieresis.salt" horiz-adv-x="767" 
d="M197 644q-26 0 -41 18.5t-11 44.5q5 26 25.5 44t46.5 18t41.5 -18t10.5 -44q-4 -26 -25 -44.5t-47 -18.5zM776 644q-26 0 -41 18.5t-11 44.5q5 26 25.5 44t46.5 18t41.5 -18t10.5 -44q-4 -26 -25 -44.5t-47 -18.5zM498 719q72 0 131.5 -29t99.5 -78.5t57.5 -116
t5.5 -140.5q-12 -75 -50.5 -141t-94.5 -115.5t-124.5 -78.5t-140.5 -29t-131.5 29t-99 78.5t-56.5 115.5t-5 141q12 74 50 140.5t93.5 116t124 78.5t140.5 29zM399 90q51 0 98.5 20.5t86 56.5t65.5 84.5t36 103.5t-2.5 103t-39 84t-68.5 56.5t-92 20.5t-99 -20.5t-87 -56.5
t-65.5 -84t-35.5 -103t2.5 -103.5t39.5 -84.5t69 -56.5t92 -20.5z" />
    <glyph glyph-name="Udieresis.salt" horiz-adv-x="638" 
d="M616 251q-8 -54 -36 -101.5t-68.5 -83t-91 -56t-104.5 -20.5t-97.5 20.5t-73 56t-42.5 83t-5 101.5l73 458h104l-73 -458q-5 -32 2.5 -61t25 -51.5t44 -35.5t58.5 -13t62 13t54.5 35.5t41 51.5t21.5 61l73 458h105zM346 644q-26 0 -41 18.5t-11 44.5q5 26 25.5 44
t46.5 18t41.5 -18t10.5 -44q-4 -26 -25 -44.5t-47 -18.5zM491 644q-26 0 -41 18.5t-11 44.5q5 26 25.5 44t46.5 18t41.5 -18t10.5 -44q-4 -26 -25 -44.5t-47 -18.5z" />
  </font>
</defs>
</svg>
