<?xml version="1.0" standalone="no"?>
<!DOCTYPE svg PUBLIC "-//W3C//DTD SVG 1.1//EN" "http://www.w3.org/Graphics/SVG/1.1/DTD/svg11.dtd" >
<svg xmlns="http://www.w3.org/2000/svg" xmlns:xlink="http://www.w3.org/1999/xlink" version="1.1">
<metadata>
Created by FontForge 20170731 at Tue Apr 28 18:18:13 2015
 By Aleksey,,,
Copyright (c) 2015 by Dogu Kaya. All rights reserved.
</metadata>
<defs>
<font id="Kollektif-BoldItalic" horiz-adv-x="620" >
  <font-face 
    font-family="Kollektif"
    font-weight="700"
    font-style="italic"
    font-stretch="normal"
    units-per-em="1000"
    panose-1="2 11 6 4 2 1 1 1 1 2"
    ascent="809"
    descent="-191"
    x-height="496"
    cap-height="709"
    bbox="-81 -226 1445 935"
    underline-thickness="80"
    underline-position="-275"
    unicode-range="U+0020-FB06"
  />
<missing-glyph horiz-adv-x="354" 
 />
    <glyph glyph-name="ff" unicode="ff" horiz-adv-x="736" 
d="M516 538q8 52 29.5 89.5t51 62t65.5 36t74 11.5q44 0 90 -16l-27 -101l-33 5q-7 1 -13.5 1.5t-12.5 0.5q-38 0 -58.5 -18.5t-26.5 -53.5l-9 -59h133l-19 -123h-133l-59 -373h-137l59 373h-199l-59 -373h-137l59 373h-65l11 73l73 50l7 42q8 52 29.5 89.5t51 62t65.5 36
t74 11.5q44 0 90 -16l-27 -101l-33 5q-7 1 -13.5 1.5t-12.5 0.5q-38 0 -58.5 -18.5t-26.5 -53.5l-9 -59h199l7 42v0z" />
    <glyph glyph-name="fi" unicode="fi" horiz-adv-x="547" 
d="M512 0h-138l59 373h-148l-59 -373h-137l59 373h-65l11 73l73 50l7 43q8 53 32.5 90.5t59 61t76 34.5t83.5 11q50 0 95 -14t77 -39l-52 -90q-26 11 -60.5 19.5t-67.5 8.5q-38 0 -68 -14.5t-35 -50.5l-10 -60h286z" />
    <glyph glyph-name="fl" unicode="fl" horiz-adv-x="583" 
d="M500 619q-14 3 -27.5 4t-25.5 1q-27 0 -50.5 -6t-41 -16t-28.5 -24t-14 -30l-8 -52h103l-19 -123h-103l-59 -373h-137l59 373h-65l11 73l73 50l7 45q16 101 94 148.5t201 47.5q84 0 183 -21l-113 -716h-138z" />
    <glyph glyph-name="ffi" unicode="ffi" horiz-adv-x="900" 
d="M863 0h-138l59 373h-158l-59 -373h-137l59 373h-196l-59 -373h-137l59 373h-65l11 73l73 50l7 42q8 52 29.5 89.5t51 62t65.5 36t74 11.5q44 0 90 -16l-27 -101l-33 5q-7 1 -13.5 1.5t-12.5 0.5q-38 0 -58.5 -18.5t-26.5 -53.5l-9 -59h196l7 44q8 53 32.5 90.5t59 61
t76 34.5t83.5 11q50 0 95 -14t77 -39l-51 -90q-27 11 -61.5 19.5t-67.5 8.5q-38 0 -68 -14.5t-35 -50.5l-10 -61h296z" />
    <glyph glyph-name="ffl" unicode="ffl" horiz-adv-x="927" 
d="M842 616q-14 3 -27 4t-25 1q-27 0 -50.5 -6t-41 -16t-28.5 -24t-14 -30l-8 -49h103l-19 -123h-103l-59 -373h-137l59 373h-199l-59 -373h-137l59 373h-65l11 73l73 50l7 41q8 52 29 89.5t51 62t66 36t74 11.5q44 0 90 -16l-27 -101l-33 5q-8 1 -14 1.5t-12 0.5
q-38 0 -58 -18.5t-27 -53.5l-9 -58h199l7 42q16 101 94 148.5t201 47.5q84 0 182 -21l-112 -713h-138z" />
    <glyph glyph-name="f_f_j" unicode="ffj" horiz-adv-x="927" 
d="M502 539q8 52 29.5 89.5t51 62t65.5 36t74 11.5q44 0 90 -16l-27 -101l-32 5q-8 1 -14.5 1.5t-12.5 0.5q-38 0 -58.5 -18.5t-25.5 -53.5l-10 -60h342l-79 -498q-8 -52 -29.5 -89.5t-51.5 -62t-66 -36t-74 -11.5q-44 0 -90 16l27 101l33 -5q8 -2 15 -2h13q38 0 57.5 19
t24.5 52l63 393h-204l-59 -373h-137l59 373h-199l-59 -373h-137l59 373h-65l11 73l73 50l7 43q8 52 29.5 89.5t51 62t65.5 36t74 11.5q44 0 90 -16l-27 -101l-32 5q-8 1 -14.5 1.5t-12.5 0.5q-38 0 -58.5 -18.5t-25.5 -53.5l-10 -60h199l7 43v0z" />
    <glyph glyph-name="f_j" unicode="fj" horiz-adv-x="586" 
d="M481 373h-204l-59 -373h-137l59 373h-65l11 73l73 50l7 42q8 52 29.5 89.5t51 62t65.5 36t74 11.5q44 0 90 -16l-27 -101l-33 5q-7 1 -13.5 1.5t-12.5 0.5q-38 0 -58.5 -18.5t-26.5 -53.5l-9 -59h342l-79 -498q-8 -52 -29.5 -89.5t-51.5 -62t-66 -36t-74 -11.5
q-44 0 -90 16l27 101l33 -5q8 -2 15 -2h13q38 0 57.5 19t24.5 52z" />
    <glyph glyph-name=".notdef" horiz-adv-x="354" 
 />
    <glyph glyph-name=".null" horiz-adv-x="0" 
 />
    <glyph glyph-name="nonmarkingreturn" horiz-adv-x="333" 
 />
    <glyph glyph-name="space" unicode=" " horiz-adv-x="275" 
 />
    <glyph glyph-name="exclam" unicode="!" horiz-adv-x="280" 
d="M163 144q32 0 50.5 -22t13.5 -54t-30.5 -54t-57.5 -22t-51 22t-14 54t31 54t58 22zM112 205l68 504h146l-91 -504h-123z" />
    <glyph glyph-name="quotedbl" unicode="&#x22;" horiz-adv-x="404" 
d="M339 709h137l-76 -270h-87zM129 439l27 270h136l-76 -270h-87z" />
    <glyph glyph-name="numbersign" unicode="#" horiz-adv-x="740" 
d="M635 419l-59 -179h136l-16 -95h-151l-50 -153l-90 16l44 135h-175l-49 -151l-91 16l44 133h-132l15 96h148l58 179h-135l15 95h151l50 153l91 -16l-44 -135h174l50 151l90 -16l-44 -133h132l-15 -95zM538 417h-174l-59 -178h174z" />
    <glyph glyph-name="dollar" unicode="$" horiz-adv-x="567" 
d="M517 348q74 -47 59 -144q-6 -41 -27.5 -76t-54 -62t-74.5 -46t-88 -28l-14 -93h-85l14 89q-41 3 -75.5 16t-61 33.5t-43 47.5t-22.5 59l144 62q-1 -7 1.5 -20t11.5 -25.5t25 -23t41 -13.5l23 146q-45 12 -81.5 28.5t-61 40t-35 56t-3.5 76.5q7 43 30.5 80t58 65t75.5 45
t83 22l13 81h85l-13 -81q25 -3 50.5 -12.5t47.5 -24t39.5 -34t26.5 -42.5l-121 -75q-20 37 -64 55l-26 -160q33 -9 67 -19t55 -23zM304 419q3 -1 5 -2t5 -2l22 137q-35 -8 -55.5 -29.5t-25.5 -49.5q-2 -17 12 -30.5t37 -23.5zM411 174q5 8 7 20q4 20 -8.5 34.5t-36.5 19.5
l-19 -117q21 8 35 19t22 24z" />
    <glyph glyph-name="percent" unicode="%" horiz-adv-x="754" 
d="M749 695l-569 -729l-72 50l569 728zM608 325q34 0 62.5 -13t47.5 -36t27.5 -53.5t3.5 -64.5q-6 -35 -24 -65t-44 -53t-59 -36t-67 -13q-35 0 -63 13t-47 36t-27.5 53t-2.5 65q5 34 23 64.5t44 53.5t58.5 36t67.5 13zM570 86q15 0 29 6t25.5 15.5t19 22.5t10.5 28
q5 30 -13 51t-48 21t-54 -21t-29 -51q-5 -29 12.5 -50.5t47.5 -21.5zM313 723q34 0 62.5 -13t47.5 -36t27.5 -53.5t3.5 -64.5q-6 -35 -24 -65t-44 -53t-59 -36t-67 -13q-35 0 -63 13t-47 36t-27.5 53t-2.5 65q5 34 23 64.5t44 53.5t58.5 36t67.5 13zM275 484q30 0 54.5 21
t29.5 51t-13 51t-48 21t-54 -21t-29 -51t12.5 -51t47.5 -21z" />
    <glyph glyph-name="ampersand" unicode="&#x26;" horiz-adv-x="697" 
d="M709 260q-31 -29 -64.5 -57.5t-66.5 -54.5l111 -148h-170l-51 66q-52 -35 -109 -61t-117 -26q-38 0 -72 12.5t-58.5 36.5t-36 59.5t-4.5 82.5q11 63 55 117t105 98l-94 131q8 49 33 88t60.5 66t77 41.5t81.5 14.5q38 0 71.5 -15.5t57 -42t35 -61t5.5 -72.5
q-5 -29 -18 -53t-32 -44.5t-43 -38.5t-49 -34l94 -123q13 8 24 20t25 23l73 65zM253 99q26 0 52 9.5t47 21.5q24 13 46 31q-25 34 -50 65t-48 65q-17 -11 -31 -22.5t-28 -25.5q-11 -11 -26.5 -28t-21.5 -54q-1 -8 1.5 -19t9.5 -20.5t19 -16t30 -6.5zM361 603
q-24 0 -39.5 -10t-24.5 -21q-11 -14 -15 -31l65 -81q25 16 40.5 28.5t24 21.5t11.5 16.5t4 13.5q4 28 -17 45.5t-49 17.5z" />
    <glyph glyph-name="quotesingle" unicode="'" horiz-adv-x="219" 
d="M152 709h146l-75 -270h-98z" />
    <glyph glyph-name="parenleft" unicode="(" horiz-adv-x="321" 
d="M384 726q-73 -85 -124.5 -192t-70.5 -228q-20 -123 -1.5 -231t66.5 -193l-96 -27q-48 94 -65 208t3 243q20 127 72.5 240t129.5 207l86 -27v0z" />
    <glyph glyph-name="parenright" unicode=")" horiz-adv-x="321" 
d="M261 753q47 -94 63.5 -207t-3.5 -240q-20 -129 -73.5 -243t-131.5 -208l-87 27q75 85 127 193t72 231q19 121 2 228t-65 192z" />
    <glyph glyph-name="asterisk" unicode="*" horiz-adv-x="488" 
d="M474 347l-94 -63l-67 160l-115 -159l-75 62l147 131l-169 30l47 100l149 -64l6 165h105l-45 -163l168 62l15 -100l-169 -33z" />
    <glyph glyph-name="plus" unicode="+" horiz-adv-x="523" 
d="M567 343l-15 -94h-204l-33 -205h-95l33 205h-204l15 94h204l32 205h95l-32 -205h204z" />
    <glyph glyph-name="comma" unicode="," horiz-adv-x="302" 
d="M101 127h155l-125 -271h-106z" />
    <glyph glyph-name="hyphen" unicode="-" horiz-adv-x="389" 
d="M378 228h-294l14 94h294z" />
    <glyph glyph-name="period" unicode="." horiz-adv-x="249" 
d="M146 144q32 0 51 -22t14 -54q-2 -16 -10.5 -29.5t-20.5 -24t-27 -16.5t-31 -6q-32 0 -50.5 22t-13.5 54t30.5 54t57.5 22z" />
    <glyph glyph-name="slash" unicode="/" horiz-adv-x="547" 
d="M650 695l-569 -729l-72 50l569 728z" />
    <glyph glyph-name="zero" unicode="0" horiz-adv-x="625" 
d="M429 718q60 0 107.5 -23t76.5 -67q29 -43 39.5 -102t-0.5 -132l-14 -87q-11 -69 -41 -126.5t-74 -100.5q-44 -44 -97.5 -66.5t-111.5 -22.5q-57 0 -104 24t-77 69q-29 43 -42 100t-2 123l14 87q11 72 40.5 131.5t71.5 101.5q43 45 98 68t116 23zM498 389q15 96 -14 148
q-25 43 -79 43t-91 -43q-47 -51 -62 -148l-12 -75q-6 -42 -1.5 -77.5t19.5 -61.5q27 -47 76 -47q28 0 52.5 13.5t44.5 38t34.5 58.5t20.5 76z" />
    <glyph glyph-name="one" unicode="1" horiz-adv-x="367" 
d="M172 709h236l-112 -709h-152l90 571h-84z" />
    <glyph glyph-name="two" unicode="2" horiz-adv-x="561" 
d="M399 719q47 0 85.5 -18t64.5 -48t37.5 -70.5t4.5 -85.5q-6 -37 -28.5 -78t-62.5 -79l-210 -203h240l-21 -137h-460l6 36q2 15 4.5 32t4.5 30q88 87 158 157l59.5 59.5t53.5 54t40.5 41t20.5 21.5q17 19 27.5 35t13.5 33q6 40 -14.5 61.5t-55.5 21.5q-17 0 -33.5 -7
t-30 -19t-22.5 -27.5t-12 -31.5h-132q7 45 31.5 85.5t60 70.5t79.5 48t91 18z" />
    <glyph glyph-name="three" unicode="3" horiz-adv-x="550" 
d="M479 438q44 -35 62.5 -88.5t8.5 -115.5q-8 -51 -34.5 -95.5t-65.5 -78.5t-86.5 -53.5t-98.5 -19.5q-40 0 -74 12.5t-60.5 34.5t-44.5 52.5t-25 66.5l141 56q2 -35 24.5 -59.5t57.5 -24.5q20 0 39.5 8.5t35 23t26.5 34t14 40.5q7 45 -16 76t-69 31q-13 0 -26 -3t-25 -11
l-60 95l142 152h-181l22 138h369l-11 -69l-143 -168q45 -9 78 -34z" />
    <glyph glyph-name="four" unicode="4" horiz-adv-x="684" 
d="M566 246h108l-20 -132h-108l-18 -114h-152l18 115h-264l-51 82l444 512h117zM448 456l-30 -43l-128 -151l-20 -16h144l28 174z" />
    <glyph glyph-name="five" unicode="5" horiz-adv-x="561" 
d="M479 438q45 -32 63 -87t8 -117q-8 -51 -34.5 -95.5t-65.5 -78.5t-86.5 -53.5t-98.5 -19.5q-40 0 -74.5 12.5t-61 34.5t-44 52.5t-24.5 66.5l140 56q2 -35 24.5 -59.5t57.5 -24.5q20 0 39.5 8.5t35 23t26.5 34t14 40.5q4 24 -1 43.5t-17 34t-29 22.5t-37 8q-24 0 -49.5 -9
t-50.5 -23l-83 69l89 333h348l-22 -138h-226l-29 -120q39 16 80 16q33 0 61 -8.5t47 -20.5z" />
    <glyph glyph-name="six" unicode="6" horiz-adv-x="586" 
d="M504 438q43 -35 62 -88.5t9 -115.5q-8 -51 -34.5 -95.5t-65.5 -78.5t-86.5 -53.5t-98.5 -19.5t-92.5 19.5t-69 53.5t-39.5 78.5t-4 95.5q5 35 21.5 67.5t36.5 63.5l13 19.5t28.5 41t38.5 55t43 62.5q51 74 115 166h171l-166 -234q35 0 65 -10t53 -27zM308 125
q20 0 39.5 8.5t35 23t26.5 34t14 40.5q7 45 -15.5 76t-69.5 31q-18 0 -37 -7t-36 -24l-3 -4q-11 -19 -22 -39t-13 -33q-3 -21 1.5 -40.5t15.5 -34t27.5 -23t36.5 -8.5z" />
    <glyph glyph-name="seven" unicode="7" horiz-adv-x="537" 
d="M148 709h466l-12 -72l-368 -637h-164l330 571h-274z" />
    <glyph glyph-name="eight" unicode="8" horiz-adv-x="573" 
d="M493 390q19 -12 35 -31t26 -42t13.5 -49t-0.5 -52q-8 -46 -34.5 -87.5t-65.5 -73t-87 -50t-98 -18.5t-92 18.5t-70.5 50t-42 73t-5.5 87.5q8 52 41.5 99.5t86.5 74.5q-32 26 -43 58.5t-5 70.5q6 40 29 76.5t56.5 64t75 43.5t85.5 16t81 -16t62 -43.5t36.5 -64t5.5 -76.5
q-6 -38 -29.5 -70.5t-60.5 -58.5zM377 580q-15 0 -29.5 -6t-25.5 -16.5t-19 -24t-10 -27.5q-4 -20 4.5 -37t25.5 -26q16 -7 32 -7q9 0 17.5 2t16.5 5q20 9 32.5 26t16.5 37q5 29 -12.5 51.5t-48.5 22.5zM306 128q20 0 38.5 8.5t33.5 22.5t25.5 32t13.5 38q5 31 -7.5 54.5
t-37.5 34.5q-14 7 -35 7q-20 0 -37 -7q-28 -11 -48 -34.5t-25 -54.5q-3 -20 1.5 -38t15 -32t26.5 -22.5t36 -8.5z" />
    <glyph glyph-name="nine" unicode="9" horiz-adv-x="566" 
d="M394 719q51 0 92.5 -19.5t70 -52.5t41 -77.5t4.5 -95.5q-6 -35 -22.5 -67t-36.5 -64q-2 -3 -13.5 -19.5t-29 -41t-38.5 -55.5t-43 -62q-51 -74 -115 -165h-170l166 233q-51 1 -90 21.5t-63 54t-33.5 76.5t-1.5 89q8 51 34 95.5t64 77.5t85.5 52.5t98.5 19.5zM424 406
q12 18 22.5 38t12.5 33q7 44 -16.5 75t-64.5 31q-20 0 -39.5 -8.5t-35 -23t-26.5 -33.5t-14 -41q-3 -21 0.5 -40.5t14 -34.5t28 -23.5t40.5 -8.5q19 0 38.5 7.5t36.5 24.5z" />
    <glyph glyph-name="colon" unicode=":" horiz-adv-x="314" 
d="M182 144q32 0 51 -22t14 -54q-2 -16 -10.5 -29.5t-20.5 -24t-27 -16.5t-31 -6q-32 0 -50.5 22t-13.5 54t30.5 54t57.5 22zM237 473q32 0 50.5 -22t13.5 -54t-30.5 -54.5t-57.5 -22.5t-51 22.5t-14 54.5t31 54t58 22z" />
    <glyph glyph-name="semicolon" unicode=";" horiz-adv-x="284" 
d="M101 127h155l-125 -271h-106zM234 473q32 0 50.5 -22t13.5 -54t-30.5 -54.5t-57.5 -22.5t-51 22.5t-14 54.5t31 54t58 22z" />
    <glyph glyph-name="less" unicode="&#x3c;" horiz-adv-x="501" 
d="M82 203l15 99l442 203l-18 -118l-322 -134l279 -134l-18 -117z" />
    <glyph glyph-name="equal" unicode="=" horiz-adv-x="522" 
d="M119 450h426l-15 -95h-426zM86 243h426l-15 -95h-426z" />
    <glyph glyph-name="greater" unicode="&#x3e;" horiz-adv-x="502" 
d="M52 2l18 117l323 134l-280 134l18 118l378 -203l-15 -99z" />
    <glyph glyph-name="question" unicode="?" horiz-adv-x="473" 
d="M176 144q32 0 51 -22t14 -54t-31 -54t-58 -22t-50.5 22t-13.5 54t30.5 54t57.5 22zM293 718q60 0 103 -18t69 -48.5t35.5 -71.5t2.5 -87q-18 -113 -143 -181q-18 -10 -34.5 -18t-31 -19t-26 -27t-18.5 -43h-120l3 22q6 34 19.5 58.5t34.5 45t49.5 37.5t63.5 36
q26 14 43.5 38.5t22.5 52.5q3 22 -3.5 40.5t-21 31.5t-35.5 20t-46 7q-20 0 -34.5 -2.5t-25.5 -5.5q-12 -4 -21 -8l-23 104q31 17 66 26.5t71 9.5z" />
    <glyph glyph-name="at" unicode="@" horiz-adv-x="836" 
d="M534 726q87 0 153.5 -28t109.5 -78.5t59.5 -121.5t3.5 -157q-8 -51 -23.5 -87t-33 -60t-35.5 -37.5t-31 -19.5q-27 -13 -59 -13q-33 0 -61 16t-48 47q-30 -27 -66 -42t-77 -15q-42 0 -76 16t-56.5 43.5t-32.5 64t-4 78.5q7 42 28.5 78.5t53 64t70.5 43.5t81 16
q32 0 59.5 -10t47.5 -28q0 6 4 12q2 5 7 10t13 8l77 -8l-52 -214q-1 -2 -1 -4t-1 -4q-3 -18 0.5 -32.5t11 -24t17.5 -15t20 -5.5q22 0 40 29.5t29 77.5q13 84 -2 142.5t-49.5 95t-84.5 52.5t-106 16q-59 0 -116 -24t-103 -65t-78 -95t-42 -115q-10 -63 4 -116.5t48.5 -92.5
t86.5 -61t119 -22q60 0 116 22l23 -87q-77 -30 -155 -30q-87 0 -155.5 29.5t-113 81.5t-63 123t-5.5 153q13 79 55 150.5t103 125.5t136 85.5t154 31.5zM441 225q25 0 44.5 9.5t33.5 24.5t22.5 34t11.5 39q3 19 0.5 38.5t-11.5 34.5t-25.5 24.5t-41.5 9.5q-22 0 -43 -8.5
t-38 -23t-28.5 -34t-14.5 -41.5t2 -41.5t17.5 -34t30.5 -23t40 -8.5z" />
    <glyph glyph-name="A" unicode="A" horiz-adv-x="801" 
d="M595 709l184 -709h-164l-40 152h-301l-87 -152h-165l408 709h165zM539 290l-57 223l-129 -223h186z" />
    <glyph glyph-name="B" unicode="B" horiz-adv-x="619" 
d="M552 386q37 -29 54.5 -74.5t9.5 -100.5q-7 -44 -30 -82.5t-56.5 -67t-74.5 -45t-85 -16.5h-322l112 709h312q40 0 73 -15.5t54.5 -41.5t31 -61t3.5 -75q-7 -43 -28.5 -75.5t-53.5 -54.5zM270 443h160q27 0 48.5 19t26.5 46t-11.5 45t-43.5 18h-160zM391 137q15 0 29.5 7
t26 18.5t19.5 27t11 32.5q5 35 -12 59t-47 24h-170l-27 -168h170z" />
    <glyph glyph-name="C" unicode="C" horiz-adv-x="695" 
d="M402 138q48 0 98 22t105 74l83 -93q-71 -76 -153 -115t-162 -39q-72 0 -130.5 29.5t-96.5 79.5t-54 116.5t-4 141.5t49.5 141t92.5 116t123.5 79t140.5 29q67 0 123.5 -25t105.5 -83l-105 -107q-35 39 -70.5 52.5t-76.5 13.5t-80 -17t-70.5 -46t-53.5 -68.5t-29 -84.5
t2 -84t31.5 -68.5t56 -46.5t74.5 -17z" />
    <glyph glyph-name="D" unicode="D" horiz-adv-x="683" 
d="M446 709q77 0 131.5 -28t86.5 -76t42.5 -113t-1.5 -138q-12 -74 -43.5 -138.5t-77.5 -112.5t-102 -75.5t-117 -27.5h-317l112 709h286zM356 137q43 0 76.5 17.5t58 47.5t40 69t22.5 82t4 82.5t-18 69.5t-43 48t-71 18h-135l-69 -434h135z" />
    <glyph glyph-name="E" unicode="E" horiz-adv-x="539" 
d="M160 709h443l-22 -138h-291l-20 -128h256l-22 -138h-256l-27 -168h291l-21 -137h-443z" />
    <glyph glyph-name="F" unicode="F" horiz-adv-x="503" 
d="M159 709h443l-22 -138h-291l-20 -128h256l-22 -138h-256l-48 -305h-152z" />
    <glyph glyph-name="G" unicode="G" horiz-adv-x="700" 
d="M461 401h268l-41 -260q-72 -76 -151.5 -115t-159.5 -39q-72 0 -131 29.5t-98.5 79.5t-56 116.5t-4.5 141.5t49.5 141t92.5 116t123.5 79t140.5 29q68 0 124.5 -25t104.5 -83l-105 -107q-35 39 -70 52.5t-76 13.5q-42 0 -81 -17t-70.5 -46t-53.5 -68.5t-29 -84.5t2 -84
t31.5 -68.5t56 -46.5t75.5 -17q37 0 76 13.5t81 44.5l12 77h-130z" />
    <glyph glyph-name="H" unicode="H" horiz-adv-x="722" 
d="M635 709h152l-112 -709h-152l48 305h-325l-48 -305h-151l112 709h151l-42 -266h325z" />
    <glyph glyph-name="I" unicode="I" horiz-adv-x="351" 
d="M417 709l-20 -128h-53l-72 -454h53l-20 -127h-258l20 127h53l72 454h-53l20 128h258z" />
    <glyph glyph-name="J" unicode="J" horiz-adv-x="498" 
d="M565 709q-17 -108 -31 -197l-12 -76t-11.5 -69.5t-9 -54.5t-4.5 -32l-4 -26q-7 -44 -19 -84.5t-45 -78.5q-42 -49 -95.5 -73.5t-110.5 -24.5q-39 0 -71.5 13t-57.5 35.5t-41 53t-21 65.5l138 44q3 -29 22.5 -48t49.5 -19q35 0 58.5 23.5t32.5 53.5q1 4 5 28t10 59.5
t13 80t14 89.5q17 106 37 238h153z" />
    <glyph glyph-name="K" unicode="K" horiz-adv-x="712" 
d="M416 385l282 -385h-187l-206 289l-71 -62l-35 -227h-152l112 709h152l-46 -287l331 287h194z" />
    <glyph glyph-name="L" unicode="L" horiz-adv-x="500" 
d="M220 137h291l-21 -137h-443l112 709h152z" />
    <glyph glyph-name="M" unicode="M" horiz-adv-x="858" 
d="M780 709h143l-112 -709h-151l74 468l-207 -237h-121l-134 230l-73 -461h-152l112 709h144l188 -327z" />
    <glyph glyph-name="N" unicode="N" horiz-adv-x="730" 
d="M644 709h151l-112 -709h-144l-268 463l-73 -463h-151l112 709h142l269 -466z" />
    <glyph glyph-name="O" unicode="O" horiz-adv-x="765" 
d="M495 719q72 0 131.5 -29t99 -79t57 -116t5.5 -141q-12 -74 -50.5 -141t-94 -117t-124 -79.5t-140.5 -29.5t-131 29.5t-98.5 79.5t-56 117t-4.5 141q12 75 49.5 141t92.5 116t123.5 79t140.5 29zM403 138q41 0 80 17t70.5 46.5t53.5 68.5t29 84t-2 84.5t-31.5 69t-56 46.5
t-74.5 17t-79.5 -17t-70 -46.5t-53.5 -69t-29 -84.5t2 -84t31.5 -68.5t55.5 -46.5t74 -17z" />
    <glyph glyph-name="P" unicode="P" horiz-adv-x="568" 
d="M465 709q42 0 76.5 -16.5t57.5 -45t32.5 -67t2.5 -82.5t-29 -82.5t-54 -67.5t-71.5 -45.5t-81.5 -16.5h-155l-45 -286h-151l112 709h306zM400 424q15 0 29 6t25 16t19 23.5t10 28.5q5 30 -13 51.5t-47 21.5h-135l-23 -147h135z" />
    <glyph glyph-name="Q" unicode="Q" horiz-adv-x="790" 
d="M696 108l72 -26l-61 -95l-94 32l-33 33q-42 -31 -95 -48t-105 -17q-72 0 -131 29.5t-98.5 79.5t-56.5 117t-5 141q12 75 49.5 141t93 116t124 79t140.5 29t131 -29t98.5 -79t57 -116t5.5 -141q-11 -64 -40 -121t-72 -103zM582 231q21 26 34.5 57.5t19.5 65.5
q7 45 -2 84.5t-31.5 69t-55.5 46.5t-74 17t-80 -17t-70.5 -46.5t-53 -69t-28.5 -84.5t2 -84t31 -68.5t55.5 -46.5t74.5 -17q37 0 74 14l-59 59l101 88z" />
    <glyph glyph-name="R" unicode="R" horiz-adv-x="687" 
d="M635 498q-5 -34 -19.5 -64.5t-35.5 -56t-48 -45t-57 -31.5l188 -301h-177l-174 286h-68l-45 -286h-152l112 709h306q42 0 76.5 -16.5t58 -45t33 -67t2.5 -82.5zM401 424q15 0 28.5 6t25 16t19 23.5t9.5 28.5q5 30 -12.5 51.5t-46.5 21.5h-135l-23 -147h135z" />
    <glyph glyph-name="S" unicode="S" horiz-adv-x="616" 
d="M555 365q38 -25 54 -64t8 -90q-8 -48 -37 -89.5t-77 -73.5q-43 -29 -94 -44.5t-105 -16.5q-54 0 -100 15t-80 45q-50 42 -62 104l151 65q-1 -10 3.5 -25t17.5 -29t35 -24t57 -10q57 0 89.5 24.5t37.5 51.5q2 16 -6.5 30t-28.5 22q-38 14 -81 23.5t-83 24t-71.5 38.5
t-46.5 67q-7 20 -8 40t2 41q8 48 37 93t74 76q42 29 90 44.5t99 15.5t95.5 -15t76.5 -44q32 -28 47 -63l-126 -78q-17 29 -45.5 46.5t-67.5 17.5q-54 0 -87.5 -24t-39.5 -63q-3 -18 11.5 -32t39 -25t56 -19.5l63 -17t58.5 -17.5t44 -20z" />
    <glyph glyph-name="T" unicode="T" horiz-adv-x="559" 
d="M135 709h513l-22 -138h-181l-90 -571h-151l90 571h-181z" />
    <glyph glyph-name="U" unicode="U" horiz-adv-x="640" 
d="M493 286q2 13 6 38.5t9 57.5t11 69t12 73q13 85 29 185h151q-18 -113 -33 -206q-6 -40 -12.5 -79.5t-12 -73.5t-9.5 -59t-5 -35q-8 -53 -38 -102t-73.5 -86t-98 -59t-112.5 -22q-57 0 -104 22t-79 59t-46 86t-6 102q2 11 6 36.5t9.5 59.5t12 73.5t12.5 79.5q15 93 32 204
h151q-16 -104 -30 -190l-12 -74t-11 -68.5t-9 -55.5t-5 -35q-5 -30 0.5 -56.5t19.5 -47t35.5 -32.5t47.5 -12q27 0 52 12t45.5 32.5t35 47t19.5 56.5z" />
    <glyph glyph-name="V" unicode="V" horiz-adv-x="806" 
d="M732 709h165l-411 -709h-167l-186 709h165l133 -530z" />
    <glyph glyph-name="W" unicode="W" horiz-adv-x="1098" 
d="M1035 709h158l-312 -709h-188l-71 477l-221 -477h-186l-88 709h158l55 -536l246 536h146l76 -540z" />
    <glyph glyph-name="X" unicode="X" horiz-adv-x="764" 
d="M534 382l195 -382h-182l-127 245l-202 -245h-183l316 382l-167 327h182l98 -191l158 191h183z" />
    <glyph glyph-name="Y" unicode="Y" horiz-adv-x="693" 
d="M604 709h183l-313 -377l-52 -332h-151l52 332l-193 377h183l111 -218z" />
    <glyph glyph-name="Z" unicode="Z" horiz-adv-x="632" 
d="M274 138h335l-21 -138h-546l15 101l406 470h-296l22 138h490l-20 -127z" />
    <glyph glyph-name="bracketleft" unicode="[" horiz-adv-x="325" 
d="M178 823h220l-15 -95h-125l-125 -791h125l-16 -95h-220z" />
    <glyph glyph-name="backslash" unicode="\" horiz-adv-x="547" 
d="M117 695l86 49l339 -728l-88 -50z" />
    <glyph glyph-name="bracketright" unicode="]" horiz-adv-x="312" 
d="M239 -158h-221l16 95h126l125 791h-126l15 95h221z" />
    <glyph glyph-name="asciicircum" unicode="^" horiz-adv-x="452" 
d="M493 414h-106l-65 195l-127 -195h-106l199 305h102z" />
    <glyph glyph-name="underscore" unicode="_" horiz-adv-x="597" 
d="M48 0h501l-16 -95h-501z" />
    <glyph glyph-name="grave" unicode="`" horiz-adv-x="242" 
d="M283 710l-14 -179h-102l-35 179h151z" />
    <glyph glyph-name="a" unicode="a" horiz-adv-x="608" 
d="M642 496l-78 -496h-119l-6 53q-35 -39 -77.5 -52t-86.5 -13q-53 0 -94.5 20.5t-68.5 56t-38.5 83t-2.5 101.5t35 101.5t64 83t86 56t101 20.5q48 0 85.5 -15t58.5 -48l22 49h119zM465 247q6 39 -0.5 65.5t-21.5 43t-37 24t-49 7.5t-52.5 -11t-46 -29.5t-35 -44
t-18.5 -53.5q-5 -29 1.5 -54t21 -43.5t36.5 -29.5t49 -11t51.5 8.5t45 25t35 42t20.5 60.5z" />
    <glyph glyph-name="b" unicode="b" horiz-adv-x="591" 
d="M412 510q52 0 94 -20.5t69 -56t38.5 -83t2.5 -101.5t-35 -101.5t-64 -83t-86.5 -56t-100.5 -20.5q-44 0 -82 15.5t-58 39.5l-26 -43h-118l115 730h138l-43 -274q65 54 156 54zM330 111q27 0 52.5 11t46 29.5t34.5 43.5t19 54q4 28 -2 53.5t-20.5 44t-36.5 29.5t-49 11
t-51.5 -7.5t-44.5 -24t-34.5 -43t-20.5 -65.5q-6 -35 0 -60.5t21 -42t37 -25t49 -8.5z" />
    <glyph glyph-name="c" unicode="c" horiz-adv-x="515" 
d="M350 387q-25 0 -49 -11.5t-43.5 -31t-33 -45.5t-18.5 -56t0.5 -54.5t19.5 -42t34.5 -27.5t45.5 -10q31 0 62.5 14.5t56.5 40.5l72 -84q-42 -42 -96.5 -67t-113.5 -25q-54 0 -98 20.5t-73.5 56t-42.5 83t-4 101.5t36.5 101.5t68.5 83t91 56t104 20.5q61 0 109 -26t77 -71
l-108 -74q-24 27 -46 37.5t-51 10.5z" />
    <glyph glyph-name="d" unicode="d" horiz-adv-x="590" 
d="M660 730l-115 -730h-118l-14 43q-27 -24 -69.5 -39.5t-86.5 -15.5q-53 0 -94.5 20.5t-69 56t-38.5 83t-2 101.5t34.5 101.5t64 83t86.5 56t101 20.5q47 0 82 -11t59 -37l42 268h138zM446 247q6 39 0 65.5t-21 43t-37.5 24t-49.5 7.5t-52 -11t-45.5 -29.5t-35 -44
t-18.5 -53.5q-5 -29 1.5 -54t21 -43.5t36 -29.5t48.5 -11q54 0 97 33.5t55 102.5z" />
    <glyph glyph-name="e" unicode="e" horiz-adv-x="595" 
d="M370 510q56 0 98.5 -22.5t69.5 -59t38 -84t3 -97.5q-3 -16 -7.5 -32t-11.5 -32h-354q14 -34 48 -57.5t77 -23.5t76.5 7t64.5 18l32 -85q-41 -26 -90.5 -40t-103.5 -14q-59 0 -107 20.5t-80.5 55.5t-47 83t-5.5 102q8 53 36 100.5t68.5 83t91 56.5t104.5 21zM448 290
q-5 43 -31.5 70t-65.5 27q-40 0 -77 -27t-56 -70h230z" />
    <glyph glyph-name="f" unicode="f" horiz-adv-x="379" 
d="M169 538q8 52 29.5 89.5t51 62t65.5 36t74 11.5q44 0 90 -16l-27 -101l-33 5q-7 1 -13.5 1.5t-12.5 0.5q-38 0 -58.5 -18.5t-26.5 -53.5l-9 -59h133l-19 -123h-133l-59 -373h-137l59 373h-65l11 73l73 50l7 42v0z" />
    <glyph glyph-name="g" unicode="g" horiz-adv-x="593" 
d="M512 496h118l-52 -328q-9 -57 -17.5 -101.5t-20.5 -80t-29.5 -63.5t-45.5 -52q-51 -43 -108 -59t-117 -16q-51 0 -94 12t-76 33l21 129q14 -27 56 -44t93 -17q33 0 63.5 8.5t55 27.5t41.5 47.5t23 69.5l2 10q-33 -26 -73.5 -41.5t-85.5 -15.5q-50 0 -89.5 19.5t-65 53
t-36 79t-2.5 96.5t33 96t61 78.5t81.5 53t95.5 19.5q47 0 83 -12.5t59 -39.5zM313 138q32 0 57 11.5t42.5 29.5t28.5 40t14 43q4 23 0 45.5t-16 40t-33.5 28.5t-52.5 11q-26 0 -49.5 -10t-43 -27t-32.5 -39.5t-17 -48.5t2 -48.5t19.5 -39.5t34 -26.5t46.5 -9.5z" />
    <glyph glyph-name="h" unicode="h" horiz-adv-x="569" 
d="M401 510q49 0 88.5 -20.5t65 -56t35.5 -83t1 -101.5l-14 -88t-12 -80q-7 -42 -13 -81h-135q7 47 14 91q6 38 12.5 78.5t11.5 69.5q4 28 -0.5 55t-17 47.5t-32 33t-43.5 12.5q-23 0 -45 -8.5t-41 -25t-32.5 -41.5t-18.5 -59l-40 -253h-139l115 730h139l-43 -272
q29 25 65 38.5t79 13.5z" />
    <glyph glyph-name="i" unicode="i" horiz-adv-x="253" 
d="M195 0h-138l78 496h138zM215 564q-32 0 -50.5 22t-13.5 54q3 16 11 30t20 24.5t26.5 16.5t30.5 6q32 0 50.5 -22.5t13.5 -54.5t-30.5 -54t-57.5 -22z" />
    <glyph glyph-name="j" unicode="j" horiz-adv-x="273" 
d="M170 496h138l-79 -498q-8 -52 -29.5 -89.5t-51.5 -62t-66 -36t-74 -11.5q-22 0 -45 4t-44 12l27 101q16 -2 25 -3.5t14.5 -2.5t10 -1h10.5q38 0 57.5 18.5t24.5 52.5zM275 717q32 0 50.5 -22.5t13.5 -54.5t-30.5 -54t-57.5 -22t-50.5 22t-13.5 54q3 16 11 30t20 24.5
t26.5 16.5t30.5 6z" />
    <glyph glyph-name="k" unicode="k" horiz-adv-x="536" 
d="M365 290l164 -290h-165l-100 198l-58 -53l-22 -145h-138l115 730h138l-64 -405l188 171h168z" />
    <glyph glyph-name="l" unicode="l" horiz-adv-x="227" 
d="M164 731h138l-115 -731h-138z" />
    <glyph glyph-name="m" unicode="m" horiz-adv-x="816" 
d="M675 496q27 0 56.5 -9t52 -32t33.5 -63t1 -102l-45 -290h-138l41 265q5 30 2 51t-12 34t-22.5 18.5t-28.5 5.5q-14 0 -29 -5t-27.5 -17t-22.5 -33t-15 -53l-42 -266h-138l41 265q10 61 -7 85t-57 24q-29 0 -56.5 -27t-36.5 -84l-41 -263h-138l78 496h118l13 -46
q26 22 58.5 34t67.5 12q18 0 37 -3.5t37 -12.5t33.5 -23.5t25.5 -36.5q15 19 34 33.5t40.5 24t44 14t42.5 4.5z" />
    <glyph glyph-name="n" unicode="n" horiz-adv-x="541" 
d="M381 496q28 0 61 -8t59.5 -30t40.5 -61t4 -101l-46 -296h-139l46 291q3 23 -2 39t-15.5 25.5t-26 14t-31.5 4.5q-13 0 -29 -4.5t-31 -14.5t-27 -26t-15 -38l-46 -291h-138l78 496h118l14 -38q27 17 58.5 27.5t66.5 10.5z" />
    <glyph glyph-name="o" unicode="o" horiz-adv-x="574" 
d="M369 510q53 0 97 -20.5t73.5 -56t42.5 -83t4 -101.5t-36.5 -101.5t-68 -83t-91 -56t-103.5 -20.5q-54 0 -98 20.5t-73.5 56t-42.5 83t-4 101.5t36.5 101.5t68.5 83t91 56t104 20.5zM306 109q25 0 48 10t42 27.5t32.5 42t18.5 54.5t-0.5 56t-18.5 45.5t-33 31t-45 11.5
t-49 -11.5t-43.5 -31t-33 -45.5t-18.5 -56t0.5 -54.5t19.5 -42t34.5 -27.5t45.5 -10z" />
    <glyph glyph-name="p" unicode="p" horiz-adv-x="591" 
d="M412 510q53 0 94.5 -20.5t69 -56t38.5 -83t2 -101.5t-35 -101.5t-64 -83t-86 -56t-101 -20.5q-43 0 -81.5 15.5t-58.5 39.5l-38 -241h-138l110 694h118l15 -34q32 26 70 37t85 11zM331 111q27 0 52 11t46 29.5t35 43.5t19 54q4 28 -2 53.5t-21 44t-36.5 29.5t-48.5 11
q-54 0 -96.5 -32t-54.5 -106q-6 -35 0 -60.5t21 -43t37 -26t49 -8.5z" />
    <glyph glyph-name="q" unicode="q" horiz-adv-x="591" 
d="M624 496l-110 -694h-138l38 241q-27 -24 -70 -39.5t-86 -15.5q-53 0 -95 20.5t-69 56t-38.5 83t-2.5 101.5t35 101.5t64.5 83t86.5 56t101 20.5q47 0 81.5 -11t59.5 -37l25 34h118zM295 111q54 0 97 36t54 105q6 37 0 62.5t-21 41.5t-37 23.5t-49 7.5t-52 -11t-46 -29.5
t-35.5 -44t-18.5 -53.5q-5 -29 1.5 -54t21.5 -43.5t36.5 -29.5t48.5 -11z" />
    <glyph glyph-name="r" unicode="r" horiz-adv-x="412" 
d="M248 427q12 16 28 30.5t35.5 26t43.5 18.5t53 7q33 0 77 -12l-32 -123q-10 2 -21 5q-9 2 -20 3.5t-20 1.5q-32 0 -60.5 -9t-51.5 -25t-38.5 -38.5t-19.5 -48.5l-41 -263h-138l78 496h125z" />
    <glyph glyph-name="s" unicode="s" horiz-adv-x="443" 
d="M401 260q49 -39 37 -111q-5 -33 -25.5 -62t-50.5 -51t-68 -34.5t-79 -12.5q-31 0 -59 8t-51 22t-38.5 33.5t-20.5 43.5q24 11 54 24.5t53 24.5q7 -15 24 -27.5t50 -12.5q34 0 52.5 16t20.5 30q2 10 -8 18.5t-23 13.5q-18 8 -30.5 8.5t-29.5 5.5q-52 13 -77.5 34.5
t-34.5 43.5t-7.5 42t3.5 32q5 32 23.5 61t46.5 50.5t62.5 34.5t71.5 13q62 0 105 -33.5t50 -87.5l-113 -36q-3 18 -20 29t-38 11t-36 -14t-17 -28q-3 -17 8 -26.5t25 -13.5q11 -2 21.5 -3.5t19.5 -3.5q35 -8 58.5 -18t40.5 -24z" />
    <glyph glyph-name="t" unicode="t" horiz-adv-x="383" 
d="M256 178q-6 -35 12.5 -54t53.5 -19q13 0 27.5 2.5t30.5 8.5l-18 -116q-26 -8 -55.5 -13.5t-57.5 -5.5q-32 0 -60 8t-47.5 27.5t-28 52t-0.5 80.5l36 224h-71l14 93l76 30l18 111h138l-18 -111h134l-19 -123h-134l-31 -195v0z" />
    <glyph glyph-name="u" unicode="u" horiz-adv-x="543" 
d="M437 496h138l-78 -496h-118l-14 38q-27 -17 -59 -27.5t-67 -10.5q-27 0 -60 8t-60 30t-41.5 61t-4.5 101l47 296h139l-46 -291q-4 -23 1 -39t16 -25.5t26.5 -14t32.5 -4.5q13 0 29 4.5t31 14.5t27 26t15 38z" />
    <glyph glyph-name="v" unicode="v" horiz-adv-x="594" 
d="M514 496h149l-278 -496h-178l-122 496h148l83 -367z" />
    <glyph glyph-name="w" unicode="w" horiz-adv-x="871" 
d="M775 496h142l-227 -496h-175l-35 239l5 71l-20 -71l-109 -239h-174l-71 496h142l46 -359l157 359h115l43 -361z" />
    <glyph glyph-name="x" unicode="x" horiz-adv-x="622" 
d="M271 259l-140 237h171l67 -132l109 132h171l-216 -238l153 -258h-171l-80 154l-128 -154h-171z" />
    <glyph glyph-name="y" unicode="y" horiz-adv-x="591" 
d="M506 496h151l-423 -694h-151l166 273l-143 421h154l88 -259z" />
    <glyph glyph-name="z" unicode="z" horiz-adv-x="498" 
d="M243 122h229l-19 -122h-410l18 116l245 257h-185l19 123h385l-15 -92z" />
    <glyph glyph-name="braceleft" unicode="{" horiz-adv-x="301" 
d="M300 546q-2 -15 -4.5 -30.5t-4.5 -30.5q-3 -20 -12.5 -46t-25 -49t-37.5 -39t-49 -16q23 -9 39 -26t25 -38.5t11.5 -46t-1.5 -48.5l-31 -196q-2 -11 -1 -22.5t5.5 -21.5t13 -16.5t22.5 -6.5l-13 -78q-30 0 -54.5 11.5t-40.5 31t-23.5 46t-2.5 56.5l34 214q0 6 -1 19.5
t-10.5 29t-30 28.5t-57.5 18l16 98q40 4 64 15t37.5 23.5t18.5 23t6 12.5l34 220q5 30 20.5 56.5t38 46t50.5 31t58 11.5l-12 -78q-15 0 -26 -6.5t-18 -16.5t-11 -22t-6 -22z" />
    <glyph glyph-name="bar" unicode="|" horiz-adv-x="188" 
d="M177 816h94l-155 -976h-94z" />
    <glyph glyph-name="braceright" unicode="}" horiz-adv-x="301" 
d="M119 206q6 32 26 60t52 45l20 9q2 2 9 4t12 2q-23 9 -39 25.5t-25 38.5t-12 46.5t1 48.5l31 196q2 10 1.5 22t-5 22t-13 16.5t-22.5 6.5l12 78q30 0 54.5 -11.5t41 -31t24 -46t2.5 -56.5l-34 -214q0 -6 1 -19.5t10.5 -29t29.5 -29t57 -17.5l-15 -98q-40 -4 -64.5 -15
t-38 -23.5t-18 -23t-4.5 -12.5l-35 -220q-5 -30 -20.5 -56.5t-38 -46t-51 -31t-58.5 -11.5l13 78q15 0 26 6.5t18 16.5t10.5 21.5t5.5 22.5z" />
    <glyph glyph-name="asciitilde" unicode="~" horiz-adv-x="594" 
d="M444 304q21 0 40.5 5t35 12.5t27 15.5t17.5 14l50 -52q-4 -3 -21 -17.5t-42.5 -30.5t-58 -28.5t-67.5 -12.5q-36 0 -58 11.5t-39 25t-34.5 25t-43.5 11.5q-24 0 -45.5 -7t-37.5 -15.5t-25.5 -15.5t-10.5 -8l-61 39q1 1 15 17.5t39 35t60.5 34t80.5 15.5q40 0 66.5 -11.5
t46 -25.5t34.5 -25.5t32 -11.5z" />
    <glyph glyph-name="exclamdown" unicode="&#xa1;" horiz-adv-x="236" 
d="M174 358q-32 0 -50.5 22t-13.5 54t30.5 54t57.5 22t51 -22t14 -54t-31 -54t-58 -22zM226 297l-68 -504h-146l91 504h123z" />
    <glyph glyph-name="cent" unicode="&#xa2;" horiz-adv-x="471" 
d="M213 0l11 73q-39 11 -70.5 33t-52 53t-29 70t-1.5 83q7 43 28 83t51.5 71.5t69 53.5t80.5 30l15 98h91l-15 -96q42 -6 76.5 -29.5t57.5 -57.5l-101 -69q-28 30 -52 38l-39 -246q20 6 38 17t33 28l67 -79q-32 -32 -72 -53.5t-84 -29.5l-11 -71h-91zM218 216q5 -7 11.5 -12
t13.5 -10l37 232q-32 -20 -53.5 -50.5t-27.5 -69.5q-9 -54 19 -90z" />
    <glyph glyph-name="sterling" unicode="&#xa3;" horiz-adv-x="554" 
d="M388 123q16 0 35.5 6.5t37.5 15.5t32.5 18t22.5 14l61 -98q-33 -22 -68 -40q-30 -15 -67.5 -27t-72.5 -12h-314l15 66q2 3 9.5 38t20.5 86l17 69h-50l19 125h57l1 5q2 11 4.5 24.5t4.5 24.5l5 25q12 78 41.5 125t66 72.5t74.5 33.5t68 8q55 0 91.5 -21t58 -52t30.5 -65
t9 -59l-126 -24q0 4 -2 19.5t-10.5 33t-25 31.5t-45.5 14q-25 0 -43.5 -7t-32.5 -28t-25 -59t-21 -101h177l-19 -125h-185l-32 -136h181v0z" />
    <glyph glyph-name="yen" unicode="&#xa5;" horiz-adv-x="693" 
d="M196 398h94l-160 311h183l111 -218l180 218h183l-258 -311h93l-11 -65h-137v-1l-11 -69h137l-10 -65h-137l-31 -198h-151l31 198h-138l10 65h138l11 69l-1 1h-137z" />
    <glyph glyph-name="section" unicode="&#xa7;" horiz-adv-x="573" 
d="M528 427q35 -23 50 -59.5t7 -84.5q-7 -44 -33 -81.5t-68 -67.5q34 -23 48.5 -59t6.5 -82q-7 -45 -34 -83.5t-72 -69.5q-83 -55 -186 -57q-50 0 -93.5 14t-74.5 42q-46 40 -57 98l140 60q-1 -9 3 -23t16 -27t33 -22.5t53 -9.5q53 0 84 22.5t35 48.5q2 15 -5.5 28t-26.5 21
q-35 13 -75.5 22t-77.5 22.5t-67 35.5t-43 63q-14 36 -6 75q7 43 32 83t63 69q-14 12 -25.5 27.5t-17.5 35.5q-13 36 -6 76q7 45 34.5 86.5t68.5 70.5q38 27 84 42t94 15t88.5 -14.5t71.5 -41.5q29 -25 43 -58l-118 -73q-16 26 -42.5 43t-62.5 17q-51 0 -82 -22.5t-37 -59.5
q-3 -17 11 -30t37 -23t52.5 -18t58.5 -16t54.5 -16.5t41.5 -18.5zM353 340h-7q-51 0 -82 -22.5t-36 -58.5q-4 -27 31 -46q11 -3 24 -5t30 -2q53 0 84 22.5t35 48.5q2 14 -5 27.5t-27 20.5z" />
    <glyph glyph-name="dieresis" unicode="&#xa8;" horiz-adv-x="479" 
d="M503 902q32 0 50.5 -22t13.5 -54t-30.5 -54.5t-57.5 -22.5q-16 0 -29 6t-21.5 16.5t-12.5 24.5t-2 30q5 32 31 54t58 22zM261 902q32 0 50.5 -22t13.5 -54t-30.5 -54.5t-57.5 -22.5q-16 0 -29 6t-21.5 16.5t-12.5 24.5t-2 30q5 32 31 54t58 22z" />
    <glyph glyph-name="copyright" unicode="&#xa9;" horiz-adv-x="849" 
d="M520 231q25 11 56 39l45 -49q-37 -40 -80 -61t-88 -21q-36 0 -67 14.5t-52 41t-30.5 62.5t-2.5 78q6 41 26.5 76.5t50 61.5t65.5 41t74 15q37 0 67 -13.5t55 -43.5l-55 -57q-20 20 -38 27.5t-41 7.5q-24 0 -45 -10t-37.5 -26t-27.5 -37t-14 -42q-5 -27 1 -48t18.5 -36
t30 -23t37.5 -8q13 0 26 2.5t26 8.5zM532 686q73 0 132.5 -27.5t100 -75.5t58 -112t5.5 -137q-11 -73 -49 -137t-93 -112t-123.5 -75.5t-141.5 -27.5q-72 0 -131.5 27.5t-100 75.5t-58 112t-6.5 137q12 73 49.5 137t93 112t124 75.5t140.5 27.5zM434 68q55 0 107 21t94 57
t70 84.5t37 103.5t-4 103.5t-43 84.5t-75.5 57t-100.5 21t-107 -21t-94 -57t-70.5 -84.5t-37.5 -103.5t4.5 -103.5t44 -84.5t75.5 -57t100 -21z" />
    <glyph glyph-name="guillemotleft" unicode="&#xab;" horiz-adv-x="493" 
d="M379 301q28 -24 57 -48t57 -49l-21 -129l-178 178l15 95l232 184l-20 -127zM140 301l47 -46q23 -23 47 -46t47 -44l-21 -129l-203 219l15 93l274 230l-20 -128z" />
    <glyph glyph-name="logicalnot" unicode="&#xac;" horiz-adv-x="559" 
d="M532 137h-95l32 200h-408l15 95h503z" />
    <glyph glyph-name="registered" unicode="&#xae;" horiz-adv-x="850" 
d="M575 322q-14 -10 -30 -17l86 -138l-81 -22l-92 152h-36l-25 -152h-81l60 378h163q21 0 42 -8q9 -5 16.5 -11t13.5 -13q13 -14 18 -36q2 -11 2.5 -21.5t-1.5 -23.5q-1 -8 -3.5 -17t-6.5 -17q-5 -8 -9 -15t-11 -14q-9 -14 -25 -25zM534 383q14 14 15 27q3 16 -6 28
q-10 11 -25 11h-72l-13 -78h72q15 0 29 12zM533 686q72 0 132 -27.5t100 -75.5t58 -112t6 -137q-11 -73 -49 -137t-93.5 -112t-124 -75.5t-140.5 -27.5q-73 0 -132.5 27.5t-100 75.5t-58 112t-6.5 137q12 73 49.5 137t93 112t124 75.5t141.5 27.5zM435 68q55 0 107 21
t93.5 57t70 84.5t37.5 103.5t-4 103.5t-43.5 84.5t-75.5 57t-100 21t-107 -21t-94 -57t-70.5 -84.5t-37.5 -103.5t4.5 -103.5t44 -84.5t75.5 -57t100 -21z" />
    <glyph glyph-name="degree" unicode="&#xb0;" horiz-adv-x="386" 
d="M298 667q33 0 60 -12.5t45 -33.5t26 -50t3 -62t-22 -62t-42 -50.5t-56 -34t-64 -12.5t-60 12.5t-45 34t-26 50.5t-3 62t22 62t42 50t56 33.5t64 12.5zM262 440q29 0 52 20t28 49q5 28 -12 48t-46 20t-52 -20t-28 -48q-5 -29 12 -49t46 -20z" />
    <glyph glyph-name="plusminus" unicode="&#xb1;" horiz-adv-x="533" 
d="M567 383l-15 -94h-194l-24 -155h-95l24 155h-194l15 94h194l25 155h95l-25 -155h194zM523 94l-14 -94h-483l14 94h483z" />
    <glyph glyph-name="acute" unicode="&#xb4;" horiz-adv-x="244" 
d="M337 710l-91 -179h-102l42 179h151z" />
    <glyph glyph-name="paragraph" unicode="&#xb6;" horiz-adv-x="645" 
d="M729 709l-15 -95h-130l-122 -770h-98l122 770h-81l-122 -770h-98l76 479q-39 1 -70 17t-52 42t-30 60.5t-3 73.5t26 73.5t49.5 60.5t65.5 41.5t75 17.5h407z" />
    <glyph glyph-name="periodcentered" unicode="&#xb7;" horiz-adv-x="224" 
d="M282 496l-91 -179h-102l42 179h151z" />
    <glyph glyph-name="cedilla" unicode="&#xb8;" horiz-adv-x="329" 
d="M149 -34q24 0 41 -8t27.5 -20.5t15 -29t1.5 -33.5q-3 -21 -15.5 -38t-30.5 -28.5t-40.5 -17.5t-46.5 -6q-30 0 -48 5q-10 2 -17 5l16 50q7 0 13 -0.5t14 -0.5q22 0 39 8t20 25q5 31 -33 31q-8 0 -17.5 -2t-17.5 -7l-26 28l104 121h95l-94 -82v0z" />
    <glyph glyph-name="guillemotright" unicode="&#xbb;" horiz-adv-x="493" 
d="M100 405l20 127l174 -184l-15 -95l-236 -178l21 129q35 25 72 49t72 48zM309 450l20 128l202 -230l-15 -93l-273 -219l21 129q29 21 60 44l62 46l61 46z" />
    <glyph glyph-name="questiondown" unicode="&#xbf;" horiz-adv-x="429" 
d="M343 358q-32 0 -51 22t-14 54t31 54t58 22t50.5 -22t13.5 -54t-30.5 -54t-57.5 -22zM226 -216q-60 0 -103 18t-69 48.5t-35 71.5t-2 87q18 113 143 181q18 10 34.5 18t30.5 19t25.5 27t19.5 43h120l-4 -22q-5 -34 -18.5 -58.5t-34.5 -45t-49.5 -37.5t-64.5 -36
q-26 -14 -43.5 -38.5t-21.5 -52.5q-4 -22 3 -40.5t21.5 -31.5t35.5 -20t46 -7q20 0 35 2.5t25 5.5q11 4 20 8l24 -104q-32 -17 -67 -26.5t-71 -9.5z" />
    <glyph glyph-name="Agrave" unicode="&#xc0;" horiz-adv-x="801" 
d="M595 709l184 -709h-164l-40 152h-301l-87 -152h-165l408 709h165zM539 290l-57 223l-129 -223h186zM588 935l-14 -179h-102l-35 179h151z" />
    <glyph glyph-name="Aacute" unicode="&#xc1;" horiz-adv-x="801" 
d="M595 709l184 -709h-164l-40 152h-301l-87 -152h-165l408 709h165zM539 290l-57 223l-129 -223h186zM664 935l-91 -179h-102l42 179h151z" />
    <glyph glyph-name="Acircumflex" unicode="&#xc2;" horiz-adv-x="801" 
d="M595 709l184 -709h-164l-40 152h-301l-87 -152h-165l408 709h165zM539 290l-57 223l-129 -223h186zM458 756h-121l143 135h131l94 -135h-122l-46 88z" />
    <glyph glyph-name="Atilde" unicode="&#xc3;" horiz-adv-x="801" 
d="M595 709l184 -709h-164l-40 152h-301l-87 -152h-165l408 709h165zM539 290l-57 223l-129 -223h186zM610 854q13 0 28 5.5t29 13.5t25 16t16 14l36 -54q-3 -3 -16.5 -18t-34 -31.5t-46.5 -30t-53 -13.5q-28 0 -44 12t-29 26.5t-25.5 26.5t-32.5 12q-25 0 -50 -14t-43 -34
q-17 15 -26 23t-14 12t-6 6q3 4 15 21t32 36t47.5 34t60.5 15q30 0 49.5 -12t33.5 -27t24.5 -27t23.5 -12z" />
    <glyph glyph-name="Adieresis" unicode="&#xc4;" horiz-adv-x="783" 
d="M595 709l184 -709h-164l-40 152h-301l-87 -152h-165l408 709h165zM539 290l-57 223l-129 -223h186zM656 897q32 0 50.5 -22t13.5 -54t-30.5 -54.5t-57.5 -22.5q-16 0 -29 6t-21.5 16.5t-12.5 24.5t-2 30q5 32 31 54t58 22zM414 897q32 0 50.5 -22t13.5 -54t-30.5 -54.5
t-57.5 -22.5q-16 0 -29 6t-21.5 16.5t-12.5 24.5t-2 30q5 32 31 54t58 22z" />
    <glyph glyph-name="Aring" unicode="&#xc5;" horiz-adv-x="801" 
d="M537 867q25 0 45 -9.5t33.5 -25.5t19.5 -37.5t2 -46.5q-3 -20 -12 -38t-22 -33l176 -677h-164l-40 152h-301l-87 -152h-165l389 676q-18 30 -12 72q4 25 16.5 46.5t31 37.5t42 25.5t48.5 9.5zM539 290l-57 223l-129 -223h186zM512 709q16 0 29 11.5t15 27.5t-7 27t-25 11
q-17 0 -30 -11t-15 -27t7 -27.5t26 -11.5z" />
    <glyph glyph-name="AE" unicode="&#xc6;" horiz-adv-x="978" 
d="M511 152h-233l-87 -152h-165l408 709h608l-22 -138h-291l-20 -128h256l-22 -138h-256l-27 -168h291l-21 -137h-443zM532 290l45 281h-56l-164 -281h175z" />
    <glyph glyph-name="Ccedilla" unicode="&#xc7;" horiz-adv-x="688" 
d="M347 -44q24 0 41 -8t27.5 -20.5t14.5 -29t1 -33.5q-3 -21 -15.5 -38t-30.5 -28.5t-40 -17.5t-46 -6q-31 0 -49 5q-10 2 -17 5l16 50q7 0 13 -0.5t14 -0.5q22 0 39.5 8t19.5 25q5 31 -33 31q-8 0 -17.5 -2t-17.5 -7l-26 28l65 76q-59 12 -106 44.5t-77 80.5t-41.5 108.5
t-0.5 127.5q12 75 49.5 141t92.5 116t123.5 79t140.5 29q67 0 123.5 -25t105.5 -83l-105 -107q-35 39 -70.5 52.5t-76.5 13.5t-80 -17t-70.5 -46t-53.5 -68.5t-29 -84.5t2 -84t31.5 -68.5t56 -46.5t74.5 -17q48 0 98 22t105 74l83 -93q-67 -72 -145 -110.5t-153 -42.5
l-36 -32v0z" />
    <glyph glyph-name="Egrave" unicode="&#xc8;" horiz-adv-x="539" 
d="M160 709h443l-22 -138h-291l-20 -128h256l-22 -138h-256l-27 -168h291l-21 -137h-443zM485 935l-14 -179h-102l-35 179h151z" />
    <glyph glyph-name="Eacute" unicode="&#xc9;" horiz-adv-x="539" 
d="M160 709h443l-22 -138h-291l-20 -128h256l-22 -138h-256l-27 -168h291l-21 -137h-443zM499 935l-91 -179h-102l42 179h151z" />
    <glyph glyph-name="Ecircumflex" unicode="&#xca;" horiz-adv-x="539" 
d="M160 709h443l-22 -138h-291l-20 -128h256l-22 -138h-256l-27 -168h291l-21 -137h-443zM327 756h-121l143 135h131l94 -135h-122l-46 88z" />
    <glyph glyph-name="Edieresis" unicode="&#xcb;" horiz-adv-x="539" 
d="M160 709h443l-22 -138h-291l-20 -128h256l-22 -138h-256l-27 -168h291l-21 -137h-443zM534 909q32 0 50.5 -22t13.5 -54t-30.5 -54.5t-57.5 -22.5q-16 0 -29 6t-21.5 16.5t-12.5 24.5t-2 30q5 32 31 54t58 22zM292 909q32 0 50.5 -22t13.5 -54t-30.5 -54.5t-57.5 -22.5
q-16 0 -29 6t-21.5 16.5t-12.5 24.5t-2 30q5 32 31 54t58 22z" />
    <glyph glyph-name="Igrave" unicode="&#xcc;" horiz-adv-x="351" 
d="M417 709l-20 -128h-53l-72 -454h53l-20 -127h-258l20 127h53l72 454h-53l20 128h258zM362 935l-14 -179h-102l-35 179h151z" />
    <glyph glyph-name="Iacute" unicode="&#xcd;" horiz-adv-x="351" 
d="M417 709l-20 -128h-53l-72 -454h53l-20 -127h-258l20 127h53l72 454h-53l20 128h258zM442 935l-91 -179h-102l42 179h151z" />
    <glyph glyph-name="Icircumflex" unicode="&#xce;" horiz-adv-x="351" 
d="M417 709l-20 -128h-53l-72 -454h53l-20 -127h-258l20 127h53l72 454h-53l20 128h258zM233 756h-121l143 135h131l94 -135h-122l-46 88z" />
    <glyph glyph-name="Idieresis" unicode="&#xcf;" horiz-adv-x="351" 
d="M417 709l-20 -128h-53l-72 -454h53l-20 -127h-258l20 127h53l72 454h-53l20 128h258zM444 909q32 0 50.5 -22t13.5 -54t-30.5 -54.5t-57.5 -22.5q-16 0 -29 6t-21.5 16.5t-12.5 24.5t-2 30q5 32 31 54t58 22zM202 909q32 0 50.5 -22t13.5 -54t-30.5 -54.5t-57.5 -22.5
q-16 0 -29 6t-21.5 16.5t-12.5 24.5t-2 30q5 32 31 54t58 22z" />
    <glyph glyph-name="Ntilde" unicode="&#xd1;" horiz-adv-x="730" 
d="M644 709h151l-112 -709h-144l-268 463l-73 -463h-151l112 709h142l269 -466zM574 854q13 0 28 5.5t29 13.5t25 16t16 14l36 -54q-3 -3 -16.5 -18t-34 -31.5t-46.5 -30t-53 -13.5q-28 0 -44 12t-29 26.5t-25.5 26.5t-32.5 12q-25 0 -50 -14t-43 -34q-17 15 -26 23t-14 12
t-6 6q3 4 15 21t32 36t47.5 34t60.5 15q30 0 49.5 -12t33.5 -27t24.5 -27t23.5 -12z" />
    <glyph glyph-name="Ograve" unicode="&#xd2;" horiz-adv-x="765" 
d="M495 719q72 0 131.5 -29t99 -79t57 -116t5.5 -141q-12 -74 -50.5 -141t-94 -117t-124 -79.5t-140.5 -29.5t-131 29.5t-98.5 79.5t-56 117t-4.5 141q12 75 49.5 141t92.5 116t123.5 79t140.5 29zM403 138q41 0 80 17t70.5 46.5t53.5 68.5t29 84t-2 84.5t-31.5 69t-56 46.5
t-74.5 17t-79.5 -17t-70 -46.5t-53.5 -69t-29 -84.5t2 -84t31.5 -68.5t55.5 -46.5t74 -17zM598 935l-14 -179h-102l-35 179h151z" />
    <glyph glyph-name="Oacute" unicode="&#xd3;" horiz-adv-x="765" 
d="M495 719q72 0 131.5 -29t99 -79t57 -116t5.5 -141q-12 -74 -50.5 -141t-94 -117t-124 -79.5t-140.5 -29.5t-131 29.5t-98.5 79.5t-56 117t-4.5 141q12 75 49.5 141t92.5 116t123.5 79t140.5 29zM403 138q41 0 80 17t70.5 46.5t53.5 68.5t29 84t-2 84.5t-31.5 69t-56 46.5
t-74.5 17t-79.5 -17t-70 -46.5t-53.5 -69t-29 -84.5t2 -84t31.5 -68.5t55.5 -46.5t74 -17zM612 935l-91 -179h-102l42 179h151z" />
    <glyph glyph-name="Ocircumflex" unicode="&#xd4;" horiz-adv-x="765" 
d="M495 719q72 0 131.5 -29t99 -79t57 -116t5.5 -141q-12 -74 -50.5 -141t-94 -117t-124 -79.5t-140.5 -29.5t-131 29.5t-98.5 79.5t-56 117t-4.5 141q12 75 49.5 141t92.5 116t123.5 79t140.5 29zM403 138q41 0 80 17t70.5 46.5t53.5 68.5t29 84t-2 84.5t-31.5 69t-56 46.5
t-74.5 17t-79.5 -17t-70 -46.5t-53.5 -69t-29 -84.5t2 -84t31.5 -68.5t55.5 -46.5t74 -17zM440 756h-121l143 135h131l94 -135h-122l-46 88z" />
    <glyph glyph-name="Otilde" unicode="&#xd5;" horiz-adv-x="765" 
d="M495 719q72 0 131.5 -29t99 -79t57 -116t5.5 -141q-12 -74 -50.5 -141t-94 -117t-124 -79.5t-140.5 -29.5t-131 29.5t-98.5 79.5t-56 117t-4.5 141q12 75 49.5 141t92.5 116t123.5 79t140.5 29zM403 138q41 0 80 17t70.5 46.5t53.5 68.5t29 84t-2 84.5t-31.5 69t-56 46.5
t-74.5 17t-79.5 -17t-70 -46.5t-53.5 -69t-29 -84.5t2 -84t31.5 -68.5t55.5 -46.5t74 -17zM592 854q13 0 28 5.5t29 13.5t25 16t16 14l36 -54q-3 -3 -16.5 -18t-34 -31.5t-46.5 -30t-53 -13.5q-28 0 -44 12t-29 26.5t-25.5 26.5t-32.5 12q-25 0 -50 -14t-43 -34
q-17 15 -26 23t-14 12t-6 6q3 4 15 21t32 36t47.5 34t60.5 15q30 0 49.5 -12t33.5 -27t24.5 -27t23.5 -12z" />
    <glyph glyph-name="Odieresis" unicode="&#xd6;" horiz-adv-x="781" 
d="M495 719q72 0 131.5 -29t99 -79t57 -116t5.5 -141q-12 -74 -50.5 -141t-94 -117t-124 -79.5t-140.5 -29.5t-131 29.5t-98.5 79.5t-56 117t-4.5 141q12 75 49.5 141t92.5 116t123.5 79t140.5 29zM403 138q41 0 80 17t70.5 46.5t53.5 68.5t29 84t-2 84.5t-31.5 69t-56 46.5
t-74.5 17t-79.5 -17t-70 -46.5t-53.5 -69t-29 -84.5t2 -84t31.5 -68.5t55.5 -46.5t74 -17zM648 909q32 0 50.5 -22t13.5 -54t-30.5 -54.5t-57.5 -22.5q-16 0 -29 6t-21.5 16.5t-12.5 24.5t-2 30q5 32 31 54t58 22zM406 909q32 0 50.5 -22t13.5 -54t-30.5 -54.5t-57.5 -22.5
q-16 0 -29 6t-21.5 16.5t-12.5 24.5t-2 30q5 32 31 54t58 22z" />
    <glyph glyph-name="Oslash" unicode="&#xd8;" horiz-adv-x="759" 
d="M756 695l-51 -64q49 -51 71 -123t9 -154q-12 -74 -50.5 -141t-94 -117t-124 -79.5t-140.5 -29.5q-41 0 -77 9.5t-68 26.5l-44 -57l-72 50l48 61q-48 51 -69.5 123t-7.5 154q12 75 49.5 141t92.5 116t123.5 79t140.5 29q40 0 76.5 -9.5t68.5 -26.5l47 61zM237 354
q-7 -42 1 -79.5t27 -66.5l273 348q-16 7 -33 11t-36 4q-41 0 -79.5 -17t-70 -46.5t-53.5 -69t-29 -84.5zM400 138q41 0 80 17t70.5 46.5t53.5 68.5t29 84q6 42 -1.5 79.5t-27.5 66.5l-272 -348q31 -14 68 -14z" />
    <glyph glyph-name="Ugrave" unicode="&#xd9;" horiz-adv-x="640" 
d="M493 286q2 13 6 38.5t9 57.5t11 69t12 73q13 85 29 185h151q-18 -113 -33 -206q-6 -40 -12.5 -79.5t-12 -73.5t-9.5 -59t-5 -35q-8 -53 -38 -102t-73.5 -86t-98 -59t-112.5 -22q-57 0 -104 22t-79 59t-46 86t-6 102q2 11 6 36.5t9.5 59.5t12 73.5t12.5 79.5q15 93 32 204
h151q-16 -104 -30 -190l-12 -74t-11 -68.5t-9 -55.5t-5 -35q-5 -30 0.5 -56.5t19.5 -47t35.5 -32.5t47.5 -12q27 0 52 12t45.5 32.5t35 47t19.5 56.5zM535 935l-14 -179h-102l-35 179h151z" />
    <glyph glyph-name="Uacute" unicode="&#xda;" horiz-adv-x="640" 
d="M493 286q2 13 6 38.5t9 57.5t11 69t12 73q13 85 29 185h151q-18 -113 -33 -206q-6 -40 -12.5 -79.5t-12 -73.5t-9.5 -59t-5 -35q-8 -53 -38 -102t-73.5 -86t-98 -59t-112.5 -22q-57 0 -104 22t-79 59t-46 86t-6 102q2 11 6 36.5t9.5 59.5t12 73.5t12.5 79.5q15 93 32 204
h151q-16 -104 -30 -190l-12 -74t-11 -68.5t-9 -55.5t-5 -35q-5 -30 0.5 -56.5t19.5 -47t35.5 -32.5t47.5 -12q27 0 52 12t45.5 32.5t35 47t19.5 56.5zM549 935l-91 -179h-102l42 179h151z" />
    <glyph glyph-name="Ucircumflex" unicode="&#xdb;" horiz-adv-x="640" 
d="M493 286q2 13 6 38.5t9 57.5t11 69t12 73q13 85 29 185h151q-18 -113 -33 -206q-6 -40 -12.5 -79.5t-12 -73.5t-9.5 -59t-5 -35q-8 -53 -38 -102t-73.5 -86t-98 -59t-112.5 -22q-57 0 -104 22t-79 59t-46 86t-6 102q2 11 6 36.5t9.5 59.5t12 73.5t12.5 79.5q15 93 32 204
h151q-16 -104 -30 -190l-12 -74t-11 -68.5t-9 -55.5t-5 -35q-5 -30 0.5 -56.5t19.5 -47t35.5 -32.5t47.5 -12q27 0 52 12t45.5 32.5t35 47t19.5 56.5zM377 756h-121l143 135h131l94 -135h-122l-46 88z" />
    <glyph glyph-name="Udieresis" unicode="&#xdc;" horiz-adv-x="688" 
d="M517 286q2 13 6 38.5t9 57.5t11 69t12 73q13 85 29 185h151q-18 -113 -33 -206q-6 -40 -12.5 -79.5t-12 -73.5t-9.5 -59t-5 -35q-8 -53 -38 -102t-73.5 -86t-98 -59t-112.5 -22q-57 0 -104 22t-79 59t-46 86t-6 102q2 11 6 36.5t9.5 59.5t12 73.5t12.5 79.5q15 93 32 204
h151q-16 -104 -30 -190l-12 -74t-11 -68.5t-9 -55.5t-5 -35q-5 -30 0.5 -56.5t19.5 -47t35.5 -32.5t47.5 -12q27 0 52 12t45.5 32.5t35 47t19.5 56.5zM609 909q32 0 50.5 -22t13.5 -54t-30.5 -54.5t-57.5 -22.5q-16 0 -29 6t-21.5 16.5t-12.5 24.5t-2 30q5 32 31 54t58 22z
M367 909q32 0 50.5 -22t13.5 -54t-30.5 -54.5t-57.5 -22.5q-16 0 -29 6t-21.5 16.5t-12.5 24.5t-2 30q5 32 31 54t58 22z" />
    <glyph glyph-name="germandbls" unicode="&#xdf;" horiz-adv-x="572" 
d="M481 351q-1 -8 13.5 -19.5t30.5 -32t27 -51.5t4 -79q-6 -38 -24 -70.5t-43.5 -56.5t-55 -38t-59.5 -14h-109l21 130h31q44 0 65.5 21.5t26.5 53.5q3 16 -1 31.5t-14.5 27.5t-27 19t-38.5 7l16 104q18 3 35 13t30.5 24.5t23 32.5t12.5 37q3 21 -1 37.5t-14 28.5t-23.5 18
t-28.5 6q-41 0 -66.5 -22.5t-35.5 -81.5q-3 -22 -9.5 -60t-14 -85.5t-16 -101.5t-16.5 -106q-20 -123 -43 -265h-139q4 20 16 98q5 33 13 82.5t19 120t26 163.5t34 213q8 38 32 71t57 57.5t71.5 38.5t77.5 14h20q40 0 75.5 -15t60 -42.5t36 -65.5t4.5 -84q-7 -42 -22.5 -69
t-32 -43.5t-30 -27t-14.5 -19.5z" />
    <glyph glyph-name="agrave" unicode="&#xe0;" horiz-adv-x="608" 
d="M642 496l-78 -496h-119l-6 53q-35 -39 -77.5 -52t-86.5 -13q-53 0 -94.5 20.5t-68.5 56t-38.5 83t-2.5 101.5t35 101.5t64 83t86 56t101 20.5q48 0 85.5 -15t58.5 -48l22 49h119zM465 247q6 39 -0.5 65.5t-21.5 43t-37 24t-49 7.5t-52.5 -11t-46 -29.5t-35 -44
t-18.5 -53.5q-5 -29 1.5 -54t21 -43.5t36.5 -29.5t49 -11t51.5 8.5t45 25t35 42t20.5 60.5zM443 710l-14 -179h-102l-35 179h151z" />
    <glyph glyph-name="aacute" unicode="&#xe1;" horiz-adv-x="608" 
d="M642 496l-78 -496h-119l-6 53q-35 -39 -77.5 -52t-86.5 -13q-53 0 -94.5 20.5t-68.5 56t-38.5 83t-2.5 101.5t35 101.5t64 83t86 56t101 20.5q48 0 85.5 -15t58.5 -48l22 49h119zM465 247q6 39 -0.5 65.5t-21.5 43t-37 24t-49 7.5t-52.5 -11t-46 -29.5t-35 -44
t-18.5 -53.5q-5 -29 1.5 -54t21 -43.5t36.5 -29.5t49 -11t51.5 8.5t45 25t35 42t20.5 60.5zM505 710l-91 -179h-102l42 179h151z" />
    <glyph glyph-name="acircumflex" unicode="&#xe2;" horiz-adv-x="608" 
d="M642 496l-78 -496h-119l-6 53q-35 -39 -77.5 -52t-86.5 -13q-53 0 -94.5 20.5t-68.5 56t-38.5 83t-2.5 101.5t35 101.5t64 83t86 56t101 20.5q48 0 85.5 -15t58.5 -48l22 49h119zM465 247q6 39 -0.5 65.5t-21.5 43t-37 24t-49 7.5t-52.5 -11t-46 -29.5t-35 -44
t-18.5 -53.5q-5 -29 1.5 -54t21 -43.5t36.5 -29.5t49 -11t51.5 8.5t45 25t35 42t20.5 60.5zM341 575h-121l143 135h131l94 -135h-122l-46 88z" />
    <glyph glyph-name="atilde" unicode="&#xe3;" horiz-adv-x="608" 
d="M642 496l-78 -496h-119l-6 53q-35 -39 -77.5 -52t-86.5 -13q-53 0 -94.5 20.5t-68.5 56t-38.5 83t-2.5 101.5t35 101.5t64 83t86 56t101 20.5q48 0 85.5 -15t58.5 -48l22 49h119zM465 247q6 39 -0.5 65.5t-21.5 43t-37 24t-49 7.5t-52.5 -11t-46 -29.5t-35 -44
t-18.5 -53.5q-5 -29 1.5 -54t21 -43.5t36.5 -29.5t49 -11t51.5 8.5t45 25t35 42t20.5 60.5zM489 659q13 0 28 5.5t29 13.5t25 16t16 14l36 -54q-3 -3 -16.5 -18t-34 -31.5t-46.5 -30t-53 -13.5q-28 0 -44 12t-29 26.5t-25.5 26.5t-32.5 12q-25 0 -50 -14t-43 -34
q-17 15 -26 23t-14 12t-6 6q3 4 15 21t32 36t47.5 34t60.5 15q30 0 49.5 -12t33.5 -27t24.5 -27t23.5 -12z" />
    <glyph glyph-name="adieresis" unicode="&#xe4;" horiz-adv-x="608" 
d="M642 496l-78 -496h-119l-6 53q-35 -39 -77.5 -52t-86.5 -13q-53 0 -94.5 20.5t-68.5 56t-38.5 83t-2.5 101.5t35 101.5t64 83t86 56t101 20.5q48 0 85.5 -15t58.5 -48l22 49h119zM465 247q6 39 -0.5 65.5t-21.5 43t-37 24t-49 7.5t-52.5 -11t-46 -29.5t-35 -44
t-18.5 -53.5q-5 -29 1.5 -54t21 -43.5t36.5 -29.5t49 -11t51.5 8.5t45 25t35 42t20.5 60.5zM543 709q32 0 50.5 -22t13.5 -54t-30.5 -54.5t-57.5 -22.5q-16 0 -29 6t-21.5 16.5t-12.5 24.5t-2 30q5 32 31 54t58 22zM301 709q32 0 50.5 -22t13.5 -54t-30.5 -54.5t-57.5 -22.5
q-16 0 -29 6t-21.5 16.5t-12.5 24.5t-2 30q5 32 31 54t58 22z" />
    <glyph glyph-name="aring" unicode="&#xe5;" horiz-adv-x="608" 
d="M642 496l-78 -496h-119l-6 53q-35 -39 -77.5 -52t-86.5 -13q-53 0 -94.5 20.5t-68.5 56t-38.5 83t-2.5 101.5t35 101.5t64 83t86 56t101 20.5q48 0 85.5 -15t58.5 -48l22 49h119zM465 247q6 39 -0.5 65.5t-21.5 43t-37 24t-49 7.5t-52.5 -11t-46 -29.5t-35 -44
t-18.5 -53.5q-5 -29 1.5 -54t21 -43.5t36.5 -29.5t49 -11t51.5 8.5t45 25t35 42t20.5 60.5zM438 801q25 0 45 -9.5t34 -25.5t20 -37.5t2 -46.5t-17 -46.5t-31.5 -37.5t-41.5 -25.5t-48 -9.5t-45.5 9.5t-34 25.5t-19 37.5t-1.5 46.5t16.5 46.5t31 37.5t41.5 25.5t48 9.5z
M413 643q16 0 29 11.5t16 27.5q2 16 -7 27t-25 11q-17 0 -30 -11t-15 -27q-3 -16 6 -27.5t26 -11.5z" />
    <glyph glyph-name="ae" unicode="&#xe6;" horiz-adv-x="897" 
d="M693 514q56 0 98.5 -22.5t69.5 -59t37.5 -84t2.5 -97.5q-2 -16 -7 -32t-11 -32h-354q14 -34 47.5 -57.5t76.5 -23.5t77 7t64 18l33 -85q-42 -26 -91.5 -40t-103.5 -14q-62 0 -111.5 22.5t-81.5 60.5q-30 -27 -54 -43t-47 -24t-47.5 -11t-55.5 -4q-39 -1 -71 5t-55.5 20.5
t-35.5 39t-10 60.5t18 66.5t42.5 53t60 37t71.5 18.5l49 5q34 3 54.5 7t31 9.5t14 12t5.5 14.5q4 27 -16 42.5t-65 15.5q-35 0 -62 -14.5t-62 -45.5l-83 56q60 66 118.5 92.5t121.5 26.5q17 0 38 -3t42 -10.5t40 -19t34 -29.5q38 29 84 45.5t94 16.5zM771 294q-5 43 -32 70
t-66 27q-40 0 -76.5 -27t-55.5 -70h230zM389 213q-21 -2 -41 -5q-17 -2 -37 -4t-37 -4q-38 -5 -54.5 -23.5t-16.5 -33.5q0 -20 16 -32.5t49 -10.5q13 1 31.5 5.5t36.5 15t31.5 26.5t17.5 40z" />
    <glyph glyph-name="ccedilla" unicode="&#xe7;" horiz-adv-x="525" 
d="M278 -44q24 0 41 -8t27.5 -20.5t14.5 -29t1 -33.5q-3 -21 -15.5 -38t-30.5 -28.5t-40 -17.5t-46 -6q-31 0 -49 5q-10 2 -17 5l16 50q7 0 13 -0.5t14 -0.5q22 0 39.5 8t19.5 25q5 31 -33 31q-8 0 -17.5 -2t-17.5 -7l-26 28l69 80q-41 10 -72.5 34t-52 57t-28.5 74t-1 87
q9 54 36.5 101.5t68.5 83t91 56t104 20.5q61 0 109 -26t77 -71l-108 -74q-24 27 -46 37.5t-51 10.5q-25 0 -49 -11.5t-43.5 -31t-33 -45.5t-18.5 -56t0.5 -54.5t19.5 -42t34.5 -27.5t45.5 -10q31 0 62.5 14.5t56.5 40.5l72 -84q-40 -41 -92 -65.5t-108 -26.5l-37 -32v0z" />
    <glyph glyph-name="egrave" unicode="&#xe8;" horiz-adv-x="595" 
d="M370 510q56 0 98.5 -22.5t69.5 -59t38 -84t3 -97.5q-3 -16 -7.5 -32t-11.5 -32h-354q14 -34 48 -57.5t77 -23.5t76.5 7t64.5 18l32 -85q-41 -26 -90.5 -40t-103.5 -14q-59 0 -107 20.5t-80.5 55.5t-47 83t-5.5 102q8 53 36 100.5t68.5 83t91 56.5t104.5 21zM448 290
q-5 43 -31.5 70t-65.5 27q-40 0 -77 -27t-56 -70h230zM478 710l-14 -179h-102l-35 179h151z" />
    <glyph glyph-name="eacute" unicode="&#xe9;" horiz-adv-x="595" 
d="M370 510q56 0 98.5 -22.5t69.5 -59t38 -84t3 -97.5q-3 -16 -7.5 -32t-11.5 -32h-354q14 -34 48 -57.5t77 -23.5t76.5 7t64.5 18l32 -85q-41 -26 -90.5 -40t-103.5 -14q-59 0 -107 20.5t-80.5 55.5t-47 83t-5.5 102q8 53 36 100.5t68.5 83t91 56.5t104.5 21zM448 290
q-5 43 -31.5 70t-65.5 27q-40 0 -77 -27t-56 -70h230zM492 710l-91 -179h-102l42 179h151z" />
    <glyph glyph-name="ecircumflex" unicode="&#xea;" horiz-adv-x="595" 
d="M370 510q56 0 98.5 -22.5t69.5 -59t38 -84t3 -97.5q-3 -16 -7.5 -32t-11.5 -32h-354q14 -34 48 -57.5t77 -23.5t76.5 7t64.5 18l32 -85q-41 -26 -90.5 -40t-103.5 -14q-59 0 -107 20.5t-80.5 55.5t-47 83t-5.5 102q8 53 36 100.5t68.5 83t91 56.5t104.5 21zM448 290
q-5 43 -31.5 70t-65.5 27q-40 0 -77 -27t-56 -70h230zM326 573h-121l143 135h131l94 -135h-122l-46 88z" />
    <glyph glyph-name="edieresis" unicode="&#xeb;" horiz-adv-x="595" 
d="M370 510q56 0 98.5 -22.5t69.5 -59t38 -84t3 -97.5q-3 -16 -7.5 -32t-11.5 -32h-354q14 -34 48 -57.5t77 -23.5t76.5 7t64.5 18l32 -85q-41 -26 -90.5 -40t-103.5 -14q-59 0 -107 20.5t-80.5 55.5t-47 83t-5.5 102q8 53 36 100.5t68.5 83t91 56.5t104.5 21zM448 290
q-5 43 -31.5 70t-65.5 27q-40 0 -77 -27t-56 -70h230zM530 709q32 0 50.5 -22t13.5 -54t-30.5 -54.5t-57.5 -22.5q-16 0 -29 6t-21.5 16.5t-12.5 24.5t-2 30q5 32 31 54t58 22zM288 709q32 0 50.5 -22t13.5 -54t-30.5 -54.5t-57.5 -22.5q-16 0 -29 6t-21.5 16.5t-12.5 24.5
t-2 30q5 32 31 54t58 22z" />
    <glyph glyph-name="igrave" unicode="&#xec;" horiz-adv-x="262" 
d="M200 0h-138l78 496h138zM280 710l-14 -179h-102l-35 179h151z" />
    <glyph glyph-name="iacute" unicode="&#xed;" horiz-adv-x="262" 
d="M200 0h-138l78 496h138zM358 710l-91 -179h-102l42 179h151z" />
    <glyph glyph-name="icircumflex" unicode="&#xee;" horiz-adv-x="262" 
d="M200 0h-138l78 496h138zM159 573h-121l143 135h131l94 -135h-122l-46 88z" />
    <glyph glyph-name="idieresis" unicode="&#xef;" horiz-adv-x="262" 
d="M200 0h-138l78 496h138zM365 708q32 0 50.5 -22t13.5 -54t-30.5 -54.5t-57.5 -22.5q-16 0 -29 6t-21.5 16.5t-12.5 24.5t-2 30q5 32 31 54t58 22zM123 708q32 0 50.5 -22t13.5 -54t-30.5 -54.5t-57.5 -22.5q-16 0 -29 6t-21.5 16.5t-12.5 24.5t-2 30q5 32 31 54t58 22z
" />
    <glyph glyph-name="ntilde" unicode="&#xf1;" horiz-adv-x="541" 
d="M381 496q28 0 61 -8t59.5 -30t40.5 -61t4 -101l-46 -296h-139l46 291q3 23 -2 39t-15.5 25.5t-26 14t-31.5 4.5q-13 0 -29 -4.5t-31 -14.5t-27 -26t-15 -38l-46 -291h-138l78 496h118l14 -38q27 17 58.5 27.5t66.5 10.5zM449 659q13 0 28 5.5t29 13.5t25 16t16 14l36 -54
q-3 -3 -16.5 -18t-34 -31.5t-46.5 -30t-53 -13.5q-28 0 -44 12t-29 26.5t-25.5 26.5t-32.5 12q-25 0 -50 -14t-43 -34q-17 15 -26 23t-14 12t-6 6q3 4 15 21t32 36t47.5 34t60.5 15q30 0 49.5 -12t33.5 -27t24.5 -27t23.5 -12z" />
    <glyph glyph-name="ograve" unicode="&#xf2;" horiz-adv-x="579" 
d="M370 510q53 0 97 -20.5t73.5 -56t42.5 -83t4 -101.5t-36.5 -101.5t-68 -83t-91 -56t-103.5 -20.5q-54 0 -98 20.5t-73.5 56t-42.5 83t-4 101.5t36.5 101.5t68.5 83t91 56t104 20.5zM307 109q25 0 48 10t42 27.5t32.5 42t18.5 54.5t-0.5 56t-18.5 45.5t-33 31t-45 11.5
t-49 -11.5t-43.5 -31t-33 -45.5t-18.5 -56t0.5 -54.5t19.5 -42t34.5 -27.5t45.5 -10zM470 710l-14 -179h-102l-35 179h151z" />
    <glyph glyph-name="oacute" unicode="&#xf3;" horiz-adv-x="579" 
d="M370 510q53 0 97 -20.5t73.5 -56t42.5 -83t4 -101.5t-36.5 -101.5t-68 -83t-91 -56t-103.5 -20.5q-54 0 -98 20.5t-73.5 56t-42.5 83t-4 101.5t36.5 101.5t68.5 83t91 56t104 20.5zM307 109q25 0 48 10t42 27.5t32.5 42t18.5 54.5t-0.5 56t-18.5 45.5t-33 31t-45 11.5
t-49 -11.5t-43.5 -31t-33 -45.5t-18.5 -56t0.5 -54.5t19.5 -42t34.5 -27.5t45.5 -10zM484 710l-91 -179h-102l42 179h151z" />
    <glyph glyph-name="ocircumflex" unicode="&#xf4;" horiz-adv-x="579" 
d="M370 510q53 0 97 -20.5t73.5 -56t42.5 -83t4 -101.5t-36.5 -101.5t-68 -83t-91 -56t-103.5 -20.5q-54 0 -98 20.5t-73.5 56t-42.5 83t-4 101.5t36.5 101.5t68.5 83t91 56t104 20.5zM307 109q25 0 48 10t42 27.5t32.5 42t18.5 54.5t-0.5 56t-18.5 45.5t-33 31t-45 11.5
t-49 -11.5t-43.5 -31t-33 -45.5t-18.5 -56t0.5 -54.5t19.5 -42t34.5 -27.5t45.5 -10zM318 574h-121l143 135h131l94 -135h-122l-46 88z" />
    <glyph glyph-name="otilde" unicode="&#xf5;" horiz-adv-x="579" 
d="M370 510q53 0 97 -20.5t73.5 -56t42.5 -83t4 -101.5t-36.5 -101.5t-68 -83t-91 -56t-103.5 -20.5q-54 0 -98 20.5t-73.5 56t-42.5 83t-4 101.5t36.5 101.5t68.5 83t91 56t104 20.5zM307 109q25 0 48 10t42 27.5t32.5 42t18.5 54.5t-0.5 56t-18.5 45.5t-33 31t-45 11.5
t-49 -11.5t-43.5 -31t-33 -45.5t-18.5 -56t0.5 -54.5t19.5 -42t34.5 -27.5t45.5 -10zM468 659q13 0 28 5.5t29 13.5t25 16t16 14l36 -54q-3 -3 -16.5 -18t-34 -31.5t-46.5 -30t-53 -13.5q-28 0 -44 12t-29 26.5t-25.5 26.5t-32.5 12q-25 0 -50 -14t-43 -34q-17 15 -26 23
t-14 12t-6 6q3 4 15 21t32 36t47.5 34t60.5 15q30 0 49.5 -12t33.5 -27t24.5 -27t23.5 -12z" />
    <glyph glyph-name="odieresis" unicode="&#xf6;" horiz-adv-x="599" 
d="M370 510q53 0 97 -20.5t73.5 -56t42.5 -83t4 -101.5t-36.5 -101.5t-68 -83t-91 -56t-103.5 -20.5q-54 0 -98 20.5t-73.5 56t-42.5 83t-4 101.5t36.5 101.5t68.5 83t91 56t104 20.5zM307 109q25 0 48 10t42 27.5t32.5 42t18.5 54.5t-0.5 56t-18.5 45.5t-33 31t-45 11.5
t-49 -11.5t-43.5 -31t-33 -45.5t-18.5 -56t0.5 -54.5t19.5 -42t34.5 -27.5t45.5 -10zM526 709q32 0 50.5 -22t13.5 -54t-30.5 -54.5t-57.5 -22.5q-16 0 -29 6t-21.5 16.5t-12.5 24.5t-2 30q5 32 31 54t58 22zM284 709q32 0 50.5 -22t13.5 -54t-30.5 -54.5t-57.5 -22.5
q-16 0 -29 6t-21.5 16.5t-12.5 24.5t-2 30q5 32 31 54t58 22z" />
    <glyph glyph-name="divide" unicode="&#xf7;" horiz-adv-x="522" 
d="M557 281l-15 -94h-503l15 94h503zM278 144q32 0 51 -22t14 -54q-2 -16 -10.5 -29.5t-20.5 -24t-27 -16.5t-31 -6q-32 0 -50.5 22t-13.5 54t30.5 54t57.5 22zM333 473q32 0 50.5 -22t13.5 -54t-30.5 -54.5t-57.5 -22.5t-51 22.5t-14 54.5t31 54t58 22z" />
    <glyph glyph-name="oslash" unicode="&#xf8;" horiz-adv-x="573" 
d="M588 510l-56 -72q32 -35 46 -84t5 -105q-9 -54 -36.5 -101.5t-68 -83t-91 -56t-103.5 -20.5q-49 0 -92 17l-43 -55l-72 50l43 55q-34 36 -48.5 86t-5.5 108q9 54 36.5 101.5t68.5 83t91 56t104 20.5q53 0 96 -20l55 69zM203 243q-3 -21 -2 -40t8 -34l168 213
q-8 2 -15 3.5t-15 1.5q-25 0 -49 -11.5t-43.5 -31t-33 -45.5t-18.5 -56zM303 109q25 0 48 10t42 27.5t32.5 42t18.5 54.5q3 21 1 39.5t-7 35.5l-162 -206q12 -3 27 -3z" />
    <glyph glyph-name="ugrave" unicode="&#xf9;" horiz-adv-x="543" 
d="M437 496h138l-78 -496h-118l-14 38q-27 -17 -59 -27.5t-67 -10.5q-27 0 -60 8t-60 30t-41.5 61t-4.5 101l47 296h139l-46 -291q-4 -23 1 -39t16 -25.5t26.5 -14t32.5 -4.5q13 0 29 4.5t31 14.5t27 26t15 38zM452 710l-14 -179h-102l-35 179h151z" />
    <glyph glyph-name="uacute" unicode="&#xfa;" horiz-adv-x="543" 
d="M437 496h138l-78 -496h-118l-14 38q-27 -17 -59 -27.5t-67 -10.5q-27 0 -60 8t-60 30t-41.5 61t-4.5 101l47 296h139l-46 -291q-4 -23 1 -39t16 -25.5t26.5 -14t32.5 -4.5q13 0 29 4.5t31 14.5t27 26t15 38zM466 710l-91 -179h-102l42 179h151z" />
    <glyph glyph-name="ucircumflex" unicode="&#xfb;" horiz-adv-x="543" 
d="M437 496h138l-78 -496h-118l-14 38q-27 -17 -59 -27.5t-67 -10.5q-27 0 -60 8t-60 30t-41.5 61t-4.5 101l47 296h139l-46 -291q-4 -23 1 -39t16 -25.5t26.5 -14t32.5 -4.5q13 0 29 4.5t31 14.5t27 26t15 38zM300 573h-121l143 135h131l94 -135h-122l-46 88z" />
    <glyph glyph-name="udieresis" unicode="&#xfc;" horiz-adv-x="581" 
d="M437 496h138l-78 -496h-118l-14 38q-27 -17 -59 -27.5t-67 -10.5q-27 0 -60 8t-60 30t-41.5 61t-4.5 101l47 296h139l-46 -291q-4 -23 1 -39t16 -25.5t26.5 -14t32.5 -4.5q13 0 29 4.5t31 14.5t27 26t15 38zM506 710q32 0 50.5 -22t13.5 -54t-30.5 -54.5t-57.5 -22.5
q-16 0 -29 6t-21.5 16.5t-12.5 24.5t-2 30q5 32 31 54t58 22zM264 710q32 0 50.5 -22t13.5 -54t-30.5 -54.5t-57.5 -22.5q-16 0 -29 6t-21.5 16.5t-12.5 24.5t-2 30q5 32 31 54t58 22z" />
    <glyph glyph-name="ydieresis" unicode="&#xff;" horiz-adv-x="591" 
d="M506 496h151l-423 -694h-151l166 273l-143 421h154l88 -259zM537 709q32 0 50.5 -22t13.5 -54t-30.5 -54.5t-57.5 -22.5q-16 0 -29 6t-21.5 16.5t-12.5 24.5t-2 30q5 32 31 54t58 22zM295 709q32 0 50.5 -22t13.5 -54t-30.5 -54.5t-57.5 -22.5q-16 0 -29 6t-21.5 16.5
t-12.5 24.5t-2 30q5 32 31 54t58 22z" />
    <glyph glyph-name="Gbreve" unicode="&#x11e;" horiz-adv-x="724" 
d="M672 900q-5 -30 -20.5 -56t-38 -45.5t-51 -31t-58.5 -11.5t-54 11.5t-40.5 31t-24 45.5t-2.5 56h96q-3 -20 8.5 -34t31.5 -14t36.5 14t19.5 34h97zM461 401h268l-41 -260q-72 -76 -151.5 -115t-159.5 -39q-72 0 -131 29.5t-98.5 79.5t-56 116.5t-4.5 141.5t49.5 141
t92.5 116t123.5 79t140.5 29q68 0 124.5 -25t104.5 -83l-105 -107q-35 39 -70 52.5t-76 13.5q-42 0 -81 -17t-70.5 -46t-53.5 -68.5t-29 -84.5t2 -84t31.5 -68.5t56 -46.5t75.5 -17q37 0 76 13.5t81 44.5l12 77h-130z" />
    <glyph glyph-name="gbreve" unicode="&#x11f;" horiz-adv-x="616" 
d="M569 709q-5 -30 -20.5 -56t-38.5 -45.5t-51 -31t-58 -11.5t-54.5 11.5t-41 31t-23.5 45.5t-2 56h96q-3 -20 8.5 -34t31.5 -14t36.5 14t19.5 34h97zM512 496h118l-52 -328q-9 -57 -17.5 -101.5t-20.5 -80t-29.5 -63.5t-45.5 -52q-51 -43 -108 -59t-117 -16q-51 0 -94 12
t-76 33l21 129q14 -27 56 -44t93 -17q33 0 63.5 8.5t55 27.5t41.5 47.5t23 69.5l2 10q-33 -26 -73.5 -41.5t-85.5 -15.5q-50 0 -89.5 19.5t-65 53t-36 79t-2.5 96.5t33 96t61 78.5t81.5 53t95.5 19.5q47 0 83 -12.5t59 -39.5zM313 138q32 0 57 11.5t42.5 29.5t28.5 40t14 43
q4 23 0 45.5t-16 40t-33.5 28.5t-52.5 11q-26 0 -49.5 -10t-43 -27t-32.5 -39.5t-17 -48.5t2 -48.5t19.5 -39.5t34 -26.5t46.5 -9.5z" />
    <glyph glyph-name="Idotaccent" unicode="&#x130;" horiz-adv-x="387" 
d="M311 756q-32 0 -51 22t-14 54t31 54.5t58 22.5t50.5 -22.5t13.5 -54.5t-30.5 -54t-57.5 -22zM434 709l-20 -128h-53l-72 -454h53l-20 -127h-258l20 127h53l72 454h-53l20 128h258z" />
    <glyph glyph-name="dotlessi" unicode="&#x131;" horiz-adv-x="262" 
d="M200 0h-138l78 496h138z" />
    <glyph glyph-name="OE" unicode="&#x152;" horiz-adv-x="1005" 
d="M524 18q-71 -31 -144 -31q-72 0 -131 29.5t-98.5 79.5t-56 117t-4.5 141q12 75 49.5 141t92.5 116t123.5 79t140.5 29q74 0 134 -31l4 21h443l-22 -138h-291l-20 -128h256l-22 -138h-256l-27 -168h291l-21 -137h-443zM404 138q41 0 79 16.5t70 45.5l49 309
q-23 29 -55.5 45.5t-73.5 16.5t-79.5 -17t-70 -46.5t-53.5 -69t-29 -84.5t2 -84t31.5 -68.5t55.5 -46.5t74 -17z" />
    <glyph glyph-name="oe" unicode="&#x153;" horiz-adv-x="960" 
d="M754 510q56 0 98.5 -22.5t69.5 -59t38 -84t3 -97.5q-3 -16 -7.5 -32t-11.5 -32h-354q14 -34 48 -57.5t77 -23.5t76.5 7t64.5 18l32 -85q-41 -26 -90.5 -40t-103.5 -14q-63 0 -113.5 23t-83.5 63q-42 -40 -94.5 -63t-109.5 -23q-54 0 -98 20.5t-73.5 56t-42.5 83t-4 101.5
t36.5 101.5t68.5 83t91 56t104 20.5q56 0 101.5 -22.5t74.5 -61.5q42 39 94 61.5t109 22.5zM312 109q24 0 47 9.5t42 26.5t32.5 40.5t18.5 52.5l1 5q5 30 -0.5 56t-18.5 45.5t-33 31t-45 11.5t-49 -11.5t-43.5 -31t-33 -45.5t-18.5 -56t0.5 -54.5t19.5 -42t34.5 -27.5
t45.5 -10zM832 290q-5 43 -31.5 70t-65.5 27q-40 0 -77 -27t-56 -70h230z" />
    <glyph glyph-name="Scedilla" unicode="&#x15e;" horiz-adv-x="616" 
d="M298 -44q24 0 41 -8t27.5 -20.5t14.5 -29t1 -33.5q-3 -21 -15.5 -38t-30.5 -28.5t-40 -17.5t-46 -6q-31 0 -49 5q-10 2 -17 5l16 50q7 0 13 -0.5t14 -0.5q22 0 39.5 8t19.5 25q5 31 -33 31q-8 0 -17.5 -2t-17.5 -7l-26 28l63 73q-41 5 -75.5 19t-60.5 38q-50 42 -62 104
l151 65q-1 -10 3.5 -25t17.5 -29t35 -24t57 -10q45 0 75.5 16.5t43.5 38t7 42.5t-34 31q-38 14 -81 23.5t-83 24t-71.5 38.5t-46.5 67q-11 32 -7.5 67t18 68.5t39 63t55.5 51.5q42 29 90 44t99 16q51 0 95.5 -15t76.5 -44q32 -28 47 -63l-126 -78q-17 29 -45.5 46.5
t-67.5 17.5q-54 0 -87.5 -24t-39.5 -63q-3 -18 11.5 -32t39 -25t56 -19.5l63 -17t58.5 -17.5t44 -20q79 -51 62 -151q-7 -48 -36.5 -90.5t-77.5 -74.5q-36 -25 -77 -39.5t-85 -19.5l-38 -34v0z" />
    <glyph glyph-name="scedilla" unicode="&#x15f;" horiz-adv-x="465" 
d="M225 -44q24 0 41 -8t27.5 -20.5t14.5 -29t1 -33.5q-3 -21 -15.5 -38t-30.5 -28.5t-40 -17.5t-46 -6q-31 0 -49 5q-10 2 -17 5l16 50q7 0 13 -0.5t14 -0.5q22 0 39.5 8t19.5 25q5 31 -33 31q-8 0 -17.5 -2t-17.5 -7l-26 28l65 76q-48 9 -82 37t-43 66q24 11 54 24.5
t53 24.5q7 -15 24 -27.5t50 -12.5q21 0 35.5 6.5t23.5 15.5t12.5 18.5t0.5 16.5t-11 12t-18 8.5t-19 5.5t-14 3q-86 16 -117 50q-14 14 -20.5 30.5t-8.5 31.5t-0.5 27.5t2.5 18.5q5 33 24.5 63t50.5 53q28 20 61 31.5t68 11.5t64.5 -11.5t51.5 -31.5q17 -16 26.5 -36
t12.5 -42l-113 -36q-3 18 -20 29t-38 11t-36 -14t-17 -28q-3 -21 10 -28q8 -6 18.5 -9t19.5 -5q45 -8 75 -19.5t50 -27.5q49 -39 37 -111q-5 -35 -27 -65.5t-57 -53.5q-46 -30 -102 -38l-40 -36v0z" />
    <glyph glyph-name="Ydieresis" unicode="&#x178;" horiz-adv-x="693" 
d="M604 709h183l-313 -377l-52 -332h-151l52 332l-193 377h183l111 -218zM612 909q32 0 50.5 -22t13.5 -54t-30.5 -54.5t-57.5 -22.5q-16 0 -29 6t-21.5 16.5t-12.5 24.5t-2 30q5 32 31 54t58 22zM370 909q32 0 50.5 -22t13.5 -54t-30.5 -54.5t-57.5 -22.5q-16 0 -29 6
t-21.5 16.5t-12.5 24.5t-2 30q5 32 31 54t58 22z" />
    <glyph glyph-name="florin" unicode="&#x192;" horiz-adv-x="562" 
d="M83 -48q26 0 43.5 -15t21.5 -38q27 5 41.5 23t19.5 47l64 404h-65l11 73l73 50l11 72q8 52 29.5 89.5t51.5 62t66 36t74 11.5q22 0 46.5 -3.5t44.5 -13.5t31.5 -27t7.5 -44q-5 -32 -31 -54t-58 -22q-26 0 -43 14t-21 37q-49 -11 -58 -69l-14 -89h133l-19 -123h-133
l-62 -387q-8 -52 -29.5 -89.5t-51 -62t-65.5 -36t-74 -11.5q-22 0 -47 4t-45.5 13.5t-32.5 27t-7 44.5q5 32 30 54t57 22z" />
    <glyph glyph-name="circumflex" unicode="&#x2c6;" horiz-adv-x="833" 
d="M491 737h-121l143 135h131l94 -135h-122l-46 88z" />
    <glyph glyph-name="caron" unicode="&#x2c7;" horiz-adv-x="833" 
d="M638 871h121l-142 -135h-131l-95 135h122l47 -88z" />
    <glyph glyph-name="breve" unicode="&#x2d8;" horiz-adv-x="385" 
d="M478 894q-5 -30 -20.5 -56t-38 -45.5t-51 -31t-58.5 -11.5t-54 11.5t-40.5 31t-24 45.5t-2.5 56h96q-3 -20 8.5 -34t31.5 -14t37 14t20 34h96z" />
    <glyph glyph-name="dotaccent" unicode="&#x2d9;" horiz-adv-x="345" 
d="M295 750q-32 0 -51 22t-14 54q3 16 11 30t20.5 24.5t27.5 16.5t31 6q32 0 50 -22.5t13 -54.5t-30.5 -54t-57.5 -22z" />
    <glyph glyph-name="ring" unicode="&#x2da;" horiz-adv-x="409" 
d="M347 801q25 0 45 -9.5t34 -25.5t20 -37.5t2 -46.5t-17 -46.5t-31.5 -37.5t-41.5 -25.5t-48 -9.5t-45.5 9.5t-34 25.5t-19 37.5t-1.5 46.5t16.5 46.5t31 37.5t41.5 25.5t48 9.5zM322 643q16 0 29 11.5t16 27.5q2 16 -7 27t-25 11q-17 0 -30 -11t-15 -27q-3 -16 6 -27.5
t26 -11.5z" />
    <glyph glyph-name="ogonek" unicode="&#x2db;" horiz-adv-x="297" 
d="M181 -38q-9 -8 -18.5 -17.5t-18 -21t-15 -23t-8.5 -23.5q-2 -11 3.5 -17.5t14.5 -10t20 -4.5t22 -1q8 0 14 0.5t13 0.5v-50q-8 -3 -19 -5q-20 -5 -50 -5q-24 0 -44 6t-34.5 17.5t-21 28.5t-3.5 38q4 26 19.5 46.5t35.5 40.5h90z" />
    <glyph glyph-name="tilde" unicode="&#x2dc;" horiz-adv-x="833" 
d="M642 835q13 0 28 5.5t29 13.5t25 16t16 14l36 -54q-3 -3 -16.5 -18t-34 -31.5t-46.5 -30t-53 -13.5q-28 0 -44 12t-29 26.5t-25.5 26.5t-32.5 12q-25 0 -50 -14t-43 -34q-17 15 -26 23t-14 12t-6 6q3 4 15 21t32 36t47.5 34t60.5 15q30 0 49.5 -12t33.5 -27t24.5 -27
t23.5 -12z" />
    <glyph glyph-name="hungarumlaut" unicode="&#x2dd;" horiz-adv-x="488" 
d="M337 710l-91 -179h-102l42 179h151zM551 710l-91 -179h-102l42 179h151z" />
    <glyph glyph-name="endash" unicode="&#x2013;" horiz-adv-x="726" 
d="M728 300l-15 -94h-636l15 94h636z" />
    <glyph glyph-name="emdash" unicode="&#x2014;" horiz-adv-x="854" 
d="M856 300l-15 -94h-764l15 94h764z" />
    <glyph glyph-name="quoteleft" unicode="&#x2018;" horiz-adv-x="245" 
d="M293 436h-106l-40 271h155z" />
    <glyph glyph-name="quoteright" unicode="&#x2019;" horiz-adv-x="244" 
d="M181 709h155l-125 -271h-106z" />
    <glyph glyph-name="quotesinglbase" unicode="&#x201a;" horiz-adv-x="238" 
d="M86 127h155l-125 -271h-106z" />
    <glyph glyph-name="quotedblleft" unicode="&#x201c;" horiz-adv-x="446" 
d="M482 436h-96l-40 271h145zM289 436h-96l-40 271h145z" />
    <glyph glyph-name="quotedblright" unicode="&#x201d;" horiz-adv-x="447" 
d="M187 709h145l-125 -271h-96zM382 709h145l-125 -271h-96z" />
    <glyph glyph-name="quotedblbase" unicode="&#x201e;" horiz-adv-x="490" 
d="M92 127h155l-125 -271h-106zM324 127h155l-125 -271h-106z" />
    <glyph glyph-name="dagger" unicode="&#x2020;" horiz-adv-x="388" 
d="M446 416h-141l-91 -576h-94l91 576h-139l15 94h139l39 246h94l-39 -246h141z" />
    <glyph glyph-name="daggerdbl" unicode="&#x2021;" horiz-adv-x="443" 
d="M87 496h165l41 260h94l-41 -260h167l-15 -95h-167l-31 -197h167l-15 -95h-167l-48 -300h-94l48 300h-165l15 95h165l31 197h-165z" />
    <glyph glyph-name="bullet" unicode="&#x2022;" horiz-adv-x="374" 
d="M105 169q-37 43 -27 107q11 64 61 107q53 44 115 44q65 0 101 -44q39 -43 28 -107q-10 -64 -62 -107q-50 -42 -114 -42q-63 0 -102 42z" />
    <glyph glyph-name="ellipsis" unicode="&#x2026;" horiz-adv-x="693" 
d="M139 144q32 0 51 -22t14 -54q-2 -16 -10.5 -29.5t-20.5 -24t-27 -16.5t-31 -6q-32 0 -50.5 22t-13.5 54t30.5 54t57.5 22zM368 144q32 0 51 -22t14 -54q-2 -16 -10.5 -29.5t-20.5 -24t-27 -16.5t-31 -6q-32 0 -50.5 22t-13.5 54t30.5 54t57.5 22zM597 144q32 0 51 -22
t14 -54q-2 -16 -10.5 -29.5t-20.5 -24t-27 -16.5t-31 -6q-32 0 -50.5 22t-13.5 54t30.5 54t57.5 22z" />
    <glyph glyph-name="trademark" unicode="&#x2122;" horiz-adv-x="681" 
d="M150 709h227l-11 -70h-76l-38 -239h-75l38 239h-76zM676 709h69l-49 -309h-75l29 181q-20 -20 -38.5 -42t-36.5 -42h-57l-50 83l-28 -180h-76l49 309h70l76 -133z" />
    <glyph glyph-name="radical" unicode="&#x221a;" horiz-adv-x="659" 
d="M235 361l78 -251l391 620h102l-458 -730h-104l-79 251l-62 -100l-78 40l107 169z" />
    <glyph glyph-name="approxequal" unicode="&#x2248;" horiz-adv-x="594" 
d="M427 194q21 0 40.5 5t35 12.5t27 15.5t17.5 14l50 -52q-4 -3 -21 -17.5t-42.5 -30.5t-58 -28.5t-67.5 -12.5q-36 0 -58 11.5t-39 25t-34.5 25t-43.5 11.5q-24 0 -45.5 -7t-37.5 -15.5t-25.5 -15.5t-10.5 -8l-61 39q1 1 15 17.5t39 35t60.5 34t80.5 15.5q40 0 66.5 -11.5
t46 -25.5t34.5 -25.5t32 -11.5zM459 400q21 0 40.5 5t35 12.5t27 15.5t17.5 14l50 -52q-4 -3 -21 -17.5t-42.5 -30.5t-58 -28.5t-67.5 -12.5q-36 0 -58 11.5t-39 25t-34.5 25t-43.5 11.5q-24 0 -45.5 -7t-37.5 -15.5t-25.5 -15.5t-10.5 -8l-61 39q1 1 15 17.5t39 35t60.5 34
t80.5 15.5q40 0 66.5 -11.5t46 -25.5t34.5 -25.5t32 -11.5z" />
    <glyph glyph-name="notequal" unicode="&#x2260;" horiz-adv-x="526" 
d="M119 450h426l-15 -95h-426zM86 243h426l-15 -95h-426z" />
    <glyph glyph-name="lessequal" unicode="&#x2264;" horiz-adv-x="521" 
d="M466 85l-368 197l15 95l430 197l-15 -95l-326 -150l279 -149zM466 84l-13 -84h-417l13 84h417z" />
    <glyph glyph-name="greaterequal" unicode="&#x2265;" horiz-adv-x="521" 
d="M96 180l327 149l-280 150l15 95l368 -197l-15 -95l-430 -197zM498 84l-13 -84h-417l13 84h417z" />
    <glyph glyph-name="s_t" unicode="&#xfb06;" horiz-adv-x="809" 
d="M673 183q-5 -35 13.5 -54t53.5 -19q13 0 27 2.5t31 8.5l-19 -116q-26 -8 -55 -13.5t-57 -5.5q-32 0 -60 8t-47.5 27.5t-28 52t-0.5 80.5l35 219h-71l14 93l76 30l7 41q5 37 -9 64.5t-48 27.5q-42 0 -68.5 -28t-32.5 -66q-3 -18 -3 -37.5t2 -37.5t5 -34t6 -28l2 -11
l-113 -36q-3 18 -20 29t-38 11t-36 -14t-17 -28q-2 -11 2 -18.5t11.5 -13t17 -8t17.5 -2.5q99 -18 135.5 -56.5t26.5 -101.5q-5 -33 -25.5 -62t-50.5 -51t-68 -34.5t-79 -12.5q-31 0 -59 8t-51 22t-38.5 33.5t-20.5 43.5q24 11 54 24.5t53 24.5q7 -15 24 -27.5t50 -12.5
q34 0 52.5 16t20.5 30q1 9 -6 15.5t-17.5 12t-22 8.5t-17.5 4q-60 11 -91 31.5t-44 43t-12.5 43.5t2.5 35q5 33 23.5 62.5t46 52t62.5 36t73 13.5h5q0 5 0.5 10.5t1.5 11.5q6 38 23.5 79t48.5 75t77 56t109 22q54 0 90.5 -17.5t57.5 -48.5t27 -72t-1 -87l-7 -41h134
l-19 -123h-134l-31 -190v0z" />
    <glyph glyph-name="a.salt" horiz-adv-x="518" 
d="M346 510q30 0 65.5 -9t64 -34t44 -68t4.5 -111l-45 -288h-118l-16 31q-29 -22 -66.5 -32.5t-81.5 -10.5q-36 0 -65.5 8.5t-50 26t-29 44.5t-2.5 65q5 33 22.5 60t43 47.5t57.5 33t67 16.5l49 5q34 3 54.5 7t31 9t14 11.5t5.5 15.5q5 27 -15.5 42.5t-65.5 15.5
q-35 0 -62 -14.5t-61 -45.5l-84 56q60 66 118.5 92.5t121.5 26.5zM375 209q-21 -2 -41 -5q-17 -2 -37 -4t-37 -4q-35 -4 -52 -21t-19 -31q-3 -21 11.5 -34.5t44.5 -13.5q11 0 30.5 3.5t39 13.5t35.5 26.5t20 43.5z" />
    <glyph glyph-name="zero.taboldstyle" horiz-adv-x="615" 
d="M388 510q53 0 100 -16.5t80 -48.5t48.5 -78.5t6.5 -105.5l-4 -27q-9 -57 -38.5 -102t-72.5 -76.5t-95.5 -48t-106.5 -16.5q-53 0 -99.5 17.5t-80 49t-49.5 76.5t-7 100l4 27q9 60 39.5 106t73.5 78t95.5 48.5t105.5 16.5zM469 254q10 65 -19 98.5t-83 33.5
q-26 0 -49.5 -8.5t-43 -25t-33 -41.5t-18.5 -57q-5 -30 -1.5 -56t15.5 -46t33 -31.5t53 -11.5q56 0 95.5 40t50.5 105z" />
    <glyph glyph-name="one.taboldstyle" horiz-adv-x="304" 
d="M101 496h236l-78 -496h-152l56 358h-84z" />
    <glyph glyph-name="two.taboldstyle" horiz-adv-x="535" 
d="M334 510q47 0 82 -18.5t56.5 -48t30.5 -65t3 -69.5q-6 -38 -22 -66.5t-35.5 -49.5t-40.5 -34.5t-36 -21.5h143l-21 -137h-440l6 36q2 15 4.5 32t4.5 30q123 45 197 92.5t82 99.5q7 44 -8.5 63.5t-40.5 19.5q-13 0 -26 -7t-23.5 -19t-18 -27.5t-10.5 -31.5h-132
q7 45 28.5 85.5t54 70.5t74 48t88.5 18z" />
    <glyph glyph-name="six.taboldstyle" horiz-adv-x="539" 
d="M480 438q43 -35 62 -88.5t9 -115.5q-8 -51 -34.5 -95.5t-65.5 -78.5t-86.5 -53.5t-98.5 -19.5t-92.5 19.5t-69 53.5t-39.5 78.5t-4 95.5q5 35 21.5 67.5t36.5 63.5l13 19.5t28.5 41t38.5 55t43 62.5q51 74 115 166h171l-166 -234q35 0 65 -10t53 -27zM284 125
q20 0 39.5 8.5t35 23t26.5 34t14 40.5q7 45 -15.5 76t-69.5 31q-18 0 -37 -7t-36 -24l-3 -4q-11 -19 -22 -39t-13 -33q-3 -21 1.5 -40.5t15.5 -34t27.5 -23t36.5 -8.5z" />
    <glyph glyph-name="eight.taboldstyle" horiz-adv-x="557" 
d="M486 390q19 -12 35 -31t26 -42t13.5 -49t-0.5 -52q-8 -46 -34.5 -87.5t-65.5 -73t-87 -50t-98 -18.5t-92 18.5t-70.5 50t-42 73t-5.5 87.5q8 52 41.5 99.5t86.5 74.5q-32 26 -43 58.5t-5 70.5q6 40 29 76.5t56.5 64t75 43.5t85.5 16t81 -16t62 -43.5t36.5 -64t5.5 -76.5
q-6 -38 -29.5 -70.5t-60.5 -58.5zM370 580q-15 0 -29.5 -6t-25.5 -16.5t-19 -24t-10 -27.5q-5 -28 12 -49t50 -21q32 0 55 20.5t28 49.5t-12.5 51.5t-48.5 22.5zM299 128q20 0 38.5 8.5t33.5 22.5t25.5 32t13.5 38q6 41 -17 68.5t-63 27.5q-20 0 -38.5 -7.5t-33.5 -20.5
t-25 -30.5t-13 -37.5t1.5 -38t15 -32t26.5 -22.5t36 -8.5z" />
    <glyph glyph-name="three.taboldstyle" horiz-adv-x="535" 
d="M438 225q44 -35 62.5 -88.5t8.5 -115.5q-8 -51 -34.5 -95.5t-65 -78.5t-86 -53.5t-98.5 -19.5q-40 0 -74 12.5t-61 34.5t-45 52.5t-25 66.5l141 56q2 -35 25 -59.5t58 -24.5q20 0 39 8.5t34.5 23t26.5 34t14 40.5q8 45 -15.5 76t-69.5 31q-27 0 -51 -14l-60 95l142 152
h-181q2 11 3 23t3 23l8 46l8 46h369l-11 -69l-142 -168q46 -9 77 -34z" />
    <glyph glyph-name="four.taboldstyle" horiz-adv-x="621" 
d="M493 33h108l-21 -132h-108l-18 -114h-152l18 115h-264l-51 82l444 512h117zM374 243l-30 -43l-128 -151l-19 -16h144l27 174z" />
    <glyph glyph-name="five.taboldstyle" horiz-adv-x="535" 
d="M436 225q45 -32 63 -87t8 -117q-8 -51 -34.5 -95.5t-65 -78.5t-86 -53.5t-98.5 -19.5q-40 0 -74.5 12.5t-61.5 34.5t-44.5 52.5t-24.5 66.5l140 56q2 -35 25 -59.5t58 -24.5q20 0 39 8.5t34.5 23t26.5 34t14 40.5q4 24 -1 43.5t-17 34t-29 22.5t-37 8q-24 0 -49.5 -9
t-50.5 -23l-83 69l89 333h348l-22 -138h-226l-29 -120q20 8 40.5 12t40.5 4q33 0 61 -8.5t46 -20.5z" />
    <glyph glyph-name="seven.taboldstyle" horiz-adv-x="519" 
d="M115 496h466l-11 -72l-369 -637h-164l330 571h-274z" />
    <glyph glyph-name="nine.taboldstyle" horiz-adv-x="538" 
d="M349 506q51 0 92.5 -19.5t69.5 -52.5t40.5 -77.5t4.5 -95.5q-5 -35 -21.5 -67t-37.5 -64l-13 -19.5t-28.5 -41t-38.5 -55.5t-43 -62q-52 -74 -116 -165h-170l167 233q-52 1 -90.5 21.5t-63 54t-34 76.5t-1.5 89q8 51 34 95.5t64.5 77.5t86 52.5t98.5 19.5zM378 193
q12 18 22.5 38t12.5 33q7 44 -16.5 75t-64.5 31q-20 0 -39.5 -8.5t-35 -23t-26.5 -33.5t-14 -41q-3 -21 0.5 -40.5t14 -34.5t28 -23.5t40.5 -8.5q19 0 38.5 7.5t36.5 24.5z" />
    <glyph glyph-name="zero.titling" 
d="M423 718q60 0 107.5 -23t76.5 -67q29 -43 39.5 -102t-0.5 -132l-14 -87q-11 -69 -41 -126.5t-74 -100.5q-44 -44 -97.5 -66.5t-111.5 -22.5q-57 0 -104 24t-77 69q-29 43 -42 100t-2 123l14 87q11 72 40.5 131.5t71.5 101.5q43 45 98 68t116 23zM492 389q15 96 -14 148
q-25 43 -79 43t-91 -43q-47 -51 -62 -148l-12 -75q-6 -42 -1.5 -77.5t19.5 -61.5q27 -47 76 -47q28 0 52.5 13.5t44.5 38t34.5 58.5t20.5 76z" />
    <glyph glyph-name="one.titling" 
d="M304 709h236l-112 -709h-152l90 571h-84z" />
    <glyph glyph-name="two.titling" 
d="M428 719q47 0 85.5 -18t64.5 -48t37.5 -70.5t4.5 -85.5q-6 -37 -28 -77.5t-63 -79.5l-210 -203h240l-21 -137h-460l6 36q2 15 4.5 32t4.5 30q88 87 158 157l59.5 59.5t53.5 54t40.5 41t20.5 21.5q17 19 27.5 35t13.5 33q6 40 -14.5 61.5t-55.5 21.5q-17 0 -33.5 -7
t-30 -19t-22.5 -27.5t-12 -31.5h-132q7 45 31.5 85.5t60 70.5t79.5 48t91 18z" />
    <glyph glyph-name="three.titling" 
d="M514 438q44 -35 62.5 -88.5t8.5 -115.5q-8 -51 -34.5 -95.5t-65.5 -78.5t-86.5 -53.5t-98.5 -19.5q-40 0 -74 12.5t-60.5 34.5t-44.5 52.5t-25 66.5l141 56q2 -35 24.5 -59.5t57.5 -24.5q20 0 39.5 8.5t35 23t26.5 34t14 40.5q5 27 -3 50.5t-25 37.5q-14 13 -37.5 18
t-49.5 -3q-11 -3 -21 -10l-60 95l142 152h-181l22 138h369l-11 -69l-143 -168q45 -9 78 -34z" />
    <glyph glyph-name="four.titling" 
d="M534 246h108l-20 -132h-108l-18 -114h-152l18 115h-264l-51 82l444 512h117zM416 456l-30 -43l-128 -151l-20 -16h144l28 174z" />
    <glyph glyph-name="five.titling" 
d="M514 438q45 -32 63 -87t8 -117q-8 -51 -34.5 -95.5t-65.5 -78.5t-86.5 -53.5t-98.5 -19.5q-40 0 -74.5 12.5t-61 34.5t-44 52.5t-24.5 66.5l140 56q2 -35 24.5 -59.5t57.5 -24.5q20 0 39.5 8.5t35 23t26.5 34t14 40.5q7 45 -15.5 76t-68.5 31q-27 0 -55 -15l-128 53
l89 333h348l-22 -138h-226l-29 -120q39 16 80 16q33 0 61 -8.5t47 -20.5z" />
    <glyph glyph-name="six.titling" 
d="M521 438q43 -35 62 -88.5t9 -115.5q-8 -51 -34.5 -95.5t-65.5 -78.5t-86.5 -53.5t-98.5 -19.5t-92.5 19.5t-69 53.5t-39.5 78.5t-4 95.5q5 35 21.5 67.5t36.5 63.5l13 19.5t28.5 41t38.5 55t43 62.5q51 74 115 166h171l-166 -234q35 0 65 -10t53 -27zM325 125
q20 0 39.5 8.5t35 23t26.5 34t14 40.5q7 45 -15.5 76t-69.5 31q-18 0 -37 -7t-36 -24l-3 -4q-11 -19 -22 -39t-13 -33q-3 -21 1.5 -40.5t15.5 -34t27.5 -23t36.5 -8.5z" />
    <glyph glyph-name="seven.titling" 
d="M188 709h466l-12 -72l-368 -637h-164l330 571h-274z" />
    <glyph glyph-name="eight.titling" 
d="M517 390q19 -12 35 -31t26 -42t13.5 -49t-0.5 -52q-8 -46 -34.5 -87.5t-65.5 -73t-87 -50t-98 -18.5t-92 18.5t-70.5 50t-42 73t-5.5 87.5q8 52 41.5 99.5t86.5 74.5q-32 26 -43 58.5t-5 70.5q6 40 29 76.5t56.5 64t75 43.5t85.5 16t81 -16t62 -43.5t36.5 -64t5.5 -76.5
q-6 -38 -29.5 -70.5t-60.5 -58.5zM401 580q-15 0 -29.5 -6t-25.5 -16.5t-19 -24t-10 -27.5q-4 -20 4.5 -37t25.5 -26q16 -7 32 -7q9 0 17.5 2t16.5 5q20 9 32.5 26t16.5 37q5 29 -12.5 51.5t-48.5 22.5zM330 128q20 0 38.5 8.5t33.5 22.5t25.5 32t13.5 38q5 31 -7.5 54.5
t-37.5 34.5q-14 7 -35 7q-20 0 -37 -7q-28 -11 -48 -34.5t-25 -54.5q-3 -20 1.5 -38t15 -32t26.5 -22.5t36 -8.5z" />
    <glyph glyph-name="nine.titling" 
d="M422 719q51 0 92.5 -19.5t70 -52.5t41 -77.5t4.5 -95.5q-6 -35 -22.5 -67t-36.5 -64q-2 -3 -13.5 -19.5t-29 -41t-38.5 -55.5t-43 -62q-51 -74 -115 -165h-170l166 233q-51 1 -90 21.5t-63 54t-33.5 76.5t-1.5 89q8 51 34 95.5t64 77.5t85.5 52.5t98.5 19.5zM452 406
q12 18 22.5 38t12.5 33q7 44 -16.5 75t-64.5 31q-20 0 -39.5 -8.5t-35 -23t-26.5 -33.5t-14 -41q-3 -21 0.5 -40.5t14 -34.5t28 -23.5t40.5 -8.5q19 0 38.5 7.5t36.5 24.5z" />
    <glyph glyph-name="Adieresis.salt" horiz-adv-x="803" 
d="M598 709l184 -709h-164l-40 152h-301l-87 -152h-165l408 709h165zM542 290l-52 203l-5 20l-12 -19l-117 -204h186zM742 785q32 0 50.5 -22t13.5 -54q-3 -16 -11 -30t-20 -24.5t-26.5 -16.5t-30.5 -6q-32 0 -51 22.5t-14 54.5t31 54t58 22zM315 785q32 0 50.5 -22
t13.5 -54q-3 -16 -11 -30t-20 -24.5t-26.5 -16.5t-30.5 -6q-32 0 -51 22.5t-14 54.5t31 54t58 22z" />
    <glyph glyph-name="Udieresis.salt" horiz-adv-x="688" 
d="M347 784q32 0 50.5 -22t13.5 -54q-3 -16 -11 -30t-20 -24.5t-27 -16.5t-31 -6t-29 6l-55 -351q-5 -30 0.5 -56.5t19.5 -47t35.5 -32.5t47.5 -12q27 0 52 12t45.5 32.5t35 47t19.5 56.5l55 348q-11 -3 -24 -3q-32 0 -50.5 22.5t-13.5 54.5t31 54t58 22q31 0 49.5 -22
t14.5 -53h98l-72 -453q-8 -53 -38 -102t-73.5 -86t-98 -59t-112.5 -22q-57 0 -104 22t-79 59t-46 86t-6 102l72 453h104q5 31 31 53t58 22z" />
    <glyph glyph-name="Odieresis.salt" horiz-adv-x="781" 
d="M495 719q72 0 131.5 -29t99 -79t57 -116t5.5 -141q-12 -74 -50.5 -141t-94 -117t-124 -79.5t-140.5 -29.5t-131 29.5t-98.5 79.5t-56 117t-4.5 141q12 75 49.5 141t92.5 116t123.5 79t140.5 29zM403 138q41 0 80 17t70.5 46.5t53.5 68.5t29 84t-2 84.5t-31.5 69t-56 46.5
t-74.5 17t-79.5 -17t-70 -46.5t-53.5 -69t-29 -84.5t2 -84t31.5 -68.5t55.5 -46.5t74 -17zM784 785q32 0 50.5 -22t13.5 -54q-3 -16 -11 -30t-20 -24.5t-26.5 -16.5t-30.5 -6q-32 0 -51 22.5t-14 54.5t31 54t58 22zM228 785q32 0 50.5 -22t13.5 -54q-3 -16 -11 -30
t-20 -24.5t-26.5 -16.5t-30.5 -6q-32 0 -51 22.5t-14 54.5t31 54t58 22z" />
    <glyph glyph-name="c_t" horiz-adv-x="915" 
d="M777 183q-5 -35 13.5 -54t53.5 -19q13 0 27 2.5t31 8.5l-19 -116q-26 -8 -55 -13.5t-57 -5.5q-32 0 -60 8t-47.5 27.5t-28 52t-0.5 80.5l35 219h-71l14 93l76 30l7 46q8 49 -7 71.5t-49 22.5q-21 0 -38 -8t-30 -21.5t-21 -31t-11 -36.5q-5 -33 -1.5 -67.5t8.5 -58.5
l-108 -74q-24 27 -46 37.5t-51 10.5q-25 0 -49 -11.5t-43.5 -31t-33 -45.5t-18.5 -56t0.5 -54.5t19.5 -42t34.5 -27.5t45.5 -10q31 0 62.5 14.5t56.5 40.5l72 -84q-42 -42 -96.5 -67t-113.5 -25q-54 0 -98 20.5t-73.5 56t-42.5 83t-4 101.5t36.5 101.5t68.5 83t91 56
t104 20.5q20 0 40 -3q0 7 0.5 14t1.5 14q6 38 23 77.5t48 71.5t76.5 52.5t108.5 20.5q54 0 91 -16t58 -45t27 -68.5t-1 -85.5l-7 -46h134l-19 -123h-134l-31 -190v0z" />
    <glyph glyph-name="ccedilla_t" horiz-adv-x="903" 
d="M780 183q-5 -35 13.5 -54t53.5 -19q13 0 27 2.5t31 8.5l-19 -116q-26 -8 -55 -13.5t-57 -5.5q-32 0 -60 8t-47.5 27.5t-28 52t-0.5 80.5l35 219h-71l14 93l76 30l7 46q8 48 -8.5 70t-50.5 22q-44 0 -69 -28.5t-31 -66.5q-5 -33 -1 -68.5t6 -58.5l-106 -73
q-24 27 -46 37.5t-51 10.5q-25 0 -49 -11.5t-43.5 -31t-33 -45.5t-18.5 -56t0.5 -54.5t19.5 -42t34.5 -27.5t45.5 -10q31 0 62.5 14.5t56.5 40.5l72 -84q-40 -41 -92 -65.5t-108 -26.5l-37 -32q24 0 41 -8t27.5 -20.5t14.5 -29t1 -33.5q-3 -21 -15.5 -38t-30.5 -28.5
t-40 -17.5t-46 -6q-31 0 -49 5q-10 2 -17 5l16 50q7 0 13 -0.5t14 -0.5q22 0 39.5 8t19.5 25q5 31 -33 31q-8 0 -17.5 -2t-17.5 -7l-26 28l69 80q-41 10 -72.5 34t-52 57t-28.5 74t-1 87q9 54 36.5 101.5t68.5 83t91 56t104 20.5q20 0 40 -3q0 12 1 23.5t3 24.5
q6 34 24 69.5t49 65t75 48.5t103 19q54 0 92 -16t60 -45t29 -68.5t0 -85.5l-7 -46h134l-19 -123h-134l-31 -190v0z" />
    <glyph glyph-name="scedilla_t" horiz-adv-x="793" 
d="M673 184q-6 -35 12.5 -54t53.5 -19q13 0 27.5 2.5t30.5 8.5l-19 -116q-26 -8 -55 -13.5t-57 -5.5q-32 0 -60 8t-47.5 27.5t-28 52t-0.5 80.5l35 218h-71l14 93l76 30l7 41q8 48 -7.5 70t-49.5 22q-47 0 -71 -28t-30 -66q-3 -18 -3 -37.5t2 -37.5t5 -34t6 -28l2 -11
l-113 -36q-3 18 -20 29t-38 11t-36 -14t-17 -28q-2 -12 2.5 -19.5t12 -12t16.5 -7t17 -3.5q49 -9 82.5 -23t53 -33.5t25.5 -44.5t1 -57q-5 -29 -21 -55.5t-41 -47.5t-56.5 -35t-67.5 -19l-40 -36q24 0 41 -8t27.5 -20.5t14.5 -29t1 -33.5q-3 -21 -15.5 -38t-30.5 -28.5
t-40 -17.5t-46 -6q-31 0 -49 5q-10 2 -17 5l16 50q7 0 13 -0.5t14 -0.5q22 0 39.5 8t19.5 25q5 31 -33 31q-8 0 -17.5 -2t-17.5 -7l-26 28l65 76q-48 9 -82 37t-43 66q24 11 54 24.5t53 24.5q7 -15 24 -27.5t50 -12.5q34 0 52.5 15.5t20.5 30.5q2 10 -5.5 17t-18 12t-22 7.5
t-17.5 3.5q-62 12 -93.5 33.5t-44 45t-11.5 45t3 34.5q5 32 24 61t47 50.5t63 34.5t72 13h5q0 5 0.5 10.5t1.5 11.5q6 38 24 77.5t49.5 71.5t76 52.5t104.5 20.5q54 0 91 -16t59 -45t28.5 -68.5t-0.5 -85.5l-7 -41h134l-19 -123h-134l-30 -189v0z" />
    <glyph glyph-name="c_h" horiz-adv-x="1128" 
d="M950 510q49 0 88.5 -20.5t65 -56t35.5 -83t1 -101.5l-39 -249h-135q7 47 14 91q6 38 12.5 78.5t11.5 69.5q4 28 -0.5 55t-17 47.5t-32 33t-43.5 12.5q-23 0 -45 -8.5t-41 -25t-32.5 -41.5t-18.5 -59l-40 -253h-139l85 542q5 48 -6.5 71t-45.5 23q-20 0 -34 -8
t-24.5 -21.5t-16.5 -31t-9 -36.5q-5 -33 -1.5 -67.5t8.5 -58.5l-108 -74q-24 27 -46.5 35.5t-51.5 8.5q-25 0 -48.5 -10.5t-43 -29.5t-33 -44.5t-18.5 -55.5t0.5 -54t19.5 -41.5t34.5 -27t45.5 -9.5q15 0 33 5t35.5 13.5t34 20t28.5 24.5l72 -84q-21 -21 -47.5 -39.5
t-55.5 -32.5t-59.5 -22t-59.5 -8q-54 0 -98 20.5t-73.5 56t-42.5 83t-4 101.5t36.5 101.5t68.5 83t91 56t104 20.5q20 0 40 -3q0 7 0.5 14t1.5 14q6 38 20 79.5t42 76t71.5 56.5t108.5 22q50 0 81.5 -17.5t52.5 -39.5l66 18l-43 -272q29 25 65 38.5t79 13.5z" />
    <glyph glyph-name="ccedilla_h" horiz-adv-x="1113" 
d="M255 -44q24 0 41 -8t27.5 -20.5t14.5 -29t1 -33.5q-3 -21 -15.5 -38t-30.5 -28.5t-40 -17.5t-46 -6q-31 0 -49 5q-10 2 -17 5l16 50q7 0 13 -0.5t14 -0.5q22 0 39.5 8t19.5 25q5 31 -33 31q-8 0 -17.5 -2t-17.5 -7l-26 28l69 80q-41 10 -72.5 34t-52 57t-28.5 74t-1 87
q9 54 36.5 101.5t68.5 83t91 56t104 20.5q20 0 40 -3q0 7 0.5 14t1.5 14q6 38 19 79.5t40 76t71 56.5t112 22q50 0 81.5 -17.5t52.5 -39.5l66 18l-43 -272q29 25 65 38.5t79 13.5q49 0 88.5 -20.5t65 -56t35.5 -83t1 -101.5l-39 -249h-135q7 47 14 91q6 38 12.5 78.5
t11.5 69.5q4 28 -0.5 55t-17 47.5t-32 33t-43.5 12.5q-23 0 -45 -8.5t-41 -25t-32.5 -41.5t-18.5 -59l-40 -253h-139l85 542q5 48 -6.5 71t-45.5 23q-20 0 -34 -8t-24.5 -21.5t-16.5 -31t-9 -36.5q-5 -33 -1.5 -67.5t8.5 -58.5l-108 -74q-24 27 -46 37.5t-51 10.5
q-25 0 -49 -11.5t-43.5 -31t-33 -45.5t-18.5 -56t0.5 -54.5t19.5 -42t34.5 -27.5t45.5 -10q15 0 33 5.5t35.5 14.5t34 20.5t28.5 24.5l72 -84q-20 -20 -45.5 -38t-53 -32t-56.5 -22.5t-57 -9.5l-37 -32v0z" />
    <glyph glyph-name="c_k" horiz-adv-x="1099" 
d="M914 290l164 -290h-165l-100 198l-58 -53l-22 -145h-138l85 542q5 48 -6.5 71t-45.5 23q-20 0 -34 -8t-24.5 -21.5t-16.5 -31t-9 -36.5q-5 -33 -1.5 -67.5t8.5 -58.5l-108 -74q-24 27 -46.5 35.5t-51.5 8.5q-25 0 -48.5 -10.5t-43 -29.5t-33 -44.5t-18.5 -55.5t0.5 -54.5
t19.5 -42t34.5 -27.5t45.5 -10q15 0 33 5.5t35.5 14.5t34 20.5t28.5 24.5l72 -84q-21 -21 -47.5 -39.5t-55.5 -32.5t-59.5 -22t-59.5 -8q-54 0 -98 20.5t-73.5 56t-42.5 83t-4 101.5t36.5 101.5t68.5 83t91 56t104 20.5q20 0 40 -3q0 7 0.5 14t1.5 14q6 38 21.5 79.5t44 76
t71.5 56.5t105 22q49 0 81 -17.5t53 -39.5l65 18l-64 -405l188 171h168z" />
    <glyph glyph-name="ccedilla_k" horiz-adv-x="1087" 
d="M255 -44q24 0 41 -8t27.5 -20.5t14.5 -29t1 -33.5q-3 -21 -15.5 -38t-30.5 -28.5t-40 -17.5t-46 -6q-31 0 -49 5q-10 2 -17 5l16 50q7 0 13 -0.5t14 -0.5q22 0 39.5 8t19.5 25q5 31 -33 31q-8 0 -17.5 -2t-17.5 -7l-26 28l69 80q-41 10 -72.5 34t-52 57t-28.5 74t-1 87
q9 54 36.5 101.5t68.5 83t91 56t104 20.5q20 0 40 -3q0 7 0.5 14t1.5 14q6 38 22.5 79.5t45.5 76t72 56.5t102 22q48 0 80.5 -17.5t53.5 -39.5l65 18l-64 -405l188 171h168l-226 -206l164 -290h-165l-100 198l-58 -53l-22 -145h-138l85 542q5 48 -6.5 71t-45.5 23
q-20 0 -34 -8t-24.5 -21.5t-16.5 -31t-9 -36.5q-5 -33 -1.5 -67.5t8.5 -58.5l-108 -74q-24 27 -46 37.5t-51 10.5q-25 0 -49 -11.5t-43.5 -31t-33 -45.5t-18.5 -56t0.5 -54.5t19.5 -42t34.5 -27.5t45.5 -10q15 0 33 5.5t35.5 14.5t34 20.5t28.5 24.5l72 -84
q-20 -20 -45.5 -38t-53 -32t-56.5 -22.5t-57 -9.5l-37 -32v0z" />
    <glyph glyph-name="M.extra" horiz-adv-x="1378" 
d="M1302 709h143l-112 -709h-151l74 468l-207 -237h-121l-164 255l-239 -255h-121l-134 230l-73 -461h-152l112 709h144l190 -317l235 259h134l158 -259z" />
    <glyph glyph-name="E.extra" horiz-adv-x="524" 
d="M177 837h444l-22 -138h-291l-22 -138h256l-22 -138h-256l-23 -148h256l-22 -137h-256l-21 -138h291l-22 -138h-444z" />
    <glyph glyph-name="O.extra" horiz-adv-x="1029" 
d="M758 719q72 0 131.5 -29t99 -79t57 -116t5.5 -141q-12 -74 -50.5 -141t-94 -117t-124 -79.5t-140.5 -29.5q-35 0 -66.5 7t-59.5 20q-33 -13 -67 -20t-69 -7q-72 0 -131 29.5t-98.5 79.5t-56 117t-4.5 141q12 75 49.5 141t92.5 116t123.5 79t140.5 29q35 0 66.5 -7
t60.5 -20q32 13 66 20t69 7zM241 354q-7 -42 1 -79.5t27.5 -66.5t49.5 -47t67 -22q-26 46 -35 100.5t1 114.5q9 60 35.5 115t66.5 101q-38 -4 -74 -22.5t-64.5 -47.5t-48.5 -66.5t-26 -79.5zM789 354q-10 -60 -37 -114.5t-65 -100.5q38 4 73.5 22.5t64 47t48 66t26.5 79.5
q6 42 -2 79.5t-27.5 66.5t-49 47.5t-66.5 22.5q25 -46 34.5 -101t0.5 -115zM637 354q8 49 -4 91t-38 72q-35 -30 -59.5 -72t-32.5 -91t3.5 -91t37.5 -71q35 29 60 71t33 91z" />
    <glyph glyph-name="T.extra" horiz-adv-x="839" 
d="M141 709h782l-22 -138h-181l-90 -571h-151l90 571h-118l-90 -571h-151l90 571h-181z" />
    <glyph glyph-name="B.extra" horiz-adv-x="613" 
d="M527 248q37 -29 55 -74.5t9 -100.5q-7 -44 -29.5 -82.5t-56 -67t-75 -45t-85.5 -16.5h-322l154 975h292q47 0 83 -13.5t58.5 -38.5t31.5 -60t2 -78l-1 -4q-5 -31 -24.5 -66.5t-62.5 -65.5q67 -47 53 -133q-7 -43 -28.5 -75.5t-53.5 -54.5zM366 -1q15 0 29.5 7t26 18.5
t19.5 27t11 32.5q5 35 -12 59t-47 24h-170l-27 -168h170zM245 305h155q27 0 48.5 19t26.5 46t-11.5 45t-43.5 18h-155zM287 571h150q27 0 49 19t26 46q5 27 -11.5 45t-43.5 18h-150z" />
    <glyph glyph-name="dogu" horiz-adv-x="1051" 
d="M80 372q11 69 39 133t69.5 119.5t94.5 101t113.5 78t127.5 50.5t136 18q103 0 188 -39.5t142 -107t81.5 -159t8.5 -194.5q-11 -69 -39 -133t-69 -119.5t-94 -101t-114 -78t-127.5 -50.5t-135.5 -18q-104 0 -189 39t-142 107t-81.5 159t-8.5 195zM190 372
q-13 -81 6.5 -152t64 -124t111 -83.5t147.5 -30.5q80 0 155.5 30.5t136.5 83.5t102.5 124t54.5 152q13 80 -6.5 151t-63.5 123.5t-110 83t-146 30.5q-81 0 -157 -30.5t-137.5 -83t-103 -123.5t-54.5 -151zM358 286q-1 -5 -1.5 -8l-1.5 -9q-3 0 -3 5q0 -8 1 -13t3 -14
q-4 2 -8 2q-2 -11 0.5 -16t6 -6.5t6.5 -2t3 -3.5q-2 -2 -2 -4t-2 -4v10q-8 -4 -9 -8l5.5 -5.5t3.5 -5.5q0 -4 -3 -4v3q-3 0 -4.5 -2.5t-3.5 -4.5q8 -3 8.5 -3.5t-0.5 -4.5q0 -4 -1 -4t-1.5 1.5t-3.5 1.5q4 -10 2 -24q-1 -5 -1 -7t-2 -6q1 -2 1.5 -4.5t5.5 -2.5v1
q0 -1 3.5 -2t3.5 -2q-2 -2 -4 -3l-4 -2l2 -6q1 -3 3 -5q-4 0 -4 3q-1 -4 2.5 -12.5t5.5 -18.5q1 0 2 1q1 0 1.5 0.5t1.5 0.5q2 0 1.5 -3t0.5 -5q-8 0 -8 -7q-2 -6 3 -6t14 -10q0 -2 -2.5 -3t-2.5 -3t2 -2.5t3 -0.5t2.5 1.5t3.5 1.5t3.5 -3t7.5 -3q-2 -1 -3 -2.5t-2 -2.5v-3
q0 -1 1 -1q0 -1 -2 -4q5 -5 8 -10.5t4 -7.5q1 1 2 1t2 1q2 0 3 -1t3 -1q4 0 6.5 0.5t4.5 0.5t3 -3.5t0 -6.5l4.5 1.5t5.5 2.5q2 -8 4.5 -6t3.5 -3q3 0 8 6q1 -5 7 -12t8 -7q2 6 7.5 7.5t10.5 1.5q0 -3 3 -4l6 7q0 -3 1 -3.5t2 -2.5q0 2 3 4t4 2q2 0 3.5 -1.5t2.5 -1.5
q3 0 9.5 3.5t11.5 6.5q4 0 7 -0.5t8 -0.5q2 0 2 0.5t2 0.5q3 0 4.5 -2t3.5 -2q4 0 8.5 3t11.5 6q2 0 2 -1t1 -1q8 0 17 5t17 12q10 8 20 18q5 4 5.5 5t1.5 7q1 0 1 -1t1 -1q2 0 9.5 10t9.5 16v5l2.5 2.5t3.5 1.5q-2 2 -2 3.5t-1 2.5q4 0 12 9t24 34q3 3 7.5 12t9 18.5t8 18
t3.5 11.5l-1 2q-2 0 -8.5 -8.5t-13.5 -18.5t-13 -19l-6 -9q2 -4 2.5 -6t1.5 -4q-6 4 -6 5t1 2t1 3q-6 -7 -10 -7q-4 -3 -5.5 -9t-3.5 -9q-4 0 -8.5 7.5t-6.5 10.5q-6 -4 -7 -4q-2 -1 -3 0v4q0 1 1 3t1 4q-2 2 -3.5 3t-5.5 1h-3t-4 -2q0 -1 0.5 -2t0.5 -3q-6 -6 -11 -10
t-9 -7t-6 -3l-1 1q-2 -8 -3 -9q-6 6 -11 6q-2 0 -3.5 -1.5t-4.5 -1.5q-2 14 -8 26.5t-17 12.5q-2 0 -5 -1.5t-5 -1.5q0 3 -2 3q-3 0 -4 -3l-3 3l-15 -5q-2 2 -3 3.5t-3 1.5t-4 -1.5t-4 -1.5q-1 3 -1 5.5v3.5l4.5 6t3.5 4q3 -5 6 -5q5 0 16.5 2.5t19.5 8.5q2 -1 5 -1
q2 0 4 2.5t7 2.5q7 0 12 -4t10 -4q0 1 1 2l2 2q4 -2 10.5 -5t13 -5t11.5 -4l5 -2q5 0 7 1q-1 1 -2.5 5t-3 9t-3 9l-1.5 4l2 6l2 6q-1 0 -1 1v2q1 1 2 4t1 5q-2 0 -2.5 2t-3.5 2q-17 9 -25 16t-11.5 12.5t-3.5 9.5v6q-5 -3 -7 -4.5t-6 -1.5q-2 0 -3 1q-1 0 -1 1q-5 0 -11 -2
t-8 -2q-8 0 -12 5t-7 11t-6.5 11t-10.5 5q-2 0 -5 -3l2 -2v-1q-1 -7 -11 -13t-11 -8l3 3q-1 -2 0 -2.5t1 -1.5q0 -2 -2 -3.5t-2 -4.5l-2.5 2.5t-1.5 3.5q-2 -3 -9 -7.5t-15.5 -10t-16 -11t-10.5 -9.5l1 1l-4 -2t-2 -3q0 -1 0.5 -1.5t0.5 -1.5q-2 -7 -3 -12l-2 -10
q-3 0 -5 8.5t-8 8.5q0 5 4 7q-4 5 -5 8t-3 13q5 2 5 7q0 1 -1.5 4t-0.5 4q0 2 2.5 2.5t3.5 4.5q-3 5 -6.5 6.5t-8.5 4.5q3 4 3 5q1 4 -0.5 7t-3.5 5q-3 2 -5 3q5 6 7 15.5t10 9.5q-1 1 -1 3q-1 1 -1 2v1q-1 0 -2 -1t-3 -1l-4 6q-4 6 -4 8h1q0 1 1 2q2 0 2 -1t1 -1l4 5
q0 4 -2 10q-1 3 -3 6q-2 -2 -3.5 -5t-5.5 -3q-2 7 -4.5 5.5t-1.5 3.5h4.5t3.5 3q-2 4 -2.5 5.5t0.5 6.5q4 0 4.5 -3.5t5.5 -3.5q0 1 0.5 2.5t0.5 3.5q1 6 0 14q8 0 10 2.5t14 2.5l-4 -5q16 -17 27 -20t17 -3q3 2 6.5 3t7.5 6q2 -2 4.5 -4t4.5 -2v6q2 0 3.5 1t3.5 2l4 2
q2 0 4.5 -2.5t4.5 -3.5q1 1 3 2q4 2 5 2v-3q-3 -2 -3.5 -4t-3.5 -7q1 -3 5 -3q8 4 15 11.5t14 9.5q0 -3 -1.5 -5.5t-2.5 -6.5q2 0 2.5 -0.5t1.5 -0.5q4 0 5 1q0 4 -4 5q0 1 1 3t4 2q1 0 1 -1t2 -1v1q0 1 1 1q-2 8 -1 16q2 0 6 8.5t4 9.5q1 2 -1 4t-4 7h4q-1 1 -2 1
q-2 0 -3 -1q-4 6 -7 9q-2 2 -3 4q-2 0 -5 -5t-2 -4q-1 -2 0.5 -4.5t0.5 -4.5q0 -1 -1.5 -3.5t-1.5 -4.5q-2 -6 1 -8q-2 -1 -3 -1t-2 -1t-2 -1t-2 1t0 2l2 4q-2 2 -1.5 5.5t-4.5 8.5q2 10 7 16t16 6q2 0 2 -1t1 -1q3 0 5 6q-1 4 0 7q0 1 2 5q0 2 -0.5 3.5t-0.5 3.5t0.5 3.5
t1.5 3.5q-2 5 -5 9q-2 4 -4.5 7t-4.5 3t-2.5 -2t-5.5 -4q-1 2 -4 2.5t-5 0.5q-11 0 -16.5 12.5t-6.5 15.5q5 0 11.5 1t7.5 8q1 5 -6 6.5t-12 8.5q4 4 4.5 9t10.5 5q2 0 2 -1.5t1 -1.5t4 5q-2 0 -4 2.5t-2 3.5q0 2 2.5 4.5t2.5 4.5q1 2 -1 6q2 1 5 1t5 -7q5 5 4 9t7 4
q2 0 2.5 -2t5.5 -4q0 1 1 4.5t5 5.5q3 0 3 -7l9 4q3 0 4 -4q5 3 8 5t7 4q2 -8 6 -9.5t6 -1.5q1 0 2.5 0.5t3.5 0.5q5 0 9 -1t5 -5q5 1 8 1q1 0 4 -1l3 3q1 -2 5 -3q18 5 24.5 9.5t11 7.5t10 5t21.5 2q14 0 20 -7t16 -12q-2 -1 -3 -2q-1 -5 3.5 -8t10 -5t10 -3t4.5 -2h-2
q4 -1 6.5 -10.5t4.5 -20t3 -19l1 -8.5q0 -1 2 -2.5t1 -3.5l-10 -14q1 0 3 -2l1 -1q-4 -2 -3.5 -5.5t-2.5 -5.5q0 -2 1.5 -3.5t1.5 -3.5h-5l3 -4.5t1 -3.5q-1 -1 -2 -3t-3 -3q3 -3 3 -4q-3 -3 -3 -6v-3q0 -1 1 -2l-5 -5q-2 -11 2 -17.5t3 -9.5l-1 -1v-2q1 -1 0 -2q3 0 5.5 4
t5 9.5t4 10t1.5 5.5t-0.5 3t-0.5 5q6 8 6 12q1 3 1 10t1 12q4 0 7 5q1 2 2 5q-1 0 -1 1q-1 1 0 2v3q2 5 4 11.5t3 11.5q-7 2 -6 8q0 2 3 4q-6 2 -7 3q3 5 4 9.5t3 11.5q-2 0 -4 5.5t-4 12t-4 12t-3 5.5l4 4t2 5q1 8 -2 14.5t-8 11.5t-10.5 9.5t-7.5 9.5q-2 8 -7 12t-11.5 7
t-13 6.5t-10.5 10.5q-3 -2 -6.5 -2.5t-8.5 -2.5q2 2 2 3q-4 0 -7.5 7.5t-3.5 8.5q1 0 1 2q-2 4 -6 4q-1 0 -3 -2t-4 -2q-5 0 -5.5 6.5t-8.5 6.5l-4 -1h-3v1q0 -1 -1 -1h-3q-2 3 -3.5 6t-5.5 4q-1 -1 -2.5 -1.5t-3.5 -2.5q-2 2 -3 4t-5 4q0 -4 -3 -8q-5 0 -5 4t-1 6
q-1 -2 -9 -6q0 2 -1 3t-2 3l-7 -6l-6 4l-4 -1t-9.5 -2t-11 -1.5t-7.5 -0.5q0 1 4 1q-5 3 -12 5.5t-11 9.5q0 -1 0.5 -3t0.5 -4l-3 3l-3 3q-3 -7 -5.5 -7.5t-4.5 -1t-4 -4.5t-4 -17q-1 -2 -5 -3.5t-4 -4.5q-2 -2 0 -2h3q1 0 1 1v-5q-3 0 -6.5 -0.5t-4.5 -2.5q-2 2 -2.5 3
t-1.5 4q-7 -5 -16.5 -14.5t-11.5 -17.5q-1 0 -1.5 1t-1.5 1q-5 0 -13 -10.5t-11 -11.5q0 -1 0.5 -1t0.5 -1l-4 -2.5t-8.5 -5t-8.5 -4.5l-4 -2h-1q-1 0 0 1q-5 -2 -5 -1.5t-2 -7.5q-20 -8 -24 -16.5t-4 -10.5q-1 -2 -1 -6v-3q-14 -12 -19 -19t-6 -12q-1 -2 1.5 -4.5t0.5 -9.5
q-3 2 -4 4q-2 -6 1 -9q-1 -3 -5 -3q2 -2 1.5 -3.5t-0.5 -3.5q-1 -5 -4.5 -9t-5.5 -6q0 -2 0.5 -2.5t1 -1.5t0.5 -3t-1 -7h-4q0 -4 3 -4.5t2 -2.5q0 -3 -2.5 -5t-2.5 -4q5 -8 4 -13l-2 -6l-2 -6t0 -4t1 -3q-4 0 -9 -2q3 -1 4.5 -5t2 -9t1 -9t1.5 -4q0 -4 -3 -4q1 0 0 -4.5
t-1 -6.5q-1 -5 -8 -11.5t-11 -6.5q0 -2 2 -3.5t2 -4.5q-1 0 -1 -1q-1 -1 -1 -4v-6h6q-1 -3 0 -5.5t0 -4.5h-1q-1 0 -1 -2q0 -1 1 -2t0 -2q-1 -2 -2 -2.5t-3 -2.5t-4 -3q0 -2 3 -2h5q-2 -2 -3.5 -4.5t-3.5 -2.5q1 -4 2.5 -8t3.5 -4t4.5 3.5t5.5 3.5q0 -2 -2 -2t-3 -2l2 -2
q2 -2 2 -3q-1 -8 -5.5 -9t-7.5 -11q2 5 6 5v-2zM697 410l-1 1q0 1 3.5 2.5t7.5 3t7.5 2.5l3.5 1q-5 0 -9.5 5.5t-9.5 5.5t-11.5 -0.5t-11.5 -0.5q-8 0 -8 4q-2 -3 -10 -7.5t-8 -9.5l2 -4q1 -2 1.5 -3.5t2.5 -3.5q1 2 3 2.5t4 1.5q1 -2 2 -2.5t1 -1.5v-1q-1 -1 -2.5 -5
t-2.5 -6q-2 -9 1.5 -9.5t3.5 -3.5l-1 -1q-1 -1 -1.5 -2t-1.5 -2q4 0 7.5 2.5t7.5 3.5q3 -2 2 -5.5t3 -5.5v6q1 5 5.5 8t5.5 8q0 2 -1 4t-1 4t2 4t4 5zM736 454q1 2 1.5 11.5t-5.5 9.5q-4 0 -6 -1.5t-3 -1.5q-5 5 -9 7.5t-9 4.5q-1 0 -1 -1.5t-2 -1.5t-4 1.5t-4 1.5
q-5 0 -8.5 -1.5t-7.5 -1.5q-3 0 -5 3q-11 -7 -16 -7.5t-6 -8.5q0 -2 0.5 -2.5t0.5 -1.5t1 -1q0 -2 -1 -2q-1 -3 0 -5q3 2 4.5 4.5t3.5 2.5q1 -7 4 -7q1 0 5.5 1t5.5 1q2 -2 8.5 -3t8.5 -1q4 1 7 2q6 2 7 3q2 0 1.5 -1.5t1.5 -1.5q4 0 8.5 1t7.5 1t5.5 -2t5.5 -2zM514 450
q1 -2 6 -1.5t4 -2.5q-1 -5 -11 -6.5t-13 -3.5q-3 0 -4.5 1t-3.5 1q-5 0 -6.5 -3.5t-11.5 -5.5q-2 0 -3.5 2.5t-3.5 2.5q-1 -6 -9 -13.5t-11 -7.5q8 24 16.5 28.5t14.5 7.5l1 -1q5 0 8.5 3.5t18.5 3.5q3 0 4 -1zM544 331q1 0 3 1v1q1 1 4 1q1 0 2.5 -1t2.5 -1q-2 2 -3.5 4
t-3.5 4q4 5 6.5 8t3.5 8q0 6 -7 6q-2 0 -5 -0.5t-4 -2.5q0 -3 9 -3q-14 -12 -22.5 -25.5t-9.5 -15.5q1 0 2 -1t2 -1q-5 -5 -6 -7q3 0 13 9.5t12 15.5h1zM562 216q10 -1 10 -11l-5 -5q-7 0 -12.5 3t-10.5 5q8 8 18 8zM517 393q1 1 2.5 1.5t1.5 2.5q1 2 -0.5 4t-0.5 4q0 1 2 3
t3 2q4 0 4.5 -5t2.5 -8q-2 -2 -5.5 -5t-5.5 -5q-6 0 -4 6zM815 484q-2 -9 -9 -9q1 2 2 3t2 3q0 2 -1 3t0 3q2 2 3 5t5 3zM481 390q-2 0 -2.5 3.5t0.5 5.5q0 3 5 10l1 -14q0 -1 -1 -3t-3 -2zM408 328q1 2 6 3q-4 -2 -3.5 -3t-2.5 -4q1 0 1 -1t2 -1q1 0 3 1t3 1v-1v-2
q-5 0 -6 -3q-7 0 -5 6v1q0 1 2 3zM718 405q-1 0 -5 -2l-4 -2q0 -3 5 -6q0 2 2 5.5t2 4.5zM609 204q5 -1 6 -1.5t0 -2.5q0 -3 -3.5 -4t-6.5 -1q2 3 2.5 4.5zM679 395q-6 0 -3 3q0 3 4 4l2 -3q0 -4 -3 -4zM534 449l1 1q7 0 5 -2v-2q0 -1 -3 -1q-4 0 -3 4zM375 88
q0 -2 -0.5 -2.5t-0.5 -1.5v-1q-2 0 -2.5 1t-1.5 2q0 2 1 3q0 1 1 1q4 0 3 -2zM365 122h9q-3 -3 -5 -4q-1 1 -2.5 1.5t-1.5 2.5zM740 459q3 -4 4 -4t1 4v1v1q-2 0 -2.5 -1t-2.5 -1zM503 399l-1 2q0 3 2 4q2 -1 2 -3q0 -1 -3 -3zM409 273h5q-1 -1 -2 -3t-3 -4q-1 0 -1 1t1 6z
M440 399q-2 0 -2 1t-2 2q2 0 3 1t2 1h1l2 -2q-3 -2 -4 -3zM513 293q2 0 3 1t1 2q1 1 -2 6v-3.5t-2 -5.5zM433 229l-3 7q-1 -5 -0.5 -6t3.5 -1zM408 261q3 -1 3 -2q-1 -1 -6 -1q1 3 3 3zM546 337q0 -3 1 -4l-4 -2q0 1 -0.5 1t-0.5 2q3 3 4 3zM368 70q0 -4 1 -5t2 -1t1 1v1
q0 1 -2 2t-2 2zM604 208q0 -1 1 -1h2q-2 -2 -3 -2h-1q-1 1 -1 2q1 0 1 0.5t1 0.5zM373 450q-3 0 -3 -1.5t-2 -3.5q4 3 5 5zM417 379l-2 -1l-1 -1q-3 0 -2.5 1.5t-0.5 2.5q2 0 2.5 -1t3.5 -1zM588 200q0 -1 1 -1q0 -1 0.5 -1t0.5 -1v-1h-2q-1 0 -2 1q-1 0 2 3zM663 417l-1 2
h-1q0 1 1 1h1q2 0 2 -1v-1q0 -1 -2 -1zM521 550q-1 -2 -4 -5q0 3 4 5zM617 712q1 2 -4 2l3 -2h1zM498 177q1 0 1 -2l-1 -1v-1q-1 0 -1 1t-2 1zM584 721h-2v1q-1 0 -1 -1l2 -3zM415 337v-2h3q0 2 -3 2zM659 130q0 -2 2 -3q-4 0 -4 3h2zM518 507q-1 -3 -3 -3l1 1q0 2 2 2z
M792 421l-1 2l2 1q1 0 1 -0.5t2 -0.5q-4 -2 -3 -2h-1zM419 574v1q-1 1 0 2h2zM718 395q0 2 -3 2v-1q0 -1 3 -1zM667 714l1 6l-2 -2v-1q0 -3 1 -3zM363 269v-1q0 1 1 4zM814 458q0 -2 1 -2q0 2 -1 2zM653 386q-1 -1 2 -3q0 1 -0.5 1t-0.5 1q-1 0 -1 1zM391 64l-1 -1h-1v1h2z
M683 143q1 -1 1 -2h-1v2zM642 88v-2l-1 2h1zM670 114v-2h-1zM549 449q1 0 0 -1h-1zM438 379q1 1 1 2h-1v-2zM596 277q-3 0 -3 -1zM784 399h-2q0 -1 1 -1h1v1zM570 474l-1 -2v2h1zM359 166q1 1 2 1l-1 -1h-1zM370 405l-1 -1zM575 582q0 1 -1 1zM528 571q0 1 1 1zM531 548l1 2
q-1 -1 -1 -2z" />
    </font>
</defs>
</svg>
